<svg xmlns="http://www.w3.org/2000/svg" width="375" height="149" viewBox="0 0 375 149">
  <g id="Group_1884" data-name="Group 1884" transform="translate(0 -136)">
    <path id="Path_735" data-name="Path 735" d="M0,0H375V149H0Z" transform="translate(0 136)" fill="#e3d5f8"/>
    <g id="Group_1879" data-name="Group 1879">
      <g id="Group_1878" data-name="Group 1878">
        <path id="Path_134" data-name="Path 134" d="M309.117,316.167a21.078,21.078,0,0,1-5.8,6.956c-.343.275-.693.539-1.049.8q-.718.5-1.472.99a48.379,48.379,0,0,1-12.939,5.406q-1.825.5-3.662.948-1.55.376-3.1.7c-.393.086-.786.166-1.18.252s-.844.169-1.26.252l-.6.113a154.04,154.04,0,0,1-35.033,2l-.56-.028-.895-.045q-3.589-.187-7.186-.476l-.907-.073-.4-.033q-2.016-.169-4.033-.371-2.656-.252-5.32-.557l-.229-.025-.187-.023h0c-6.339-.713-12.692-1.57-19.054-2.45l-.9-.126-1.616-.224-1.361-.189h0l-.4-.055q-3.221-.451-6.442-.892l-.348-.048c-4.033-.552-8.088-1.084-12.13-1.568l-.527-.063h0q-2.483-.295-4.963-.562l-1.26-.134-1.676-.169c-4.645-.461-9.287-.829-13.92-1.059q-3.342-.166-6.7-.252-2.772-.063-5.545-.073-3.76-.018-7.536.043h-.57c-3.546.058-7.1.159-10.656.28l-.64.02h-.212c-7.561.267-15.122.623-22.663.877l-1.842.061h-.267q-3.932.126-7.856.194H92.667l-1.169.015q-1.822.018-3.637.02H86.376c-4.441-.013-8.864-.111-13.26-.34l-.489-.028a167.827,167.827,0,0,1-25.282-3.145q-1.288-.27-2.571-.565A118.058,118.058,0,0,1,27.94,317.4a20.1,20.1,0,0,1-7.14-4.143c-4.98-5.041-3.11-14.913,3.37-17.784,5.068-2.246,11.006-.418,16.458-1.432a8.41,8.41,0,0,0,.99-.252,13.761,13.761,0,0,0,2.016-.832c.222-.111.444-.229.668-.353a17.015,17.015,0,0,0,1.492-.912,22.905,22.905,0,0,0,2.268-1.721q.479-.408.933-.847a17.837,17.837,0,0,0,2.752-3.294,11.643,11.643,0,0,0,.756-1.422,7.507,7.507,0,0,0,.313-.786,7.323,7.323,0,0,0,.3-1.164,5.389,5.389,0,0,0-1.986-5.237,5.28,5.28,0,0,0-.5-.381,7.7,7.7,0,0,0-1.094-.633c-.154-.073-.313-.144-.474-.212-2.3-.97-5.275-1.343-7.78-2.016h0a13.737,13.737,0,0,1-2.228-.774c-.456-.212-.91-.433-1.356-.665h0l-.118-.066h0a30.343,30.343,0,0,1-9.829-8.065,26.278,26.278,0,0,1-1.83-2.656c-.169-.277-.333-.562-.489-.847-4.428-7.989-4.884-18.227-.277-26.083a24.681,24.681,0,0,1,1.865-2.737q.333-.431.688-.847c4.385-5.174,10.686-8.68,17.048-11.276a119.972,119.972,0,0,1,26.59-7.133q2.772-.441,5.545-.791c7.737-.988,15.566-1.512,23.338-1.91q10.906-.552,21.907-.713,3.728-.05,7.463-.043,8.415,0,16.831.325,2.772.106,5.545.252,7.11.368,14.192,1.008,3.4.308,6.79.678a278.511,278.511,0,0,1,50.513,10.026q2.785.842,5.545,1.764a214.125,214.125,0,0,1,20.261,7.831q.938.421,1.87.847,6.2,2.843,12.219,6.127a135.888,135.888,0,0,1,15.273,9.577q2.853,2.092,5.545,4.365a79.745,79.745,0,0,1,8.849,8.73q.363.421.718.847,1.845,2.215,3.5,4.59c5.394,7.753,9.013,16.619,11.684,25.677C311.287,299.925,312.854,308.8,309.117,316.167Z" transform="translate(22.84 -65.527)" fill="#6c63ff" opacity="0.1"/>
        <path id="Path_135" data-name="Path 135" d="M327.84,289.079H306.309V261.69h9.577q-.355-.426-.718-.847h-8.849v-8.73q-2.687-2.268-5.545-4.365v13.106H251.136V232.041h22.131q-.935-.426-1.87-.847H251.136v-7.831q-2.772-.915-5.545-1.764v9.577H174.749l-.169-.161,20.493-19.452q-3.387-.373-6.79-.678l-14.192,13.469V209.887q-2.772-.146-5.545-.252v15.649L151.716,209.31q-3.733,0-7.463.043l22.824,21.662-.169.161H99V212q-2.772.35-5.545.791v18.4H49.816q-.355.416-.688.847H93.453v28.8H47.53c.156.285.32.57.489.847H93.453v27.389H71.105q-.454.439-.933.847h23.28v28.026q2.772.4,5.545.827V289.926h69.544v35.116q2.772,0,5.545.073V289.926h71.5v42.989l.229.025q2.661.3,5.32.557V289.926h49.623v42.483c.423-.078.847-.161,1.26-.252s.786-.159,1.18-.252q1.553-.33,3.1-.7V289.926h21.705Zm-159.3,0H99V261.69h69.539Zm0-28.228H99v-28.81h68.553l.978.771Zm77.044,28.228H174.092V261.69h71.495Zm0-28.228H174.092v-28.81h71.495Zm55.173,28.228H251.136V261.69h49.623Z" transform="translate(0.727 -62.886)" fill="#6c63ff" opacity="0.1"/>
      </g>
      <g id="Group_1888" data-name="Group 1888" transform="translate(89.695 148.473)">
        <path id="Path_969" data-name="Path 969" d="M933.929,502.65a1.245,1.245,0,0,0,.84-1.714L938,497.915l-2.235-.537-2.725,2.952a1.252,1.252,0,0,0,.89,2.321Z" transform="translate(-767.029 -432.521)" fill="#ffb6b6"/>
        <path id="Path_970" data-name="Path 970" d="M942.347,433.313l-1.507-2.124,5.659-5.853,1.314-9.226a3.138,3.138,0,0,1,4.109-2.531h0a3.142,3.142,0,0,1,1.971,3.976l-3.353,9.947Z" transform="translate(-773.778 -365.618)" fill="#945a5e"/>
        <path id="Path_971" data-name="Path 971" d="M872.208,501.333h-1.672l-.8-6.451h2.469Z" transform="translate(-693.013 -394.325)" fill="#ffb6b6"/>
        <path id="Path_972" data-name="Path 972" d="M982.247,704.143H981.06l-.212-1.12-.543,1.12h-3.148a.708.708,0,0,1-.4-1.29l2.514-1.736v-1.133l2.644.158Z" transform="translate(-802.152 -593.959)" fill="#2f2e41"/>
        <path id="Path_973" data-name="Path 973" d="M912.077,496.034l-1.469.8-3.782-5.286,2.168-1.18Z" transform="translate(-722.563 -390.727)" fill="#ffb6b6"/>
        <path id="Path_974" data-name="Path 974" d="M1041.06,694.9l-1.042.567-.722-.883.059,1.244-2.765,1.5a.708.708,0,0,1-.97-.941l1.378-2.726-.542-1,2.4-1.125Z" transform="translate(-849.239 -587.235)" fill="#2f2e41"/>
        <path id="Path_975" data-name="Path 975" d="M975.949,535.084h-3.457V522.775l-2.14-8.025a45.937,45.937,0,0,1-1.2-17.615l0-.024.018-.016c.055-.046,5.532-4.575,9-1.11,2.335,2.335.141,10.732.018,11.193v14.475Z" transform="translate(-796.049 -430.372)" fill="#2f2e41"/>
        <path id="Path_976" data-name="Path 976" d="M973.223,407.824l-.018-.018-4.407.067-2.353,5.523c-2.178,3.383-.1,5.307.051,5.612l-.417,4.151-.268,2.678-.431,4.312,10.1-3.3-1.124-4.5,1.3-6.492a8.879,8.879,0,0,0-2.432-8.032Z" transform="translate(-793.331 -361.149)" fill="#945a5e"/>
        <path id="Path_977" data-name="Path 977" d="M875.207,438.847l7.1,9.988,2.724-1.937-5.93-12.187Z" transform="translate(-697.37 -346.38)" fill="#2f2e41"/>
        <circle id="Ellipse_91" data-name="Ellipse 91" cx="4.069" cy="4.069" r="4.069" transform="translate(173.189 37.464)" fill="#ffb6b6"/>
        <path id="Path_978" data-name="Path 978" d="M857.537,281.866l-4.438,5.121-4.265,2.294.268-2.678,2.511-1.41Z" transform="translate(-676.355 -224.593)" opacity="0.1"/>
        <path id="Path_979" data-name="Path 979" d="M969.767,360.85l-.382-1.673a4.3,4.3,0,0,1,.593-3.288,2.989,2.989,0,0,0,.092-3.049,2.345,2.345,0,0,0-2.043-1.287h-.1v-.1a2.508,2.508,0,0,1,2.194-2.548,1.12,1.12,0,0,1,.628-.792,4.506,4.506,0,0,1,3.933.06,1.24,1.24,0,0,1,.765-1.014,1.223,1.223,0,0,1,.668-.038,1.513,1.513,0,0,1,.425-.975,1.793,1.793,0,0,1,1.589-.366,4.272,4.272,0,0,1,2.473,1.6,12.607,12.607,0,0,1,1.476,2.557,12.176,12.176,0,0,0,1.455,2.513,4.045,4.045,0,0,0,2.36,1.512,2.425,2.425,0,0,0,2.461-.987l.092-.149.084.154a2.752,2.752,0,0,1-.506,3.124,3.74,3.74,0,0,1-3.062,1.043,6,6,0,0,1-3.014-1.27,4.51,4.51,0,0,1-1.816-2.437,6.6,6.6,0,0,1-.13-.822,2.666,2.666,0,0,0-.487-1.528,2.486,2.486,0,0,0-1.254-.637l-.086-.023a1.126,1.126,0,0,1-.48.818.813.813,0,0,1-.262.1c.509,2.049.3,3.618-.623,4.664-1.557,1.766-4.55,1.4-4.677,1.387l-.084-.011,0-.085a4.722,4.722,0,0,0-.083-.678c-.429,1.033-1.871,3.764-2.063,4.039Z" transform="translate(-795.36 -311.692)" fill="#2f2e41"/>
        <path id="Path_980" data-name="Path 980" d="M244.584,443.911a1.345,1.345,0,0,1-2.06.1l-4.382,1.906.427-2.446,4.1-1.435a1.352,1.352,0,0,1,1.919,1.878Z" transform="translate(-213.865 -388.183)" fill="#ffb6b6"/>
        <path id="Path_981" data-name="Path 981" d="M161.921,429.508l-10.178,4.534-.022-.008-11.6-4.134a3.821,3.821,0,0,1-1.714-4.956h0a3.817,3.817,0,0,1,5.447-1.7l8.633,5.2,8.371-1.085Z" transform="translate(-134.126 -373.017)" fill="#3f3d56"/>
        <path id="Path_982" data-name="Path 982" d="M266.222,205.465c-3.848-8.511-3.706-19.3,2.266-26.48a43.033,43.033,0,0,0,15.4,25.213c3.074,2.427,6.746,4.807,7.586,8.633a9.62,9.62,0,0,1-1.5,6.973,28.571,28.571,0,0,1-4.831,5.461l-.2.575C277.27,220.523,270.07,213.976,266.222,205.465Z" transform="translate(-234.163 -178.824)" fill="#a5d297"/>
        <path id="Path_983" data-name="Path 983" d="M284.486,178.455a36.781,36.781,0,0,0,2.987,22.432,15.839,15.839,0,0,0,2.739,4.139,9.085,9.085,0,0,0,4.125,2.418,18.8,18.8,0,0,1,4.311,1.459,5.563,5.563,0,0,1,2.6,3.734,14.453,14.453,0,0,1-.243,5.746c-.4,2.1-.843,4.275-.267,6.386.07.256-.331.349-.4.094-1-3.673.945-7.3.673-10.988a5.633,5.633,0,0,0-2.251-4.417,14.589,14.589,0,0,0-4.349-1.565,9.694,9.694,0,0,1-4.121-2.214,14.644,14.644,0,0,1-2.888-4.018,35.684,35.684,0,0,1-3.428-10.613,37.432,37.432,0,0,1,.122-12.714c.047-.26.441-.137.393.121Z" transform="translate(-249.995 -178.189)" fill="#fff"/>
        <path id="Path_984" data-name="Path 984" d="M271.213,267.2a5.518,5.518,0,0,1-6.6-2.744c-.12-.236.242-.433.362-.2a5.11,5.11,0,0,0,6.143,2.54c.252-.082.344.319.094.4Z" transform="translate(-234.939 -246.684)" fill="#fff"/>
        <path id="Path_985" data-name="Path 985" d="M333.019,290.413a10.636,10.636,0,0,0,.86-7.7c-.069-.256.332-.349.4-.094a11.064,11.064,0,0,1-.912,8.014C333.244,290.865,332.9,290.646,333.019,290.413Z" transform="translate(-289.442 -261.276)" fill="#fff"/>
        <path id="Path_986" data-name="Path 986" d="M284.483,214.437a3.124,3.124,0,0,0,2.448-1.671c.121-.236.47-.017.35.217a3.5,3.5,0,0,1-2.7,1.855.213.213,0,0,1-.247-.154.207.207,0,0,1,.154-.247Z" transform="translate(-250.663 -205.66)" fill="#fff"/>
        <path id="Path_987" data-name="Path 987" d="M370.158,179.4c-.071.15-.143.3-.213.452a41.134,41.134,0,0,0-2.348,6.246c-.05.165-.1.333-.143.5a43.368,43.368,0,0,0-1.317,15.912,42.113,42.113,0,0,0,1.142,6.3c.746,2.854,1.782,5.89,1.548,8.74a7.233,7.233,0,0,1-.118.886l-13,7.938c-.039,0-.076.009-.114.013l-.5.341c-.035-.1-.07-.214-.1-.319-.021-.061-.039-.123-.059-.184-.013-.041-.026-.082-.04-.118,0-.014-.009-.027-.011-.038-.014-.036-.023-.071-.035-.1q-.291-.916-.569-1.838s0,0,0-.008a61.923,61.923,0,0,1-2.684-14.392c-.008-.146-.017-.295-.019-.444a40.186,40.186,0,0,1,.227-6.554,35.528,35.528,0,0,1,.608-3.543,29.545,29.545,0,0,1,3.423-8.58c3.158-5.308,7.978-9.546,13.877-11.086C369.857,179.469,370.005,179.431,370.158,179.4Z" transform="translate(-304.21 -179.15)" fill="#a5d297"/>
        <path id="Path_988" data-name="Path 988" d="M383.566,178.786a36.782,36.782,0,0,0-11.121,19.709,15.839,15.839,0,0,0-.3,4.953,9.085,9.085,0,0,0,1.837,4.414,18.8,18.8,0,0,1,2.564,3.761,5.562,5.562,0,0,1-.173,4.546,14.452,14.452,0,0,1-3.653,4.441c-1.581,1.438-3.247,2.906-4.058,4.938-.1.246-.475.079-.376-.167,1.412-3.535,5.147-5.256,7.153-8.368a5.633,5.633,0,0,0,.862-4.882,14.587,14.587,0,0,0-2.53-3.868,9.694,9.694,0,0,1-1.957-4.249,14.644,14.644,0,0,1,.113-4.947,35.684,35.684,0,0,1,3.652-10.538,37.434,37.434,0,0,1,7.752-10.078c.194-.179.434.156.241.334Z" transform="translate(-317.546 -178.358)" fill="#fff"/>
        <path id="Path_989" data-name="Path 989" d="M376.072,240.317a5.518,5.518,0,0,1-3.616-6.163c.047-.261.454-.2.407.061a5.11,5.11,0,0,0,3.376,5.726C376.489,240.027,376.321,240.4,376.072,240.317Z" transform="translate(-320.82 -222.649)" fill="#fff"/>
        <path id="Path_990" data-name="Path 990" d="M393.251,298.1a10.636,10.636,0,0,0,5.325-5.633c.1-.246.475-.079.376.167a11.063,11.063,0,0,1-5.553,5.85C393.159,298.6,393.012,298.214,393.251,298.1Z" transform="translate(-337.359 -269.152)" fill="#fff"/>
        <path id="Path_991" data-name="Path 991" d="M414.588,211.689a3.124,3.124,0,0,0,2.961.139c.239-.115.386.269.148.384a3.5,3.5,0,0,1-3.276-.147.213.213,0,0,1-.1-.272.207.207,0,0,1,.272-.1Z" transform="translate(-354.229 -204.869)" fill="#fff"/>
        <path id="Path_992" data-name="Path 992" d="M678.222,227.465c-3.848-8.511-3.706-19.3,2.266-26.48a43.034,43.034,0,0,0,15.4,25.213c3.074,2.427,6.746,4.807,7.586,8.633a9.619,9.619,0,0,1-1.5,6.973,28.568,28.568,0,0,1-4.83,5.461l-.2.575C689.27,242.523,682.07,235.976,678.222,227.465Z" transform="translate(-562.447 -196.353)" fill="#a5d297"/>
        <path id="Path_993" data-name="Path 993" d="M696.486,200.455a36.781,36.781,0,0,0,2.987,22.432,15.84,15.84,0,0,0,2.739,4.139,9.084,9.084,0,0,0,4.125,2.418,18.8,18.8,0,0,1,4.311,1.459,5.563,5.563,0,0,1,2.6,3.734,14.454,14.454,0,0,1-.243,5.746c-.4,2.1-.843,4.275-.267,6.386.07.256-.331.349-.4.094-1-3.673.945-7.3.673-10.988a5.633,5.633,0,0,0-2.251-4.417,14.59,14.59,0,0,0-4.349-1.565,9.693,9.693,0,0,1-4.121-2.214,14.645,14.645,0,0,1-2.888-4.018,35.691,35.691,0,0,1-3.428-10.613,37.435,37.435,0,0,1,.122-12.714c.047-.26.441-.137.393.121Z" transform="translate(-578.279 -195.719)" fill="#fff"/>
        <path id="Path_994" data-name="Path 994" d="M683.214,289.2a5.518,5.518,0,0,1-6.6-2.744c-.12-.236.242-.433.362-.2a5.11,5.11,0,0,0,6.143,2.54C683.372,288.715,683.464,289.117,683.214,289.2Z" transform="translate(-563.223 -264.214)" fill="#fff"/>
        <path id="Path_995" data-name="Path 995" d="M745.019,312.413a10.636,10.636,0,0,0,.86-7.7c-.069-.256.332-.349.4-.094a11.063,11.063,0,0,1-.912,8.014c-.124.235-.473.016-.35-.217Z" transform="translate(-617.726 -278.806)" fill="#fff"/>
        <path id="Path_996" data-name="Path 996" d="M696.483,236.437a3.124,3.124,0,0,0,2.448-1.671c.121-.236.47-.017.35.217a3.5,3.5,0,0,1-2.7,1.855.213.213,0,0,1-.247-.154A.207.207,0,0,1,696.483,236.437Z" transform="translate(-578.946 -223.19)" fill="#fff"/>
        <path id="Path_997" data-name="Path 997" d="M782.158,201.4c-.072.15-.143.3-.213.452a41.142,41.142,0,0,0-2.348,6.246c-.05.165-.1.333-.143.5a43.37,43.37,0,0,0-1.317,15.912,42.116,42.116,0,0,0,1.143,6.3c.746,2.854,1.782,5.89,1.548,8.74a7.223,7.223,0,0,1-.118.886l-13,7.938c-.039,0-.076.009-.114.013l-.5.341c-.035-.1-.07-.214-.1-.319-.021-.061-.039-.123-.059-.184-.013-.041-.026-.082-.04-.118,0-.014-.008-.027-.011-.038-.014-.036-.023-.071-.035-.1q-.29-.916-.569-1.838s0,0,0-.008a61.925,61.925,0,0,1-2.684-14.392c-.008-.146-.017-.295-.019-.444a40.183,40.183,0,0,1,.227-6.554,35.51,35.51,0,0,1,.608-3.543,29.544,29.544,0,0,1,3.423-8.58c3.158-5.308,7.978-9.546,13.877-11.086C781.857,201.469,782.005,201.431,782.158,201.4Z" transform="translate(-632.494 -196.68)" fill="#a5d297"/>
        <path id="Path_998" data-name="Path 998" d="M795.565,200.786a36.782,36.782,0,0,0-11.121,19.709,15.838,15.838,0,0,0-.3,4.953,9.084,9.084,0,0,0,1.837,4.414,18.8,18.8,0,0,1,2.563,3.761,5.563,5.563,0,0,1-.173,4.546,14.452,14.452,0,0,1-3.654,4.441c-1.581,1.438-3.247,2.906-4.058,4.938-.1.246-.474.079-.376-.167,1.412-3.535,5.147-5.256,7.153-8.368a5.634,5.634,0,0,0,.862-4.882,14.589,14.589,0,0,0-2.53-3.868,9.7,9.7,0,0,1-1.957-4.249,14.645,14.645,0,0,1,.113-4.947,35.686,35.686,0,0,1,3.652-10.538,37.436,37.436,0,0,1,7.752-10.078c.194-.179.434.156.241.334Z" transform="translate(-645.829 -195.888)" fill="#fff"/>
        <path id="Path_999" data-name="Path 999" d="M788.072,262.317a5.518,5.518,0,0,1-3.616-6.163c.047-.261.454-.2.407.061a5.11,5.11,0,0,0,3.376,5.726C788.489,262.027,788.321,262.4,788.072,262.317Z" transform="translate(-649.103 -240.178)" fill="#fff"/>
        <path id="Path_1000" data-name="Path 1000" d="M805.251,320.1a10.636,10.636,0,0,0,5.325-5.633c.1-.246.476-.079.376.167a11.064,11.064,0,0,1-5.553,5.85C805.159,320.6,805.012,320.214,805.251,320.1Z" transform="translate(-665.642 -286.682)" fill="#fff"/>
        <path id="Path_1001" data-name="Path 1001" d="M826.588,233.689a3.124,3.124,0,0,0,2.961.139c.239-.115.386.269.148.384a3.5,3.5,0,0,1-3.276-.147.213.213,0,0,1-.1-.271A.207.207,0,0,1,826.588,233.689Z" transform="translate(-682.513 -222.398)" fill="#fff"/>
        <path id="Path_1002" data-name="Path 1002" d="M305.468,375.441h98.993V318.13a1.622,1.622,0,0,0-1.62-1.62H307.088a1.622,1.622,0,0,0-1.62,1.62Z" transform="translate(-267.51 -288.404)" fill="#a7a2f6"/>
        <path id="Path_1049" data-name="Path 1049" d="M0,0H92.876V52.727H0Z" transform="translate(41.016 30.346)" fill="#efefef"/>
        <path id="Path_1003" data-name="Path 1003" d="M305.044,598.9v7.072a2.233,2.233,0,0,0,2.233,2.233h36.537v13.957h-.485a.29.29,0,0,0-.29.29v.971a.29.29,0,0,0,.29.29h22.682a.29.29,0,0,0,.29-.29v-.971a.29.29,0,0,0-.29-.29h-.485V608.2h36.538a2.233,2.233,0,0,0,2.233-2.233V598.9Z" transform="translate(-267.172 -513.412)" fill="#3f3d56"/>
        <path id="Path_1004" data-name="Path 1004" d="M371.562,415.185H348.929a.6.6,0,0,1-.595-.595v-9.183a.6.6,0,0,1,.595-.595h22.633a.6.6,0,0,1,.595.595v9.184A.6.6,0,0,1,371.562,415.185Z" transform="translate(-301.666 -358.763)" fill="#6c63ff"/>
        <path id="Path_1005" data-name="Path 1005" d="M377.392,471.944H359.069a.714.714,0,0,1,0-1.428h18.323A.714.714,0,0,1,377.392,471.944Z" transform="translate(-309.651 -411.117)" fill="#a0a0a0"/>
        <path id="Path_1006" data-name="Path 1006" d="M377.392,488.046H359.069a.714.714,0,0,1,0-1.428h18.323A.714.714,0,0,1,377.392,488.046Z" transform="translate(-309.651 -423.947)" fill="#a0a0a0"/>
        <path id="Path_1007" data-name="Path 1007" d="M377.392,504.149H359.069a.714.714,0,1,1,0-1.428h18.323A.714.714,0,0,1,377.392,504.149Z" transform="translate(-309.651 -436.778)" fill="#a0a0a0"/>
        <path id="Path_1008" data-name="Path 1008" d="M513.665,415.185H491.032a.6.6,0,0,1-.595-.595v-9.183a.6.6,0,0,1,.595-.595h22.633a.6.6,0,0,1,.595.595v9.184A.6.6,0,0,1,513.665,415.185Z" transform="translate(-414.895 -358.763)" fill="#6c63ff"/>
        <path id="Path_1009" data-name="Path 1009" d="M519.495,471.944H501.172a.714.714,0,1,1,0-1.428h18.323A.714.714,0,0,1,519.495,471.944Z" transform="translate(-422.879 -411.117)" fill="#a0a0a0"/>
        <path id="Path_1010" data-name="Path 1010" d="M519.495,488.046H501.172a.714.714,0,1,1,0-1.428h18.323A.714.714,0,0,1,519.495,488.046Z" transform="translate(-422.879 -423.947)" fill="#a0a0a0"/>
        <path id="Path_1011" data-name="Path 1011" d="M519.495,504.149H501.172a.714.714,0,1,1,0-1.428h18.323A.714.714,0,0,1,519.495,504.149Z" transform="translate(-422.879 -436.778)" fill="#a0a0a0"/>
        <path id="Path_1012" data-name="Path 1012" d="M655.768,415.185H633.135a.6.6,0,0,1-.595-.595v-9.183a.6.6,0,0,1,.595-.595h22.633a.6.6,0,0,1,.595.595v9.184A.6.6,0,0,1,655.768,415.185Z" transform="translate(-528.123 -358.763)" fill="#6c63ff"/>
        <path id="Path_1013" data-name="Path 1013" d="M661.6,471.944H643.275a.714.714,0,0,1,0-1.428H661.6A.714.714,0,0,1,661.6,471.944Z" transform="translate(-536.107 -411.117)" fill="#a0a0a0"/>
        <path id="Path_1014" data-name="Path 1014" d="M661.6,488.046H643.275a.714.714,0,0,1,0-1.428H661.6A.714.714,0,0,1,661.6,488.046Z" transform="translate(-536.107 -423.947)" fill="#a0a0a0"/>
        <path id="Path_1015" data-name="Path 1015" d="M661.6,504.149H643.275a.714.714,0,1,1,0-1.428H661.6A.714.714,0,0,1,661.6,504.149Z" transform="translate(-536.107 -436.778)" fill="#a0a0a0"/>
        <path id="Path_1016" data-name="Path 1016" d="M745.389,390.954l.062,11.511.252-.014.24,4.262-.468.026.013,2.56.375-.007.076,4.265-.427.008.2,37.562a3.713,3.713,0,0,1-3.689,3.73l-41.492.225a3.713,3.713,0,0,1-3.73-3.689l-.326-60.171a3.713,3.713,0,0,1,3.689-3.73l41.492-.225A3.715,3.715,0,0,1,745.389,390.954Z" transform="translate(-579.069 -344.782)" fill="#3f3d56"/>
        <path id="Path_1017" data-name="Path 1017" d="M751.856,461.766l-41.638.226a1.145,1.145,0,0,1-1.15-1.137l-.328-60.571a1.145,1.145,0,0,1,1.137-1.15l41.638-.226a1.145,1.145,0,0,1,1.15,1.137l.328,60.571A1.145,1.145,0,0,1,751.856,461.766Z" transform="translate(-588.839 -354.06)" fill="#efefef"/>
        <circle id="Ellipse_92" data-name="Ellipse 92" cx="0.316" cy="0.316" r="0.316" transform="translate(141.377 43.416)" fill="#fff"/>
        <path id="Path_1018" data-name="Path 1018" d="M779.949,439.5h-24.1a.634.634,0,0,1-.634-.633v-9.778a.634.634,0,0,1,.633-.633h24.1a.634.634,0,0,1,.633.633v9.778A.634.634,0,0,1,779.949,439.5Z" transform="translate(-625.872 -377.602)" fill="#6c63ff"/>
        <path id="Path_1019" data-name="Path 1019" d="M786.156,499.934h-19.51a.76.76,0,0,1,0-1.52h19.51A.76.76,0,0,1,786.156,499.934Z" transform="translate(-634.374 -433.346)" fill="#a0a0a0"/>
        <path id="Path_1020" data-name="Path 1020" d="M786.156,517.08h-19.51a.76.76,0,0,1,0-1.52h19.51A.76.76,0,0,1,786.156,517.08Z" transform="translate(-634.374 -447.008)" fill="#a0a0a0"/>
        <path id="Path_1021" data-name="Path 1021" d="M786.156,534.225h-19.51a.76.76,0,0,1,0-1.52h19.51A.76.76,0,0,1,786.156,534.225Z" transform="translate(-634.374 -460.67)" fill="#a0a0a0"/>
        <path id="Path_1022" data-name="Path 1022" d="M779.949,579.134h-24.1a.634.634,0,0,1-.634-.633v-9.778a.634.634,0,0,1,.633-.633h24.1a.634.634,0,0,1,.633.633V578.5A.634.634,0,0,1,779.949,579.134Z" transform="translate(-625.872 -488.863)" fill="#6c63ff"/>
        <path id="Path_1023" data-name="Path 1023" d="M786.156,639.569h-19.51a.76.76,0,0,1,0-1.52h19.51A.76.76,0,0,1,786.156,639.569Z" transform="translate(-634.374 -544.608)" fill="#a0a0a0"/>
        <path id="Path_1024" data-name="Path 1024" d="M786.156,656.714h-19.51a.76.76,0,0,1,0-1.52h19.51A.76.76,0,0,1,786.156,656.714Z" transform="translate(-634.374 -558.27)" fill="#a0a0a0"/>
        <path id="Path_1025" data-name="Path 1025" d="M786.156,673.86h-19.51a.76.76,0,0,1,0-1.52h19.51A.76.76,0,0,1,786.156,673.86Z" transform="translate(-634.374 -571.931)" fill="#a0a0a0"/>
        <path id="Path_1026" data-name="Path 1026" d="M240.442,501.186l-.08-33.172h.3l-.015-6.1h-.3l-.025-10.185a2.9,2.9,0,0,0-2.9-2.89l-21.556.052a2.9,2.9,0,0,0-2.89,2.9l.017,7.1-.482.012.106,4.266.386-.01,0,.941-.41.01.106,4.266.314-.008.079,32.879a2.891,2.891,0,0,0,2.9,2.89l21.556-.052A2.9,2.9,0,0,0,240.442,501.186Z" transform="translate(-193.439 -393.844)" fill="#3f3d56"/>
        <path id="Path_1027" data-name="Path 1027" d="M222.346,507.7a1.391,1.391,0,0,1-.921-1.3l-.121-49.98a1.388,1.388,0,0,1,1.385-1.391l4.586-.011-.057.14a1.6,1.6,0,0,0,1.487,2.2l10.179-.025a1.62,1.62,0,0,0,1.244-.772,1.586,1.586,0,0,0,.11-1.435l-.057-.14,4.738-.012a1.39,1.39,0,0,1,1.391,1.385l.115,47.686a3.687,3.687,0,0,1-3.674,3.692l-19.934.048A1.389,1.389,0,0,1,222.346,507.7Z" transform="translate(-200.448 -398.732)" fill="#efefef"/>
        <circle id="Ellipse_93" data-name="Ellipse 93" cx="0.316" cy="0.316" r="0.316" transform="translate(29.435 56.837)" fill="#fff"/>
        <path id="Path_1028" data-name="Path 1028" d="M259.2,507.173H242.822a.431.431,0,0,1-.43-.43V500.1a.431.431,0,0,1,.43-.43H259.2a.431.431,0,0,1,.43.43v6.645A.431.431,0,0,1,259.2,507.173Z" transform="translate(-217.251 -434.345)" fill="#6c63ff"/>
        <path id="Path_1029" data-name="Path 1029" d="M263.417,548.243H250.158a.517.517,0,1,1,0-1.033h13.258A.517.517,0,0,1,263.417,548.243Z" transform="translate(-223.027 -472.228)" fill="#a0a0a0"/>
        <path id="Path_1030" data-name="Path 1030" d="M263.417,559.9H250.158a.517.517,0,0,1,0-1.033h13.258A.517.517,0,0,1,263.417,559.9Z" transform="translate(-223.027 -481.512)" fill="#a0a0a0"/>
        <path id="Path_1031" data-name="Path 1031" d="M263.417,571.547H250.158a.517.517,0,0,1,0-1.033h13.258A.517.517,0,0,1,263.417,571.547Z" transform="translate(-223.027 -490.796)" fill="#a0a0a0"/>
        <path id="Path_1032" data-name="Path 1032" d="M259.2,605.173H242.822a.431.431,0,0,1-.43-.43V598.1a.431.431,0,0,1,.43-.43H259.2a.431.431,0,0,1,.43.43v6.645A.431.431,0,0,1,259.2,605.173Z" transform="translate(-217.251 -512.432)" fill="#6c63ff"/>
        <path id="Path_1033" data-name="Path 1033" d="M263.417,646.243H250.158a.517.517,0,1,1,0-1.033h13.258A.517.517,0,0,1,263.417,646.243Z" transform="translate(-223.027 -550.314)" fill="#a0a0a0"/>
        <path id="Path_1034" data-name="Path 1034" d="M263.417,657.9H250.158a.517.517,0,0,1,0-1.033h13.258A.517.517,0,0,1,263.417,657.9Z" transform="translate(-223.027 -559.599)" fill="#a0a0a0"/>
        <path id="Path_1035" data-name="Path 1035" d="M263.417,669.547H250.158a.517.517,0,0,1,0-1.033h13.258A.517.517,0,0,1,263.417,669.547Z" transform="translate(-223.027 -568.882)" fill="#a0a0a0"/>
        <path id="Path_1036" data-name="Path 1036" d="M26.274,506.971h1.78l.847-6.864H26.274Z" transform="translate(-20.935 -398.488)" fill="#a0616a"/>
        <path id="Path_1037" data-name="Path 1037" d="M142.7,706.1h.5l1.956-.8,1.048.8h0a2.233,2.233,0,0,1,2.233,2.233v.073H142.7Z" transform="translate(-137.819 -598.197)" fill="#2f2e41"/>
        <path id="Path_1038" data-name="Path 1038" d="M60.214,502.113l1.736.392L64.287,496l-2.562-.579Z" transform="translate(-47.979 -394.752)" fill="#a0616a"/>
        <path id="Path_1039" data-name="Path 1039" d="M175.335,702.356l.489.11,2.083-.345.847,1.006h0a2.233,2.233,0,0,1,1.686,2.67l-.016.071-5.6-1.264Z" transform="translate(-163.415 -595.661)" fill="#2f2e41"/>
        <path id="Path_1040" data-name="Path 1040" d="M131.6,505.566a12.915,12.915,0,0,0,.2,8.179l.4,16.505s-.6,10.824,1.343,14.633h2.822l1.4-15.621.175-10.485,6.049,8.846-3.853,17,3.473.31,6.252-18.454-7.714-17.9Z" transform="translate(-128.518 -439.045)" fill="#2f2e41"/>
        <path id="Path_1041" data-name="Path 1041" d="M142.668,431.6l-10.26-1.641a1.958,1.958,0,0,1-1.154-2.741l.465-.931-.181-9.778a7.243,7.243,0,0,1,3.517-6.336l1-.6.506-1.284,4.662.114.014,1.684,1.67,2.663v.011l-.1,14.492-.46,1.5.7,1.74Z" transform="translate(-128.531 -361.535)" fill="#6c63ff"/>
        <path id="Path_1048" data-name="Path 1048" d="M4.236,0A4.236,4.236,0,1,1,0,4.236,4.236,4.236,0,0,1,4.236,0Z" transform="translate(6.553 36.685)" fill="#ffb6b6"/>
        <path id="Path_1042" data-name="Path 1042" d="M149.759,359.85a5.6,5.6,0,0,1,0-1.817,5.087,5.087,0,0,1,2.153-3.532,1.551,1.551,0,0,1,.773-.307.667.667,0,0,1,.671.406,1.39,1.39,0,0,1,.784-.778,2.451,2.451,0,0,1,1.116-.15,4.08,4.08,0,0,1,3.4,2.433c.113.269.429-.724.573-.47a1.129,1.129,0,0,0,.64.563c.281.078.4,1.236.506.966a1.287,1.287,0,0,1-1.23,1.794,7.076,7.076,0,0,1-.842-.161,2.1,2.1,0,0,0-2.3,1.571,2.78,2.78,0,0,0-.366-.814.941.941,0,0,0-.755-.415,1.057,1.057,0,0,0-.727.418c-.187.219-.327.474-.514.692-.551.639-1.3,2.129-2.083,2.021C150.947,362.182,149.931,360.577,149.759,359.85Z" transform="translate(-143.381 -318.005)" fill="#2f2e41"/>
        <path id="Path_1043" data-name="Path 1043" d="M223.607,494.733a1.345,1.345,0,0,1-1.844-.922l-4.754-.48,1.568-1.925,4.274.751a1.352,1.352,0,0,1,.756,2.577Z" transform="translate(-197.025 -427.762)" fill="#ffb6b6"/>
        <path id="Path_1044" data-name="Path 1044" d="M157.333,440.4l-11.095-1.022-.015-.018-8.1-9.278a3.821,3.821,0,0,1,.929-5.161h0a3.817,3.817,0,0,1,5.581,1.183l4.987,8.758,7.833,3.147Z" transform="translate(-133.676 -374.197)" fill="#3f3d56"/>
        <path id="Path_1045" data-name="Path 1045" d="M314.032,719.913H118.9a.242.242,0,0,1,0-.484H314.031a.242.242,0,1,1,0,.484Z" transform="translate(-118.662 -609.453)" fill="#ccc"/>
        <path id="Path_1046" data-name="Path 1046" d="M908.676,491.857a1.245,1.245,0,0,0,1.36-1.339l4.048-1.782-1.931-1.246-3.548,1.884a1.251,1.251,0,0,0,.072,2.484Z" transform="translate(-747.241 -424.641)" fill="#ffb6b6"/>
        <path id="Path_1047" data-name="Path 1047" d="M922.042,437.193l-.719-2.5,7.277-3.651,4.293-8.272a3.138,3.138,0,0,1,4.715-1.029h0a3.142,3.142,0,0,1,.545,4.4l-6.455,8.277Z" transform="translate(-758.226 -371.721)" fill="#945a5e"/>
      </g>
    </g>
  </g>
</svg>
