<svg xmlns="http://www.w3.org/2000/svg" xmlns:xlink="http://www.w3.org/1999/xlink" width="375" height="149" viewBox="0 0 375 149">
  <defs>
    <linearGradient id="linear-gradient" y1="0.5" x2="1" y2="0.5" gradientUnits="objectBoundingBox">
      <stop offset="0" stop-color="gray" stop-opacity="0.251"/>
      <stop offset="0.54" stop-color="gray" stop-opacity="0.122"/>
      <stop offset="1" stop-color="gray" stop-opacity="0.102"/>
    </linearGradient>
    <linearGradient id="linear-gradient-2" x1="-8.171" y1="1" x2="-8.171" y2="0" xlink:href="#linear-gradient"/>
  </defs>
  <g id="Group_1881" data-name="Group 1881" transform="translate(0 -136)">
    <path id="Path_735" data-name="Path 735" d="M0,0H375V149H0Z" transform="translate(0 136)" fill="#e3d5f8"/>
    <g id="Group_1880" data-name="Group 1880">
      <g id="Group_1662" data-name="Group 1662" transform="translate(40.8 137.116)">
        <path id="Path_134" data-name="Path 134" d="M309.117,316.167a21.078,21.078,0,0,1-5.8,6.956c-.343.275-.693.539-1.049.8q-.718.5-1.472.99a48.379,48.379,0,0,1-12.939,5.406q-1.825.5-3.662.948-1.55.376-3.1.7c-.393.086-.786.166-1.18.252s-.844.169-1.26.252l-.6.113a154.04,154.04,0,0,1-35.033,2l-.56-.028-.895-.045q-3.589-.187-7.186-.476l-.907-.073-.4-.033q-2.016-.169-4.033-.371-2.656-.252-5.32-.557l-.229-.025-.187-.023h0c-6.339-.713-12.692-1.57-19.054-2.45l-.9-.126-1.616-.224-1.361-.189h0l-.4-.055q-3.221-.451-6.442-.892l-.348-.048c-4.033-.552-8.088-1.084-12.13-1.568l-.527-.063h0q-2.483-.295-4.963-.562l-1.26-.134-1.676-.169c-4.645-.461-9.287-.829-13.92-1.059q-3.342-.166-6.7-.252-2.772-.063-5.545-.073-3.76-.018-7.536.043h-.57c-3.546.058-7.1.159-10.656.28l-.64.02h-.212c-7.561.267-15.122.623-22.663.877l-1.842.061h-.267q-3.932.126-7.856.194H92.667l-1.169.015q-1.822.018-3.637.02H86.376c-4.441-.013-8.864-.111-13.26-.34l-.489-.028a167.827,167.827,0,0,1-25.282-3.145q-1.288-.27-2.571-.565A118.058,118.058,0,0,1,27.94,317.4a20.1,20.1,0,0,1-7.14-4.143c-4.98-5.041-3.11-14.913,3.37-17.784,5.068-2.246,11.006-.418,16.458-1.432a8.41,8.41,0,0,0,.99-.252,13.761,13.761,0,0,0,2.016-.832c.222-.111.444-.229.668-.353a17.015,17.015,0,0,0,1.492-.912,22.905,22.905,0,0,0,2.268-1.721q.479-.408.933-.847a17.837,17.837,0,0,0,2.752-3.294,11.643,11.643,0,0,0,.756-1.422,7.507,7.507,0,0,0,.313-.786,7.323,7.323,0,0,0,.3-1.164,5.389,5.389,0,0,0-1.986-5.237,5.28,5.28,0,0,0-.5-.381,7.7,7.7,0,0,0-1.094-.633c-.154-.073-.313-.144-.474-.212-2.3-.97-5.275-1.343-7.78-2.016h0a13.737,13.737,0,0,1-2.228-.774c-.456-.212-.91-.433-1.356-.665h0l-.118-.066h0a30.343,30.343,0,0,1-9.829-8.065,26.278,26.278,0,0,1-1.83-2.656c-.169-.277-.333-.562-.489-.847-4.428-7.989-4.884-18.227-.277-26.083a24.681,24.681,0,0,1,1.865-2.737q.333-.431.688-.847c4.385-5.174,10.686-8.68,17.048-11.276a119.972,119.972,0,0,1,26.59-7.133q2.772-.441,5.545-.791c7.737-.988,15.566-1.512,23.338-1.91q10.906-.552,21.907-.713,3.728-.05,7.463-.043,8.415,0,16.831.325,2.772.106,5.545.252,7.11.368,14.192,1.008,3.4.308,6.79.678a278.511,278.511,0,0,1,50.513,10.026q2.785.842,5.545,1.764a214.125,214.125,0,0,1,20.261,7.831q.938.421,1.87.847,6.2,2.843,12.219,6.127a135.888,135.888,0,0,1,15.273,9.577q2.853,2.092,5.545,4.365a79.745,79.745,0,0,1,8.849,8.73q.363.421.718.847,1.845,2.215,3.5,4.59c5.394,7.753,9.013,16.619,11.684,25.677C311.287,299.925,312.854,308.8,309.117,316.167Z" transform="translate(-17.96 -202.643)" fill="#6c63ff" opacity="0.1"/>
        <path id="Path_135" data-name="Path 135" d="M327.84,289.079H306.309V261.69h9.577q-.355-.426-.718-.847h-8.849v-8.73q-2.687-2.268-5.545-4.365v13.106H251.136V232.041h22.131q-.935-.426-1.87-.847H251.136v-7.831q-2.772-.915-5.545-1.764v9.577H174.749l-.169-.161,20.493-19.452q-3.387-.373-6.79-.678l-14.192,13.469V209.887q-2.772-.146-5.545-.252v15.649L151.716,209.31q-3.733,0-7.463.043l22.824,21.662-.169.161H99V212q-2.772.35-5.545.791v18.4H49.816q-.355.416-.688.847H93.453v28.8H47.53c.156.285.32.57.489.847H93.453v27.389H71.105q-.454.439-.933.847h23.28v28.026q2.772.4,5.545.827V289.926h69.544v35.116q2.772,0,5.545.073V289.926h71.5v42.989l.229.025q2.661.3,5.32.557V289.926h49.623v42.483c.423-.078.847-.161,1.26-.252s.786-.159,1.18-.252q1.553-.33,3.1-.7V289.926h21.705Zm-159.3,0H99V261.69h69.539Zm0-28.228H99v-28.81h68.553l.978.771Zm77.044,28.228H174.092V261.69h71.495Zm0-28.228H174.092v-28.81h71.495Zm55.173,28.228H251.136V261.69h49.623Z" transform="translate(-40.073 -200.002)" fill="#6c63ff" opacity="0.1"/>
        <path id="Path_136" data-name="Path 136" d="M315.068,679.24a.361.361,0,0,1-.028.083h0a.222.222,0,0,1,.03-.083Z" transform="translate(-240.162 -551.494)" fill="#eaecf0"/>
        <path id="Path_137" data-name="Path 137" d="M309.4,641.577h-1.558l-1.169.015-.129-1.328-.118-1.26-.549-5.749-.018-.176V633l-.154-1.618,2.354-.882.287,2.346.02.174v.02l.582,4.763.179,1.462.1.849.088.728v.025Z" transform="translate(-233.183 -515.038)" fill="#eaecf0"/>
        <path id="Path_138" data-name="Path 138" d="M335.387,507.2l.028.083h-.186l-.028-.083Z" transform="translate(-250.714 -379.456)" fill="#3a3768"/>
        <path id="Path_139" data-name="Path 139" d="M439.4,679.55Z" transform="translate(-333.179 -551.726)" fill="#3a3768"/>
        <path id="Path_140" data-name="Path 140" d="M363.253,539.031v.108a64.862,64.862,0,0,0-2.914,11.132q-.073.5-.121,1.008c-.035.355-.063.7-.078,1.041-.02.4-.025.779-.015,1.144v.252c0,.169.018.343.028.522s.025.358.04.544.03.35.048.529a116.453,116.453,0,0,0,2.6,13.663s.068.219.156.592h-.57c-3.546.058-7.1.159-10.656.28l-.64.02h-.212c-7.561.267-15.122.622-22.663.877l-1.842.06h-.267q-3.932.126-7.856.194H317.6a4.249,4.249,0,0,1,.61-.688,4.438,4.438,0,0,1,.617-.479,13.9,13.9,0,0,1,3.869-1.661,3.083,3.083,0,0,1,.885-.108l1.764.035h.272l2.707.053,23.217.461h.058l.164-.033a4.348,4.348,0,0,0,.784-.277,2.752,2.752,0,0,0,1.653-2.137c0-.078.02-.161.025-.252a2.972,2.972,0,0,0,0-.368,1.251,1.251,0,0,0-.02-.27c-.02-.093-.025-.187-.043-.282-.56-3.128-1.512-12.755-1.512-12.755v.03s0-.411.023-1.1v-.318c0-.154.018-.32.028-.5,0-.108.015-.219.023-.335.013-.169.028-.343.043-.524a.147.147,0,0,1,0-.033q.015-.171.03-.348v-.038c.376-3.717,1.558-9.6,5.293-11.783,1.752-1.026,2.911-1.232,3.675-1.031a2.26,2.26,0,0,1,1.454,2.205v.146a3.691,3.691,0,0,1,.035.426Z" transform="translate(-242.076 -444.493)" fill="#3a3768"/>
        <path id="Path_141" data-name="Path 141" d="M315.068,679.24a.361.361,0,0,1-.028.083h0a.222.222,0,0,1,.03-.083Z" transform="translate(-240.162 -551.494)" opacity="0.1"/>
        <path id="Path_142" data-name="Path 142" d="M335.387,507.2l.028.083h-.186l-.028-.083Z" transform="translate(-250.714 -379.456)" opacity="0.1"/>
        <path id="Path_143" data-name="Path 143" d="M439.4,679.55Z" transform="translate(-333.179 -551.726)" opacity="0.1"/>
        <path id="Path_144" data-name="Path 144" d="M363.2,538.746v.078a68.594,68.594,0,0,0-2.677,9.7h0q-.091.5-.166.975c-.025.161-.048.323-.071.484q-.073.5-.121,1.008c-.035.355-.063.7-.078,1.041-.02.4-.025.779-.015,1.144v.252c0,.169.018.343.028.522s.025.36.04.544.03.35.048.529.035.35.055.527c.081.713.181,1.462.3,2.223.789,5.134,2.248,10.885,2.248,10.885s.073.232.161.62h-.57c-3.546.058-7.1.159-10.656.28l-.64.02h-.212c-7.561.267-15.122.622-22.663.877l-1.842.06H326.1q-3.932.126-7.856.194h-.716a4.328,4.328,0,0,1,.63-.713,4.167,4.167,0,0,1,.62-.484,14.046,14.046,0,0,1,3.869-1.661,3.169,3.169,0,0,1,.885-.106l1.764.035h.272l2.714.053,23.235.459h.04a.639.639,0,0,0,.181-.038,4.075,4.075,0,0,0,.789-.285,2.75,2.75,0,0,0,1.631-2.094c0-.078.02-.161.025-.252a2.973,2.973,0,0,0,0-.368,1.252,1.252,0,0,0-.02-.27c-.02-.093-.025-.2-.043-.31-.56-3.128-1.512-12.755-1.512-12.755s0-.411.023-1.1V550.5c0-.154.018-.32.028-.5,0-.108.015-.219.023-.335.013-.169.028-.343.043-.524a.147.147,0,0,1,0-.033q.015-.171.03-.348v-.038c.045-.464.106-.963.181-1.484.524-3.649,1.835-8.415,5.1-10.333,1.706-1.008,2.848-1.22,3.614-1.046a2.243,2.243,0,0,1,1.512,2.251v.146A3.68,3.68,0,0,1,363.2,538.746Z" transform="translate(-242.024 -444.207)" opacity="0.1"/>
        <path id="Path_145" data-name="Path 145" d="M315.068,679.24a.361.361,0,0,1-.028.083h0a.222.222,0,0,1,.03-.083Z" transform="translate(-240.162 -551.494)" fill="#3a3768"/>
        <path id="Path_146" data-name="Path 146" d="M335.387,507.2l.028.083h-.186l-.028-.083Z" transform="translate(-250.714 -379.456)" fill="#3a3768"/>
        <path id="Path_147" data-name="Path 147" d="M439.4,679.55Z" transform="translate(-333.179 -551.726)" fill="#3a3768"/>
        <path id="Path_148" data-name="Path 148" d="M360.058,537.928s-3.289,8.987-3.13,14.366,2.727,15.485,2.727,15.485.111.355.229.922c-3.546.058-7.1.159-10.656.28l-.64.02h-.212c-7.561.267-15.122.622-22.663.877l-1.842.06H323.6q-3.932.126-7.856.194H314.19a4.537,4.537,0,0,1,1.384-1.454l.068-.048A14.027,14.027,0,0,1,319.508,567a3.169,3.169,0,0,1,.885-.106l2.329.045h.272L325.8,567l22.62.451a3.8,3.8,0,0,0,.935-.3,2.692,2.692,0,0,0,.287-.154h0a3.024,3.024,0,0,0,.756-.617,2.855,2.855,0,0,0,.582-2.52c-.562-3.128-1.512-12.755-1.512-12.755s-.161-11.715,5.454-15c2.268-1.328,3.544-1.283,4.257-.756a.472.472,0,0,1,.06.045A3.287,3.287,0,0,1,360.058,537.928Z" transform="translate(-239.526 -443.604)" fill="#3a3768"/>
        <path id="Path_149" data-name="Path 149" d="M127.551,631.512l-.091.94-.549,5.769q-1.288-.27-2.571-.565l.643-5.245.217-1.782Z" transform="translate(-97.525 -515.135)" fill="#eaecf0"/>
        <path id="Path_150" data-name="Path 150" d="M55.12,368,68.846,338.79l55.289,4.312,5.1,24.9Z" transform="translate(-41.224 -253.491)" fill="#efc6cd"/>
        <path id="Path_151" data-name="Path 151" d="M55.12,457.248V454.7h74.111v3.725Z" transform="translate(-41.224 -340.188)" fill="#d48a9b"/>
        <path id="Path_152" data-name="Path 152" d="M154.365,567.375l33.158.675a.459.459,0,0,0,.446-.6L182.8,553.506l-22.333-.426L153.861,566.6a.549.549,0,0,0,.5.771Z" transform="translate(-119.57 -457.13)" fill="#dfe6f5"/>
        <path id="Path_153" data-name="Path 153" d="M154.365,567.375l33.158.675a.459.459,0,0,0,.446-.6L182.8,553.506l-22.333-.426L153.861,566.6a.549.549,0,0,0,.5.771Z" transform="translate(-119.57 -457.13)" opacity="0.15"/>
        <path id="Path_154" data-name="Path 154" d="M154.94,565.118l33.5.706-4.554-13.794a1.137,1.137,0,0,0-1.056-.781L161.3,550.84Z" transform="translate(-120.412 -455.455)" fill="#dfe6f5"/>
        <path id="Path_155" data-name="Path 155" d="M165.638,567.029l4.015-8.834a1.071,1.071,0,0,1,.973-.625H180.6a1.066,1.066,0,0,1,1.066,1.066v9.545a1.069,1.069,0,0,1-1.119,1.066l-14-.713a1.066,1.066,0,0,1-.917-1.5Z" transform="translate(-128.343 -460.489)" fill="#4c4c56"/>
        <path id="Path_156" data-name="Path 156" d="M244,573.457l.171-5.041a.774.774,0,0,1,.771-.756h2.949a.771.771,0,0,1,.756.64l.867,5.013a.774.774,0,0,1-.756.9l-3.99.035a.771.771,0,0,1-.769-.8Z" transform="translate(-187.025 -468.036)" fill="#d1d9ec"/>
        <path id="Path_157" data-name="Path 157" d="M85.444,457.808l11.117-.927a.756.756,0,0,1,.791.446l10.512,23.795L102,494.293c.184-.413.32,2.8-1.008.015L84.282,459.454C84.058,458.988,84.922,457.874,85.444,457.808Z" transform="translate(-67.535 -385.172)" fill="#4c4c56"/>
        <path id="Path_158" data-name="Path 158" d="M85.444,457.808l11.117-.927a.756.756,0,0,1,.791.446l10.512,23.795L102,494.293c.184-.413.32,2.8-1.008.015L84.282,459.454C84.058,458.988,84.922,457.874,85.444,457.808Z" transform="translate(-67.535 -385.172)" opacity="0.15"/>
        <path id="Path_159" data-name="Path 159" d="M87,456.133l11.682-1.492a.756.756,0,0,1,.791.446l10.515,23.795-6.361,14.278L86.405,457.214a.756.756,0,0,1,.6-1.081Z" transform="translate(-69.094 -383.496)" fill="#4c4c56"/>
        <path id="Path_160" data-name="Path 160" d="M98.653,463.288l8.446-1.316a.756.756,0,0,1,.819.464l8.846,21.64a.686.686,0,0,1-.015.555l-4.05,8.463a.683.683,0,0,1-1.237,0l-13.38-28.732a.756.756,0,0,1,.572-1.074Z" transform="translate(-77.829 -388.978)" fill="#6c63ff"/>
        <path id="Path_161" data-name="Path 161" d="M439.4,679.55Z" transform="translate(-333.179 -551.726)" fill="#fff"/>
        <path id="Path_162" data-name="Path 162" d="M255.24,460.077s-.174.287-.428.756l-.023.043c-.227.4-.5.932-.786,1.512l-.64.02h-.212c-7.561.267-15.122.623-22.663.877l-1.842.06h-.267q-3.932.126-7.856.194h-1.558l-1.169.015q-1.822.018-3.637.02h-1.442c-4.441-.013-8.864-.111-13.26-.34l-.489-.028c.864-1.88,2.409-4.963,3.665-5.948.97-.756,7.939-1.6,14.348-2.21l.675-.066h.015l1.789-.166c2.452-.224,4.678-.406,6.266-.529l.146-.013-.827-2.772-1.2-4.033.34-3.387.028-.272h-.038a2.225,2.225,0,0,1-1.008-.126l-11.969-.413h-.217l-4.6-.164h0c-2.465-.088-4.217-.154-4.285-.166a1.085,1.085,0,0,1-.212-.058.953.953,0,0,1-.292-.176,1.17,1.17,0,0,1-.252-.3h-.161l-.65.043-.33.023c-.013-.035-.023-.071-.035-.1-.03-.1-.061-.192-.088-.287h-.174l-2.268-.048h-.04s-5.852.446-8.909-.668h0c-1.122-.408-1.868-1.026-1.81-1.951a2.11,2.11,0,0,1,.131-.615c-.983-1.837,3.818-5.189,7.478-4.264a6.476,6.476,0,0,0,3.04.126,3.911,3.911,0,0,0,1.512-.688c.045-.033.086-.066.123-.1-.06-.038-.123-.071-.181-.1a2.819,2.819,0,0,0-.8-.277l.993-.29h.015s3.528-.323,5.825-.451h.015c.683-.035,1.26-.058,1.6-.048,1.512.043,4.458-1.038,4.585-1.371s1.472,0,1.472,0l1.177-.459c1.177-.456,1.85-1.079,1.85-1.537s1.051-.955,1.051-.955a9.937,9.937,0,0,1,2.379-2.407c.844-.653,1.721-1.235,2.372-1.641a47.811,47.811,0,0,1,1.008-4.849,6.321,6.321,0,0,1,2.326-2.951l.181-.121a13.07,13.07,0,0,0-.554-1.845,1.417,1.417,0,0,0-.061-.151c-.05-.118-.1-.234-.156-.343l-.078-.151c-.129.025-.252.048-.388.066a8.818,8.818,0,0,1-1.26.093,8.647,8.647,0,0,1-8.355-6.3s0,0,0-.015a8.533,8.533,0,0,1-.3-2.268,8.3,8.3,0,0,1,.287-2.178h0c.038-.151.083-.3.131-.449a.4.4,0,0,1,.018-.05c.023-.068.045-.139.071-.207a8.867,8.867,0,0,1-1.127.1h-.252a5.333,5.333,0,0,1-2.11-.35h0a2.864,2.864,0,0,1-.466-.252.061.061,0,0,1-.02-.015,2.364,2.364,0,0,1-.519-.411,2.671,2.671,0,0,0,1.026-1.784,3.288,3.288,0,0,1,.3-1.6,2.288,2.288,0,0,1,.59-.5,37.648,37.648,0,0,0,3.617-3.251,7.065,7.065,0,0,1,4.31-2.067c2.188-.068,4.113,1.454,6.281,1.742a17.018,17.018,0,0,1,2,.224,6.88,6.88,0,0,1,2.029,1.028,5.094,5.094,0,0,1,1.447,1.23,4.338,4.338,0,0,1,.59,1.409,15.579,15.579,0,0,1,.5,3.229c.058,1.142,0,2.291.121,3.425a5.875,5.875,0,0,0,.968,2.755h.033a3.777,3.777,0,0,0,.313.383c-.214.068-.428.129-.648.181a10.218,10.218,0,0,1-1.106.219,3.22,3.22,0,0,1-.517.043,1.542,1.542,0,0,1-.358-.033l.222.149.615.413h0l.232.154.466.31c.106-.31.252-.393.421-.373.343-.323.854.375.854.375a5.059,5.059,0,0,0,1.82,1.57,14.382,14.382,0,0,0,1.293.675c9.418,5.613,8.821,14.011,9.376,14.676s.59,3.075.59,3.075,1.389,8.189,2.016,8.9.04.955.587,1.747a6.49,6.49,0,0,1,.421,2.908s.378,4.988,1.724,6.069c1.207.97,2.82,9.134,3.14,10.8Z" transform="translate(-144.3 -337.008)" fill="url(#linear-gradient)"/>
        <path id="Path_163" data-name="Path 163" d="M202.1,556.44s-1.308,2.059-5.013,1.111-8.607,2.636-7.208,4.406,10.419-.5,10.419-.5l3.46-.7-.227-2.881Z" transform="translate(-146.36 -459.644)" fill="#d38884"/>
        <path id="Path_164" data-name="Path 164" d="M202.1,556.44s-1.308,2.059-5.013,1.111-8.607,2.636-7.208,4.406,10.419-.5,10.419-.5l3.46-.7-.227-2.881Z" transform="translate(-146.36 -459.644)" opacity="0.1"/>
        <path id="Path_165" data-name="Path 165" d="M236.173,555.753l-1.605-.083-.988.287s3.13.454,2.268,4.7l3.375-.2Z" transform="translate(-179.232 -459.068)" fill="#a36468"/>
        <path id="Path_166" data-name="Path 166" d="M236.173,555.753l-1.605-.083-.988.287s3.13.454,2.268,4.7l3.375-.2Z" transform="translate(-179.232 -459.068)" opacity="0.1"/>
        <path id="Path_167" data-name="Path 167" d="M260.357,518.36s-4.406,2.52-5.643,4.615c0,0-1.028.5-1.028.948s-.66,1.069-1.812,1.512l-1.154.454s-1.318-.33-1.442,0-3,1.4-4.489,1.358-7.289.5-7.289.5a5.159,5.159,0,0,1,2.924,5.724l13.716-.575,5.187-1.154,3.05-3.047Z" transform="translate(-182.164 -431.161)" fill="#444053"/>
        <path id="Path_168" data-name="Path 168" d="M260.357,518.36s-4.406,2.52-5.643,4.615c0,0-1.028.5-1.028.948s-.66,1.069-1.812,1.512l-1.154.454s-1.318-.33-1.442,0-3,1.4-4.489,1.358-7.289.5-7.289.5a5.159,5.159,0,0,1,2.924,5.724l13.716-.575,5.187-1.154,3.05-3.047Z" transform="translate(-182.164 -431.161)" opacity="0.1"/>
        <path id="Path_169" data-name="Path 169" d="M204.332,570.888l-1.941-.038-2.268-.048s-10.711.824-10.5-2.6,8.448-4.627,9.595-3.644a11.878,11.878,0,0,0,3.8,1.588c.292.078.471.121.471.121Z" transform="translate(-146.35 -465.467)" fill="#d38884"/>
        <path id="Path_170" data-name="Path 170" d="M241.344,576.606l-1.941-.038c-.774-2.659.124-4.123.633-4.7.292.078.471.121.471.121Z" transform="translate(-183.362 -471.185)" opacity="0.1"/>
        <path id="Path_171" data-name="Path 171" d="M243.087,575.839l-2.016.141-.958.066c-1.318-3.871.812-5.4.812-5.4h.63l1.031.124Z" transform="translate(-183.796 -470.272)" fill="#a36468"/>
        <path id="Path_172" data-name="Path 172" d="M335.559,459.72l-2.389,4.537s-.365-4.595-1.429-6.76a1.917,1.917,0,0,0-.96-1.066c-1.008-.318,4.789-6.671,4.789-6.671a23.067,23.067,0,0,1,2.661,1.681c1.495,1.008,3.294,2.238,4.5,3.024C345.031,455.93,335.559,459.72,335.559,459.72Z" transform="translate(-251.847 -379.851)" fill="#d38884"/>
        <path id="Path_173" data-name="Path 173" d="M327.586,489.62a6.443,6.443,0,0,0-2.455,3.045,50.848,50.848,0,0,0-1.031,5.066s.867,7.783,1.318,8.153,2.168,8.153,2.168,8.153l1.663-1.111-2.183-9.8S328.518,490.53,327.586,489.62Z" transform="translate(-246.938 -409.665)" fill="#444053"/>
        <path id="Path_174" data-name="Path 174" d="M327.586,489.62a6.443,6.443,0,0,0-2.455,3.045,50.848,50.848,0,0,0-1.031,5.066s.867,7.783,1.318,8.153,2.168,8.153,2.168,8.153l1.663-1.111-2.183-9.8S328.518,490.53,327.586,489.62Z" transform="translate(-246.938 -409.665)" opacity="0.1"/>
        <path id="Path_175" data-name="Path 175" d="M324.64,341.535h-9.6L316.6,326.39h8.045Z" transform="translate(-235.635 -244.217)" fill="#a36468"/>
        <path id="Path_176" data-name="Path 176" d="M282.541,679.24h.116l-.217.083Z" transform="translate(-215.778 -551.494)" fill="#67647e"/>
        <path id="Path_177" data-name="Path 177" d="M266.457,640.748l-1.878.721-.252.093-6.76,2.6-2.578.991-3.508,1.348h-1.432c-4.441-.013-8.864-.111-13.26-.34.852-1.868,2.341-4.857,3.556-5.822.948-.756,7.727-1.573,13.985-2.188.781-.076,1.553-.149,2.3-.217l.179-.018c2.485-.227,4.733-.411,6.3-.537l.252-.02,1.971-.151.207-.207.252,1.079.209.862Z" transform="translate(-181.633 -519.9)" fill="#67647e"/>
        <path id="Path_178" data-name="Path 178" d="M282.541,679.24h.116l-.217.083Z" transform="translate(-215.778 -551.494)" opacity="0.1"/>
        <path id="Path_179" data-name="Path 179" d="M266.457,640.748l-1.878.721-.252.093-6.76,2.6-2.578.991-3.508,1.348h-1.432c-4.441-.013-8.864-.111-13.26-.34.852-1.868,2.341-4.857,3.556-5.822.948-.756,7.727-1.573,13.985-2.188.781-.076,1.553-.149,2.3-.217l.179-.018c2.485-.227,4.733-.411,6.3-.537l.252-.02,1.971-.151.207-.207.252,1.079.209.862Z" transform="translate(-181.633 -519.9)" opacity="0.1"/>
        <path id="Path_180" data-name="Path 180" d="M282.541,679.24h.116l-.217.083Z" transform="translate(-215.778 -551.494)" fill="#67647e"/>
        <path id="Path_181" data-name="Path 181" d="M315.068,679.24a.361.361,0,0,1-.028.083h0a.222.222,0,0,1,.03-.083Z" transform="translate(-240.162 -551.494)" fill="#67647e"/>
        <path id="Path_182" data-name="Path 182" d="M335.414,507.283h-.186l-.028-.083h.186Z" transform="translate(-250.714 -379.456)" fill="#67647e"/>
        <path id="Path_183" data-name="Path 183" d="M307.413,641.323l-.156,5.187v.307l-.078,2.568-1.842.06h-.267q-3.932.126-7.856.194h-1.558l-1.169.015q-1.822.018-3.637.02H289.4c1.311-.812,3.007-1.706,4.832-2.6.819-.4,1.668-.8,2.52-1.2,2.268-1.053,4.564-2.049,6.437-2.843l.239-.1c.726-.307,1.384-.582,1.946-.814,1.215-.5,1.986-.807,2.039-.827Z" transform="translate(-220.984 -523.108)" fill="#67647e"/>
        <path id="Path_184" data-name="Path 184" d="M293.164,553.679a9.465,9.465,0,0,0,1.737,2.752c.123.121.338.232.449.1a.317.317,0,0,0,.048-.186,2.4,2.4,0,0,0-.454-1.285c-.252-.388-.549-.741-.774-1.144s-.481-1.18-.985-1.285C292.536,552.492,293.02,553.382,293.164,553.679Z" transform="translate(-223.568 -456.782)" opacity="0.1"/>
        <path id="Path_185" data-name="Path 185" d="M338.221,451.411c-.035.126-.073.252-.113.373a8.491,8.491,0,0,1-6.366,5.683,1.917,1.917,0,0,0-.96-1.066c-1.008-.318,4.789-6.671,4.789-6.671A26.856,26.856,0,0,1,338.221,451.411Z" transform="translate(-251.847 -379.828)" opacity="0.1"/>
        <path id="Path_186" data-name="Path 186" d="M311.5,421.613a8.466,8.466,0,1,1-2.48-6A8.483,8.483,0,0,1,311.5,421.613Z" transform="translate(-224.821 -352.453)" fill="#d38884"/>
        <path id="Path_187" data-name="Path 187" d="M336.611,496.79s-1.764,2.142-1.482,3.544h2.14l1.565-1.764Z" transform="translate(-255.165 -415.027)" fill="#67647e"/>
        <path id="Path_188" data-name="Path 188" d="M346.029,460.9l-6.729,9.252s1.729,2.472,2.553,2.6,5.525-10.943,5.525-10.943Z" transform="translate(-258.307 -388.183)" opacity="0.1"/>
        <path id="Path_189" data-name="Path 189" d="M346.362,460.24,339.63,469.5s1.729,2.47,2.553,2.593,5.525-10.941,5.525-10.941Z" transform="translate(-258.554 -387.689)" fill="#a36468"/>
        <path id="Path_190" data-name="Path 190" d="M333.8,507.26a58.471,58.471,0,0,1-.66,6.218c-.33,1.031,0,10.5,0,10.5l3.09-1.275-.537-14.537Z" transform="translate(-253.593 -422.859)" fill="#67647e"/>
        <path id="Path_191" data-name="Path 191" d="M335.387,507.2l.028.083h-.186l-.028-.083Z" transform="translate(-250.714 -379.456)" opacity="0.1"/>
        <path id="Path_192" data-name="Path 192" d="M439.4,679.55Z" transform="translate(-333.179 -551.726)" opacity="0.1"/>
        <path id="Path_193" data-name="Path 193" d="M363.851,511.071l-.154.252c-.1.156-.2.35-.333.6a.187.187,0,0,0-.018.03c-.187.345-.408.769-.633,1.23-7.561.267-15.122.623-22.663.877l-1.842.061h-.267l-.791-2.672v-.028l-.083-.282-.5-1.679-.5-1.706-.522-1.82-.192-.66-.05-.166-.822-2.8-1.114-3.8.36-3.624h0l.025-.275.325-3.246.045-.963h0l.025-.5v-.144h0l.055-1.169.166-3.478.086-1.779h0l.015-.27h0l.171-3.571.486-1.459.252-.726.56-1.686.121-.416h0c.176-.633.532-1.883.864-3.085h0l.03-.1h0l.023-.078.237-.854.295-1.1c.111-.421.184-.721.2-.824a16.153,16.153,0,0,1,1.129-2.016h0c1.26-2.084,3.155-5.152,3.372-6.18a.116.116,0,0,0,0-.025,1.258,1.258,0,0,1,.053-.184c.1-.307.252-.391.408-.371a.5.5,0,0,1,.2.078,1.585,1.585,0,0,1,.393.378,5.017,5.017,0,0,0,1.782,1.555l.136.078.081.048c.58.33,1.048.542,1.048.542,9.224,5.56,8.65,13.88,9.184,14.537s.577,3.05.577,3.05,1.358,8.113,1.976,8.821.043.948.577,1.731a6.41,6.41,0,0,1,.411,2.856s.37,4.94,1.689,6.011S363.851,511.071,363.851,511.071Z" transform="translate(-253.864 -387.793)" opacity="0.1"/>
        <path id="Path_194" data-name="Path 194" d="M364.839,510.72l-.111.192h0c-.088.156-.229.4-.4.713l-.018.035c-.192.355-.418.786-.643,1.26h-.212c-7.561.267-15.122.623-22.663.877l-1.842.061-.789-2.682v-.028l-.083-.282-.522-1.764-.5-1.714-.5-1.711-.2-.686h0l-.862-2.944-1.139-3.879.315-3.153.043-.421.348-3.581h0l.134-2.793.164-3.375.043-.885.048-1.023.02-.431.164-3.372.486-1.457.209-.628.489-1.474.1-.313s.471-1.656.927-3.3c.018-.06.035-.121.05-.181.04-.141.078-.282.118-.421h0c.04-.141.078-.28.113-.418.129-.459.252-.887.338-1.24.124-.461.207-.8.224-.9a14.846,14.846,0,0,1,1.152-2.052,45.847,45.847,0,0,0,3.3-5.958,1.872,1.872,0,0,0,.05-.184h0a.96.96,0,0,1,.219-.5c.338-.325.839.373.839.373a4.993,4.993,0,0,0,1.782,1.555,13.361,13.361,0,0,0,1.26.668c9.224,5.56,8.65,13.88,9.184,14.54s.577,3.047.577,3.047,1.358,8.113,1.976,8.821.043.948.577,1.729a6.515,6.515,0,0,1,.411,2.883s.37,4.942,1.689,6.014S364.839,510.72,364.839,510.72Z" transform="translate(-254.605 -387.523)" fill="#444053"/>
        <path id="Path_195" data-name="Path 195" d="M351.28,462.713a19.476,19.476,0,0,0-2.772,5.293s-1.442,1.484-1.978,1.4.5,1.112.5,1.112l-5.663,7.848.8-2.412s1.689-5.93,1.764-6.465,4.176-6.656,4.5-8.2c.252-1.232,1.059-.123,1.059-.123A5.023,5.023,0,0,0,351.28,462.713Z" transform="translate(-259.855 -388.042)" opacity="0.1"/>
        <path id="Path_196" data-name="Path 196" d="M351.28,462.022a19.549,19.549,0,0,0-2.772,5.28s-1.442,1.482-1.978,1.4.5,1.111.5,1.111l-5.663,7.848.8-2.412s1.689-5.93,1.764-6.467,4.176-6.654,4.5-8.194c.252-1.235,1.059-.124,1.059-.124A4.974,4.974,0,0,0,351.28,462.022Z" transform="translate(-259.855 -387.515)" fill="#444053"/>
        <path id="Path_197" data-name="Path 197" d="M354.548,500.53c.043,1.8-2.593,4.257-2.717,4.4s-8.2,6.8-8.2,6.8l-5.8,4.446a4.925,4.925,0,0,1-2.268,1.048l.4-3.977.391-8.065a9.21,9.21,0,0,0,1.8-2.4c.04-.7,1.512-1.442,1.512-1.442s1.031-.864.864-1.358a10.937,10.937,0,0,1,.547-2.861c.37-6.714,7.289-7.372,7.289-7.372a47.42,47.42,0,0,1,5.683,2.717C356.4,493.866,354.508,498.732,354.548,500.53Z" transform="translate(-255.517 -409.762)" opacity="0.1"/>
        <path id="Path_198" data-name="Path 198" d="M246.285,575.839l-2.016.141c-.852-1.449.32-5.331.32-5.331h.164l1.031.123Z" transform="translate(-186.995 -470.272)" opacity="0.1"/>
        <path id="Path_199" data-name="Path 199" d="M280.418,488.13s-6.918.66-7.289,7.372a10.94,10.94,0,0,0-.537,2.843c.164.494-.864,1.358-.864,1.358s-1.482.741-1.512,1.442-3.78,4.521-3.78,4.521-1.563,1.779-5.187,1.966a11.4,11.4,0,0,0-5.313,1.3s-1.764-1.235-3.05-.865-7.536.865-7.536.865-1.661,5.5.411,5.85c.252.04,20.642.741,20.642.741s1.394.658,3.493-.948,5.8-4.448,5.8-4.448,8.065-6.671,8.2-6.8,2.772-2.6,2.717-4.4,1.855-6.659-.5-8.065A47.511,47.511,0,0,0,280.418,488.13Z" transform="translate(-187.565 -408.55)" fill="#444053"/>
        <path id="Path_200" data-name="Path 200" d="M312.7,421.534a8.466,8.466,0,0,1-.416,2.629,3.546,3.546,0,0,1-.313-.431q-.59-.907-1.182-1.815a4.905,4.905,0,0,0-1.2-1.416,1.679,1.679,0,0,0-1.764-.186,1.767,1.767,0,0,0-.756,1.414,16.062,16.062,0,0,0,.043,1.668.92.92,0,0,1-.154.6.988.988,0,0,1-.65.252l-.756.1a.542.542,0,0,1-.7-.345c-.628-1.137-1.061-2.548-2.238-3.095-.726-.338-1.684-.315-2.15-.965a2.1,2.1,0,0,1-.181-1.585,12.509,12.509,0,0,1,.441-1.794c.134-.413.431-1.237-.229-1.321a1.739,1.739,0,0,0-1.3.756,6.726,6.726,0,0,0-.444,1.174,2.805,2.805,0,0,1-1.55,1.439,4.438,4.438,0,0,1-1.069.29,8.483,8.483,0,0,1,16.559,2.606Z" transform="translate(-226.025 -352.373)" opacity="0.1"/>
        <path id="Path_201" data-name="Path 201" d="M286.467,402.752a6.89,6.89,0,0,0-.444,1.172,2.808,2.808,0,0,1-1.547,1.439,5.955,5.955,0,0,1-2.125.378,3.984,3.984,0,0,1-3.241-1.043,2.654,2.654,0,0,0,1.008-1.764,3.271,3.271,0,0,1,.3-1.583,2.267,2.267,0,0,1,.575-.486,37.486,37.486,0,0,0,3.544-3.221,6.912,6.912,0,0,1,4.222-2.049c2.14-.066,4.033,1.442,6.15,1.726a16.834,16.834,0,0,1,1.956.222,6.668,6.668,0,0,1,1.989,1.008,5.089,5.089,0,0,1,1.419,1.22,4.388,4.388,0,0,1,.577,1.4,15.59,15.59,0,0,1,.5,3.2c.058,1.129,0,2.268.121,3.392a5.375,5.375,0,0,0,1.248,3.1,11.087,11.087,0,0,1-1.716.4,1.787,1.787,0,0,1-1.091-.086,1.924,1.924,0,0,1-.665-.718l-1.182-1.815a4.9,4.9,0,0,0-1.2-1.416,1.678,1.678,0,0,0-1.764-.187,1.774,1.774,0,0,0-.756,1.414,16.036,16.036,0,0,0,.043,1.668.92.92,0,0,1-.154.6.991.991,0,0,1-.653.252l-.756.1a.542.542,0,0,1-.7-.345c-.628-1.139-1.061-2.548-2.238-3.1-.726-.338-1.684-.315-2.15-.965a2.1,2.1,0,0,1-.181-1.585,12.517,12.517,0,0,1,.441-1.794c.134-.413.431-1.237-.229-1.323A1.74,1.74,0,0,0,286.467,402.752Z" transform="translate(-213.287 -339.335)" fill="#444053"/>
        <path id="Path_202" data-name="Path 202" d="M373.767,502.3a3.692,3.692,0,0,1,1.905.1,6.97,6.97,0,0,0-5.5.484C370.3,503.175,373.273,502.366,373.767,502.3Z" transform="translate(-281.397 -418.952)" opacity="0.1"/>
        <path id="Path_203" data-name="Path 203" d="M374.861,509.009a11.793,11.793,0,0,0,4.62-.184c-1.23-.423-2.583-.156-3.879-.285a8.883,8.883,0,0,0-3.092-.2c-.421.108-1.971.822-1.865,1.343A8.374,8.374,0,0,1,374.861,509.009Z" transform="translate(-281.748 -423.597)" opacity="0.1"/>
        <path id="Path_204" data-name="Path 204" d="M371.1,523.925a2.329,2.329,0,0,1,.963.1,14.726,14.726,0,0,0,3.549.391,3.711,3.711,0,0,0,2.561-.756Z" transform="translate(-282.092 -435.125)" opacity="0.1"/>
        <path id="Path_205" data-name="Path 205" d="M351.29,553.584a7.1,7.1,0,0,0,3.465.63,15.292,15.292,0,0,0,3.488-.67,2.332,2.332,0,0,0,1.348-.774Z" transform="translate(-267.275 -456.899)" opacity="0.1"/>
        <path id="Path_206" data-name="Path 206" d="M393.234,559.4a18.513,18.513,0,0,0,7.692,2.382q-2.049-.822-4.128-1.555a29.9,29.9,0,0,0-4.348-1.164A2.211,2.211,0,0,1,393.234,559.4Z" transform="translate(-298.062 -461.603)" opacity="0.1"/>
        <path id="Path_207" data-name="Path 207" d="M404.26,552.345a6.5,6.5,0,0,0,1.434.078.818.818,0,0,0,.7-.252,12.3,12.3,0,0,1-3.2-.471c-.3-.071-.839-.237-1.091-.058A6.927,6.927,0,0,0,404.26,552.345Z" transform="translate(-305.279 -455.995)" opacity="0.1"/>
        <path id="Path_208" data-name="Path 208" d="M431.45,631.442a10.415,10.415,0,0,0,3.37,4.012,30.838,30.838,0,0,0-3.382-6.873c-.378-.524-.943-1.275-1.631-1.371-.2.582.3,1.613.539,2.16A20.786,20.786,0,0,0,431.45,631.442Z" transform="translate(-325.969 -512.577)" opacity="0.1"/>
        <path id="Path_209" data-name="Path 209" d="M327.04,570.119a1.712,1.712,0,0,0,.159,1.179.852.852,0,0,0,.479.33,5.713,5.713,0,0,1-.282-1.376c-.055-.33,0-.948-.234-1.192C327.1,569.408,327.078,569.766,327.04,570.119Z" transform="translate(-249.114 -469.083)" opacity="0.1"/>
        <path id="Path_210" data-name="Path 210" d="M331.7,569.475a2.686,2.686,0,0,0,1.26,1.706,19.279,19.279,0,0,1-.968-1.857c-.124-.192-.267-.466-.5-.5Q331.579,569.153,331.7,569.475Z" transform="translate(-252.466 -468.903)" opacity="0.1"/>
        <path id="Path_211" data-name="Path 211" d="M318.921,541.544a3.148,3.148,0,0,1-2.5.315c-.189-.055-.63-.252-.524-.529s.617-.086.827-.06l1.1.139C318.027,541.433,318.758,541.64,318.921,541.544Z" transform="translate(-240.794 -448.231)" opacity="0.1"/>
        <path id="Path_212" data-name="Path 212" d="M313.21,549.6c.517-.066.98.292,1.464.486a4.461,4.461,0,0,0,1.663.222.929.929,0,0,0,.776-.252A10.9,10.9,0,0,0,313.21,549.6Z" transform="translate(-238.793 -454.489)" opacity="0.1"/>
        <path id="Path_213" data-name="Path 213" d="M319.97,317.58h.083l.617,2.22-.7.746Z" transform="translate(-239.323 -237.627)" fill="#a36468"/>
        <g id="Group_1658" data-name="Group 1658" transform="translate(65.858 62.127)" opacity="0.1">
          <path id="Path_214" data-name="Path 214" d="M283.413,419.76a5.2,5.2,0,0,0-.113,1.1,2.424,2.424,0,0,0,.068-.353C283.4,420.262,283.4,420.007,283.413,419.76Z" transform="translate(-282.279 -419.539)"/>
          <path id="Path_215" data-name="Path 215" d="M287.9,419.391a.444.444,0,0,1,.413.5c.118-.418.184-.933-.33-1.008a1.73,1.73,0,0,0-1.3.769,7.051,7.051,0,0,0-.444,1.174,2.8,2.8,0,0,1-1.547,1.439,5.956,5.956,0,0,1-2.125.378,4.291,4.291,0,0,1-3.024-.822,2.568,2.568,0,0,1-.3.272,3.987,3.987,0,0,0,3.244,1.043,5.952,5.952,0,0,0,2.122-.378,2.813,2.813,0,0,0,1.55-1.439,6.885,6.885,0,0,1,.441-1.172A1.719,1.719,0,0,1,287.9,419.391Z" transform="translate(-279.25 -418.882)"/>
          <path id="Path_216" data-name="Path 216" d="M346.6,442.71a1.787,1.787,0,0,1-1.091-.086,1.946,1.946,0,0,1-.665-.718q-.59-.907-1.182-1.815a4.863,4.863,0,0,0-1.2-1.416,1.674,1.674,0,0,0-1.764-.187,1.806,1.806,0,0,0-.769,1.414v.068a1.593,1.593,0,0,1,.688-.988,1.68,1.68,0,0,1,1.764.186,4.945,4.945,0,0,1,1.2,1.416q.59.907,1.182,1.815a1.9,1.9,0,0,0,.665.718,1.779,1.779,0,0,0,1.089.086,11.175,11.175,0,0,0,1.719-.4,3.692,3.692,0,0,1-.307-.381A10.822,10.822,0,0,1,346.6,442.71Z" transform="translate(-324.637 -433.416)"/>
          <path id="Path_217" data-name="Path 217" d="M319.267,437.691a1.008,1.008,0,0,1-.65.252l-.756.1a.542.542,0,0,1-.7-.345c-.628-1.139-1.061-2.548-2.238-3.1-.726-.338-1.681-.315-2.147-.965a1.855,1.855,0,0,1-.224-1.321c-.013.078-.03.154-.043.229a2.1,2.1,0,0,0,.184,1.585c.466.65,1.424.628,2.147.965,1.18.547,1.613,1.956,2.241,3.1a.721.721,0,0,0,.29.345.738.738,0,0,0,.406.018l.756-.1a.988.988,0,0,0,.65-.252.9.9,0,0,0,.154-.6h0A.753.753,0,0,1,319.267,437.691Z" transform="translate(-304.079 -428.933)"/>
        </g>
        <path id="Path_218" data-name="Path 218" d="M748.606,617.984l-1.616-.224V593.91l.33.1,1.008.31v2.3l.013,1.036.023,2.132v2.909l.121,10.739v.287l.043,3.781v.058Z" transform="translate(-563.245 -487.67)" fill="#eaecf0"/>
        <path id="Path_219" data-name="Path 219" d="M753.739,619.314l-.9-.126V618.7l-.043-3.78v-.287l-.121-10.739v-2.909l-.023-2.132-.013-1.036v-2.3h.97V598.6l.02,2.3v2.437h0l.093,11.271v.29l.03,3.748v.06Z" transform="translate(-567.471 -488.874)" fill="#d3dae1"/>
        <path id="Path_220" data-name="Path 220" d="M757,695.27Z" transform="translate(-570.732 -563.484)" fill="#d3dae1"/>
        <path id="Path_221" data-name="Path 221" d="M1141.572,582.18v20.586q-.718.5-1.472.99l-.02-17.138V584.8Z" transform="translate(-857.263 -478.896)" fill="#eaecf0"/>
        <path id="Path_222" data-name="Path 222" d="M1147.048,581v20.087c-.343.275-.693.539-1.048.8V581.3Z" transform="translate(-861.691 -478.014)" fill="#d3dae1"/>
        <path id="Path_223" data-name="Path 223" d="M1051.7,637.9c-.62.126-1.243.252-1.865.36l-.023-18.628v-.806l1.8-.756v1.709Z" transform="translate(-789.744 -505.741)" fill="#eaecf0"/>
        <path id="Path_224" data-name="Path 224" d="M1058.253,615.73v20.163c-.393.086-.786.166-1.18.252l-.083-18.114v-1.709l.118-.055h0Z" transform="translate(-795.115 -503.99)" fill="#d3dae1"/>
        <path id="Path_225" data-name="Path 225" d="M632.54,608.8l-1.676-.169-.214-21v-1H632.3v1.142Z" transform="translate(-476.227 -482.225)" fill="#eaecf0"/>
        <path id="Path_226" data-name="Path 226" d="M638.612,608.938l-1.26-.134-.252-21.032V586.63h1.273v1.253Z" transform="translate(-481.051 -482.225)" fill="#d3dae1"/>
        <path id="Path_227" data-name="Path 227" d="M1039.45,444.232l1.152-.542v2.543l-1.121.376Z" transform="translate(-777.469 -331.953)" opacity="0.1"/>
        <path id="Path_228" data-name="Path 228" d="M1124.643,408.95v3.891l-1.046.35-1.495.5,0-1.82,1.5-2.619Z" transform="translate(-839.288 -305.969)" opacity="0.1"/>
        <path id="Path_229" data-name="Path 229" d="M1062.465,379.27v10.774l-23.344,7.78-.151-11.523Z" transform="translate(-777.11 -283.769)" fill="#d48a9b"/>
        <path id="Path_230" data-name="Path 230" d="M611.46,358.977l30.678-5.837L742.7,359.726l-23.495,7.032Z" transform="translate(-457.347 -264.225)" fill="#efc6cd"/>
        <path id="Path_231" data-name="Path 231" d="M615.569,414.6l.01,1.25-1.27-.111-1.651-.141-.008-1Z" transform="translate(-458.237 -310.195)" opacity="0.1"/>
        <path id="Path_232" data-name="Path 232" d="M731.361,423.765l-.97-.086-1.361-.116V421.88l1.346.408h.973Z" transform="translate(-545.285 -315.64)" opacity="0.1"/>
        <path id="Path_233" data-name="Path 233" d="M611.46,376.3v10.026l107.9,9.277-.151-11.523Z" transform="translate(-457.347 -281.548)" fill="#d48a9b"/>
        <path id="Path_234" data-name="Path 234" d="M909.074,408.424H894.98V403.31l14.094.993Z" transform="translate(-669.41 -301.75)" fill="#d48a9b"/>
        <path id="Path_235" data-name="Path 235" d="M909.074,408.424H894.98V403.31l14.094.993Z" transform="translate(-669.41 -301.75)" opacity="0.1"/>
        <path id="Path_236" data-name="Path 236" d="M819.87,398.86v8.08l54.1,4.116v-8.6l-21.1-1.2-2.1,1.87-8.6-.6-3.067-2.246Z" transform="translate(-613.231 -298.422)" opacity="0.1"/>
        <path id="Path_237" data-name="Path 237" d="M818.68,397.67v8.083l54.1,4.113v-8.6l-21.1-1.2-2.094,1.873-8.607-.6-3.067-2.246Z" transform="translate(-612.34 -297.532)" fill="#fff"/>
        <path id="Path_238" data-name="Path 238" d="M682.425,389.06l12.8.9-.149,4.065h-8.355l-5.588-2.2Z" transform="translate(-509.458 -291.092)" fill="#d48a9b"/>
        <path id="Path_239" data-name="Path 239" d="M682.425,389.06l12.8.9-.149,4.065h-8.355l-5.588-2.2Z" transform="translate(-509.458 -291.092)" opacity="0.1"/>
        <path id="Path_240" data-name="Path 240" d="M618.59,384.61v7.259l49.084,3.891v-7.707l-18.93-1.124-2.021,1.5-7.632-.449-3.143-1.946Z" transform="translate(-462.68 -287.763)" opacity="0.1"/>
        <path id="Path_241" data-name="Path 241" d="M617.4,383.42v7.259l49.084,3.891v-7.707l-18.93-1.122-2.019,1.495-7.634-.449-3.143-1.946Z" transform="translate(-461.79 -286.873)" fill="#fff"/>
        <path id="Path_242" data-name="Path 242" d="M1003.9,383.53l6.88.451-11.4,3.413-5.807-.418Z" transform="translate(-743.152 -286.955)" opacity="0.1"/>
        <path id="Path_243" data-name="Path 243" d="M1003.9,382.35l6.88.449-11.4,3.413-5.807-.418Z" transform="translate(-743.152 -286.073)" fill="#fff"/>
        <path id="Path_244" data-name="Path 244" d="M1049.24,557.347c.272-.118.562.1.852.156.164.033.335,0,.5.033.338.045.67.27.993.156Z" transform="translate(-789.318 -460.296)" fill="#d3dae1"/>
        <path id="Path_245" data-name="Path 245" d="M1047.83,558.161c.27-.116.559.1.849.159.166.03.338,0,.5.03.335.045.671.272.993.159Z" transform="translate(-788.263 -460.906)" fill="#d3dae1"/>
        <path id="Path_246" data-name="Path 246" d="M1044.59,559.8c.27-.116.559.1.849.156.166.033.335,0,.5.033.338.045.673.272.993.156Z" transform="translate(-785.84 -462.132)" fill="#d3dae1"/>
        <path id="Path_247" data-name="Path 247" d="M836.124,368.55l15.341,1.006-3.269,4.7-16.866-1.8Z" transform="translate(-621.802 -275.751)" opacity="0.1"/>
        <path id="Path_248" data-name="Path 248" d="M834.926,367.36l15.341,1-3.269,4.7-16.869-1.8Z" transform="translate(-620.905 -274.861)" fill="#3a3768"/>
        <path id="Path_249" data-name="Path 249" d="M839.431,368.73l13.38.819-2.85,3.826-14.711-1.469Z" transform="translate(-624.734 -275.885)" fill="#d5e1f4"/>
        <path id="Path_250" data-name="Path 250" d="M757,695.27Z" transform="translate(-570.732 -563.484)" fill="#3a3768"/>
        <path id="Path_251" data-name="Path 251" d="M757,695.27Z" transform="translate(-570.732 -563.484)" opacity="0.1"/>
        <path id="Path_252" data-name="Path 252" d="M756.54,695.27Z" transform="translate(-570.388 -563.484)" fill="#3a3768"/>
        <path id="Path_253" data-name="Path 253" d="M705.428,588.537a1.225,1.225,0,0,1-.013.214,1.446,1.446,0,0,1-.02.189,4.256,4.256,0,0,1-.365,1.283h0c-6.339-.713-12.692-1.57-19.054-2.45l-.9-.126-1.616-.224-1.361-.189h0a32.792,32.792,0,0,1-4.446-.416,23,23,0,0,1-2.747-.58c-4.033-.552-8.088-1.084-12.13-1.568l-.527-.063c.1-.428.176-.688.176-.688s.867-3.408,1.588-7.216c.159-.827.31-1.668.441-2.5.106-.668.2-1.328.282-1.963.045-.35.083-.693.116-1.028.018-.166.033-.333.045-.5s.028-.358.04-.532.018-.328.025-.486v-.237c0-.34,0-.7-.013-1.061a31.251,31.251,0,0,0-.857-5.4c-.071-.3-.144-.6-.219-.9-.023-.1-.048-.189-.073-.282-.814-3.153-1.764-5.729-1.764-5.729a.3.3,0,0,1,0-.043.139.139,0,0,0,0-.03.6.6,0,0,0,0-.063V555.5a3.861,3.861,0,0,1,.136-.781,2.834,2.834,0,0,1,.1-.267A1.661,1.661,0,0,1,663.4,553.4h0c.713-.184,1.792,0,3.42.965a5.894,5.894,0,0,1,.756.519,3.2,3.2,0,0,1,.353.3c1.865,1.737,2.858,4.6,3.387,7.218.02.093.038.186.055.28.063.323.116.638.164.948.086.544.154,1.069.2,1.555,0,.131.028.252.04.386s.025.252.033.373c.033.393.055.756.071,1.064.043.817.035,1.318.035,1.318v.025a.688.688,0,0,1-.013.108.047.047,0,0,0,0,.02v.227q-.015.159-.038.37c-.023.217-.048.471-.078.756-.02.212-.045.441-.071.683-.055.5-.116,1.089-.181,1.7-.015.116-.028.232-.04.348-.058.527-.118,1.076-.181,1.631h0c-.068.63-.144,1.26-.217,1.883-.018.136-.035.272-.05.406-.187,1.512-.373,2.886-.524,3.74a3.533,3.533,0,0,0-.05.383,1.173,1.173,0,0,0,0,.131,2.589,2.589,0,0,0,0,.343,2.894,2.894,0,0,0,2.45,2.52l10.563-.209,1.568-.03.912-.018,8.234-.164h0l.756-.015,4.1-.081a2.929,2.929,0,0,1,.824.1,13.086,13.086,0,0,1,3.579,1.565,4.208,4.208,0,0,1,.925.807.273.273,0,0,1,.035.04,4.361,4.361,0,0,1,.99,2.359v.174A2.26,2.26,0,0,1,705.428,588.537Z" transform="translate(-499.703 -457.323)" fill="#3a3768"/>
        <path id="Path_254" data-name="Path 254" d="M756.54,695.27Z" transform="translate(-570.388 -563.484)" opacity="0.1"/>
        <path id="Path_255" data-name="Path 255" d="M705.43,588.474a1.225,1.225,0,0,1-.013.214,1.447,1.447,0,0,1-.02.189,4.407,4.407,0,0,1-.378,1.283c-6.339-.713-12.692-1.57-19.054-2.45l-.9-.126-1.616-.224-1.361-.189h0a32.793,32.793,0,0,1-4.446-.416,23,23,0,0,1-2.747-.58c-4.033-.552-8.088-1.084-12.13-1.568l-.527-.063h0c.1-.444.181-.713.181-.713s.708-2.772,1.381-6.132h0c.048-.232.093-.464.139-.7l.068-.355c.156-.824.307-1.671.441-2.5.106-.668.2-1.328.282-1.963.045-.35.083-.693.116-1.028.018-.166.033-.333.045-.5s.028-.358.04-.532.018-.328.025-.486v-.237c0-.34,0-.7-.013-1.061a31,31,0,0,0-.849-5.4q-.106-.459-.219-.9c-.025-.1-.048-.189-.073-.282-.817-3.163-1.764-5.754-1.764-5.754a.077.077,0,0,0,0-.018.139.139,0,0,0,0-.03.571.571,0,0,0,0-.063v-.449a3.867,3.867,0,0,1,.129-.781c.028-.088.058-.179.093-.267a1.666,1.666,0,0,1,1.195-1.086c.713-.166,1.779.04,3.372.973a6.1,6.1,0,0,1,.786.549h0c.119.1.232.2.343.3,1.85,1.747,2.835,4.607,3.36,7.216.02.093.038.189.055.282.063.32.116.638.164.945.086.544.151,1.066.2,1.55.013.134.028.265.038.391s.025.252.033.373c.033.393.055.756.071,1.064.043.817.035,1.318.035,1.318v.134a.047.047,0,0,0,0,.02v.227q-.015.159-.038.37c-.023.217-.048.471-.078.756-.025.209-.048.439-.073.683-.055.5-.116,1.089-.181,1.7-.015.116-.028.232-.04.348-.058.527-.121,1.081-.181,1.636h0c-.073.63-.146,1.26-.222,1.88-.018.136-.033.272-.05.406-.184,1.512-.368,2.866-.519,3.715a3.506,3.506,0,0,0-.05.411,1.172,1.172,0,0,0,0,.131,2.59,2.59,0,0,0,0,.343,2.887,2.887,0,0,0,2.45,2.483l10.563-.207,1.565-.033.915-.018,8.249-.161.771-.015,4.08-.081a2.757,2.757,0,0,1,.824.1,12.941,12.941,0,0,1,3.607,1.55,4.154,4.154,0,0,1,.938.822.271.271,0,0,1,.035.04,4.318,4.318,0,0,1,.978,2.369v.174A2.937,2.937,0,0,0,705.43,588.474Z" transform="translate(-499.706 -457.26)" opacity="0.1"/>
        <path id="Path_256" data-name="Path 256" d="M756.54,695.27Z" transform="translate(-570.388 -563.484)" fill="#3a3768"/>
        <path id="Path_257" data-name="Path 257" d="M707.184,589.334l-.416-.048h0c-6.339-.713-12.692-1.57-19.054-2.45l-.9-.126-1.615-.224-1.361-.189h0a32.783,32.783,0,0,1-4.446-.416,23,23,0,0,1-2.747-.58c-4.033-.552-8.088-1.084-12.13-1.568a10.3,10.3,0,0,1,.252-1.048s2.394-9.429,2.543-14.442a26.018,26.018,0,0,0-.784-6.125h0c-.071-.3-.141-.607-.217-.9l-.068-.282c-.854-3.314-1.87-6.087-1.87-6.087a4.089,4.089,0,0,1,.058-1.026q.023-.136.06-.27a2.057,2.057,0,0,1,.65-1.089h0a.334.334,0,0,1,.048-.035c.663-.5,1.852-.539,3.97.7a6.21,6.21,0,0,1,1.182.9c.1.1.2.2.3.3,1.7,1.842,2.6,4.665,3.077,7.191l.053.28c.055.315.1.625.149.925v.025h0c.058.4.106.779.146,1.142h0a30.05,30.05,0,0,1,.181,3.219s-.1,1-.252,2.43c-.058.562-.126,1.192-.2,1.858v.1l-.038.353c-.129,1.162-.27,2.4-.413,3.551-.015.141-.033.28-.05.416-.161,1.293-.323,2.442-.456,3.191a2.812,2.812,0,0,0,2.394,3.367l9.965-.2,1.563-.03.915-.02h.507l7.9-.156h.756l4.537-.091a2.831,2.831,0,0,1,.824.1,13,13,0,0,1,3.609,1.548,4.283,4.283,0,0,1,.849.721.412.412,0,0,1,.043.05A4.365,4.365,0,0,1,707.184,589.334Z" transform="translate(-501.442 -456.396)" fill="#3a3768"/>
        <path id="Path_258" data-name="Path 258" d="M954.558,347.05l3.082,6.6h-.517l-3.614-6.525Z" transform="translate(-713.189 -259.67)" fill="#4c4c56"/>
        <path id="Path_259" data-name="Path 259" d="M954.558,347.05l3.082,6.6h-.517l-3.614-6.525Z" transform="translate(-713.189 -259.67)" opacity="0.1"/>
        <path id="Path_260" data-name="Path 260" d="M957.67,373.25h3.082v.691l-3.082.078Z" transform="translate(-716.3 -279.266)" fill="#4c4c56"/>
        <path id="Path_261" data-name="Path 261" d="M957.67,373.25h3.082v.691l-3.082.078Z" transform="translate(-716.3 -279.266)" opacity="0.1"/>
        <path id="Path_262" data-name="Path 262" d="M880.5,417.591V440.65a1.711,1.711,0,0,0,1.711,1.711h38.435a1.7,1.7,0,0,0,1.7-1.734l-.436-23.079a1.7,1.7,0,0,0-1.7-1.668h-38A1.711,1.711,0,0,0,880.5,417.591Z" transform="translate(-663.106 -354.51)" fill="#4c4c56"/>
        <path id="Path_263" data-name="Path 263" d="M880.5,417.591V440.65a1.711,1.711,0,0,0,1.711,1.711h38.435a1.7,1.7,0,0,0,1.7-1.734l-.436-23.079a1.7,1.7,0,0,0-1.7-1.668h-38A1.711,1.711,0,0,0,880.5,417.591Z" transform="translate(-663.106 -354.51)" opacity="0.1"/>
        <path id="Path_264" data-name="Path 264" d="M875,417.591V440.65a1.711,1.711,0,0,0,1.711,1.711h38.435a1.7,1.7,0,0,0,1.7-1.734l-.436-23.079a1.7,1.7,0,0,0-1.7-1.668H876.721A1.711,1.711,0,0,0,875,417.591Z" transform="translate(-658.992 -354.509)" fill="#4c4c56"/>
        <path id="Path_265" data-name="Path 265" d="M881,423.311v20.3a1.711,1.711,0,0,0,1.711,1.711H918.3a1.7,1.7,0,0,0,1.7-1.7V423.3a1.7,1.7,0,0,0-1.7-1.7h-35.59A1.711,1.711,0,0,0,881,423.311Z" transform="translate(-663.48 -358.788)" fill="#6c63ff"/>
        <path id="Path_266" data-name="Path 266" d="M924.14,344.638l3.38,6.51h7.637l-3.818-7.448Z" transform="translate(-691.221 -257.164)" fill="#4c4c56"/>
        <path id="Path_267" data-name="Path 267" d="M911.784,373.25l-.565.691h11.707v-.691Z" transform="translate(-681.557 -279.266)" fill="#4c4c56"/>
        <path id="Path_268" data-name="Path 268" d="M700.385,400.42c-.839-2.359-.834-4.978-1.852-7.264a8.834,8.834,0,0,1-.426-1.008,2.954,2.954,0,0,1-.116-.658l-.063.015-.063.018-.063.025h0l-.058.035a2.221,2.221,0,0,0,.058.222,8.5,8.5,0,0,0,.431,1.008c1.038,2.3,1.031,4.927,1.885,7.309a.685.685,0,0,0,.159.28.375.375,0,0,0,.128.078C700.4,400.453,700.39,400.438,700.385,400.42Zm0,0c-.839-2.359-.834-4.978-1.852-7.264a8.834,8.834,0,0,1-.426-1.008,2.954,2.954,0,0,1-.116-.658l-.063.015-.063.018-.063.025h0l-.058.035a2.221,2.221,0,0,0,.058.222,8.5,8.5,0,0,0,.431,1.008c1.038,2.3,1.031,4.927,1.885,7.309a.685.685,0,0,0,.159.28.375.375,0,0,0,.128.078C700.4,400.453,700.39,400.438,700.385,400.42Zm0,0c-.839-2.359-.834-4.978-1.852-7.264a8.834,8.834,0,0,1-.426-1.008,2.954,2.954,0,0,1-.116-.658l-.063.015-.063.018-.063.025h0l-.058.035a2.221,2.221,0,0,0,.058.222,8.5,8.5,0,0,0,.431,1.008c1.038,2.3,1.031,4.927,1.885,7.309a.685.685,0,0,0,.159.28.375.375,0,0,0,.128.078C700.4,400.453,700.39,400.438,700.385,400.42Zm0,0c-.839-2.359-.834-4.978-1.852-7.264a8.834,8.834,0,0,1-.426-1.008,2.954,2.954,0,0,1-.116-.658l-.063.015-.063.018-.063.025h0l-.058.035a2.221,2.221,0,0,0,.058.222,8.5,8.5,0,0,0,.431,1.008c1.038,2.3,1.031,4.927,1.885,7.309a.685.685,0,0,0,.159.28.375.375,0,0,0,.128.078C700.4,400.453,700.39,400.438,700.385,400.42Zm0,0c-.839-2.359-.834-4.978-1.852-7.264a8.834,8.834,0,0,1-.426-1.008,2.954,2.954,0,0,1-.116-.658l-.063.015-.063.018-.063.025h0l-.058.035a2.221,2.221,0,0,0,.058.222,8.5,8.5,0,0,0,.431,1.008c1.038,2.3,1.031,4.927,1.885,7.309a.685.685,0,0,0,.159.28.375.375,0,0,0,.128.078C700.4,400.453,700.39,400.438,700.385,400.42Zm0,0c-.839-2.359-.834-4.978-1.852-7.264a8.834,8.834,0,0,1-.426-1.008,2.954,2.954,0,0,1-.116-.658l-.063.015-.063.018-.063.025h0l-.058.035a2.221,2.221,0,0,0,.058.222,8.5,8.5,0,0,0,.431,1.008c1.038,2.3,1.031,4.927,1.885,7.309a.685.685,0,0,0,.159.28.375.375,0,0,0,.128.078C700.4,400.453,700.39,400.438,700.385,400.42Zm0,0c-.839-2.359-.834-4.978-1.852-7.264a8.834,8.834,0,0,1-.426-1.008,2.954,2.954,0,0,1-.116-.658l-.063.015-.063.018-.063.025h0l-.058.035a2.221,2.221,0,0,0,.058.222,8.5,8.5,0,0,0,.431,1.008c1.038,2.3,1.031,4.927,1.885,7.309a.685.685,0,0,0,.159.28.375.375,0,0,0,.128.078C700.4,400.453,700.39,400.438,700.385,400.42Zm43.791,23.49h0l-.194-.035.252-.055h0a.389.389,0,0,0,.073-.018h0c.28-.06.557-.129.829-.2h0l.285-.081h0l.04-.013c2.349-.693-.391-1.331-3.874-1.8h-.01c-3.76-.5-8.373-.834-8.373-.834l-1.444.192h-.013c-1.764.232-4.549.615-4.993.756-.539.179-5.116.4-6.712.469a.7.7,0,0,0-.237-.252l-4.706-.217v.648h0l-.035-.015a6.454,6.454,0,0,0-.638-2.52l-.035-.071c-1.215-2.3-1.459-2.881-1.459-2.881h0a.472.472,0,0,0-.033-.124c-.408-1.416-1.913-3.879-4.464-7.412l-.088-.123-.32-1.568-.055-.275h-1.605a20.99,20.99,0,0,1,1.114-3.985c.033-.081.065-.161.1-.239l.02-.045c.035-.083.076-.166.113-.252H708a7.669,7.669,0,0,0,7.369-7.133.047.047,0,0,0,0-.02q.015-.234.015-.469a7.5,7.5,0,0,0-1.008-3.78c-.02-.035-.04-.071-.063-.106l-.04-.068-.091-.141c.575-.136,1.26.126,1.764-.2a1.29,1.29,0,0,0,.431-.519,2.7,2.7,0,0,0,.252-.756h0a.251.251,0,0,0,0-.043.033.033,0,0,0,0-.015,2.981,2.981,0,0,0,.038-.519,2.8,2.8,0,0,0-.177-1.048,2.888,2.888,0,0,0-1.623-1.628,10.991,10.991,0,0,0-1.18-.32c-1.613-.431-2.977-1.495-4.537-2.087a8.229,8.229,0,0,0-3.4-.524,4.865,4.865,0,0,0-2.016.5,8.632,8.632,0,0,0-1.346.975,27.613,27.613,0,0,0-3.37,2.7,6.021,6.021,0,0,0-.489.6c-.086.124-.164.252-.252.378a.675.675,0,0,0-.607-.252h0a.992.992,0,0,0-.123,0,2.437,2.437,0,0,0-.313.033c-.252.043-2.13.539-2.13.8a8.869,8.869,0,0,0-2.157,1.326c-1.512,1.384-1.85,3.576-2.041,5.6a51.879,51.879,0,0,0-.252,7.057c.035.857.1,1.714.063,2.571a19.127,19.127,0,0,1-.446,2.994q-.325,1.537-.7,3.065c-.121.5-.315,1.066-.809,1.225l.184.025a.886.886,0,0,1-.184.088,5.512,5.512,0,0,0,.64.063h.149a1.742,1.742,0,0,0,.36-.043,1.345,1.345,0,0,0,.456-.212c.02-.05.038-.1.055-.154a.852.852,0,0,0,.3-.469,3.336,3.336,0,0,1-.05.852.538.538,0,0,1-.025.123,3.478,3.478,0,0,1-.867,1.643l.252-.192a3.706,3.706,0,0,1-.252.3q.544-.408,1.089-.834h0a.524.524,0,0,0,.063-.048h0l.62-.489v.489h0v.113c-.05,1.739-.123,6.011.272,7.032.023.06.048.121.068.179a5.018,5.018,0,0,1,.587,2.268,18.73,18.73,0,0,0,.449,2.583,3.2,3.2,0,0,1,.081,1.167,1.663,1.663,0,0,0,.045.7c.023.111.05.229.081.353a.542.542,0,0,0,.033.134c.229.917.554,2.052.214,2.5a2,2,0,0,0-.252.5,12.855,12.855,0,0,1-.648,2.208,2.068,2.068,0,0,0-.222,1.462.048.048,0,0,1,0,.013s-.018.1-.053.252c-.043.212-.111.537-.2.9v.025a12.822,12.822,0,0,1-.436,1.495h0c-.129.343-.252.59-.4.638-.5.184-.756,2.551-.756,2.551s-1.154,1.873-.935,2.334a3.1,3.1,0,0,0,.164.31l-.111.171c-.617.99-1.512,2.79-.645,3.758a4.285,4.285,0,0,0,1.033.789c-.045.1-.093.209-.144.328-.953,2.233-2.42,7.42,3.223,9.608a17.885,17.885,0,0,0,1.711.562,23,23,0,0,0,2.747.58,33.671,33.671,0,0,0,4.033.36c.6.02,1.192.025,1.764.02s1.091-.018,1.61-.04q.461-.018.9-.045a47.067,47.067,0,0,0,5.174-.567l8.065-1.444s3.387.121,4.635.837l.038.023s.2-.118.547-.35h0c.149-.1.325-.222.519-.365a17.028,17.028,0,0,0,4.806-5.348l.028-.048.275-.035h.063l.2-.028.408-.058h.073c1.021-.149,1.986-.312,1.986-.312s.038,1.127.083,2.432c.015.4.028.814.043,1.217.048,1.381.091,2.636.091,2.679s1.038,2.772,2.2,5.525l.907.073q3.594.287,7.186.476l.895.045.56.028c-.4-2.442-.721-4.771-.721-4.771l-1.5-6.974s-.156-1.444-1.278-7.863c-.907-5.2-6.25-4.741-8.252-4.375-.2.038-.37.073-.5.1v-.391s-3.839.323-7.309.479l-.844.035c-.8.03-1.568.048-2.238.048a16.4,16.4,0,0,1-1.764-.071,16.717,16.717,0,0,0-5.734.612s-3.9.633-4.426.4a1.342,1.342,0,0,0-.441-.091h-.252a.4.4,0,0,0,.252-.449,2.734,2.734,0,0,1,.219-2.152c.192-.272.5-.7.784-1.091l.681-.935v-.073l.018-.275.164-2.45.393-2.268.025-.144.035-.2.025-.146.076.025h0a5.478,5.478,0,0,0,3.276.348h.018a1.493,1.493,0,0,0,.207-.088h.04v.169l.015.295,4.206-.229h.063s.164-.812.34-1.931c.013-.091.028-.184.043-.28s.038-.252.055-.368a1.526,1.526,0,0,1,.025-.179h.252a26.445,26.445,0,0,0,5.782-.64h0a1.26,1.26,0,0,0,.381-.2,15.672,15.672,0,0,1,3.823-1.5h0l.663-.2c.481-.141.945-.272,1.356-.388.953-.252,1.633-.439,1.633-.439s6.553.607,11.447-.807h0l.081-.023C747.511,424.82,746.366,424.326,744.176,423.91Zm-46.5-32.764a1.368,1.368,0,0,0,.028.224h0a.627.627,0,0,0,.015.1.174.174,0,0,0,.02.1,2.221,2.221,0,0,0,.058.222,8.495,8.495,0,0,0,.431,1.008c1.038,2.3,1.031,4.927,1.885,7.309a.685.685,0,0,0,.159.28.375.375,0,0,0,.128.078l.06.02h.071l-.028.048a.248.248,0,0,1-.02.035l-.018.028c-.338.57-.7,1.129-1.061,1.623a2.369,2.369,0,0,0-.875.358l-.141.093-.06.045c-.088-.434-.209-.862-.32-1.29a29.791,29.791,0,0,1-.973-6.991v-.476c0-.61.015-1.217.053-1.827a1.512,1.512,0,0,1,.214-.8h0a.552.552,0,0,1,.373-.182Zm2.707,9.277c-.839-2.359-.834-4.978-1.852-7.264a8.829,8.829,0,0,1-.426-1.008,2.954,2.954,0,0,1-.116-.658l-.063.015-.063.018-.063.025h0l-.058.035a2.224,2.224,0,0,0,.058.222,8.5,8.5,0,0,0,.431,1.008c1.038,2.3,1.031,4.927,1.885,7.309a.685.685,0,0,0,.159.28.375.375,0,0,0,.128.078c-.008-.03-.015-.045-.02-.063Zm0,0c-.839-2.359-.834-4.978-1.852-7.264a8.829,8.829,0,0,1-.426-1.008,2.954,2.954,0,0,1-.116-.658l-.063.015-.063.018-.063.025h0l-.058.035a2.224,2.224,0,0,0,.058.222,8.5,8.5,0,0,0,.431,1.008c1.038,2.3,1.031,4.927,1.885,7.309a.685.685,0,0,0,.159.28.375.375,0,0,0,.128.078c-.008-.03-.015-.045-.02-.063Zm0,0c-.839-2.359-.834-4.978-1.852-7.264a8.829,8.829,0,0,1-.426-1.008,2.954,2.954,0,0,1-.116-.658l-.063.015-.063.018-.063.025h0l-.058.035a2.224,2.224,0,0,0,.058.222,8.5,8.5,0,0,0,.431,1.008c1.038,2.3,1.031,4.927,1.885,7.309a.685.685,0,0,0,.159.28.375.375,0,0,0,.128.078c-.008-.03-.015-.045-.02-.063Zm0,0c-.839-2.359-.834-4.978-1.852-7.264a8.829,8.829,0,0,1-.426-1.008,2.954,2.954,0,0,1-.116-.658l-.063.015-.063.018-.063.025h0l-.058.035a2.224,2.224,0,0,0,.058.222,8.5,8.5,0,0,0,.431,1.008c1.038,2.3,1.031,4.927,1.885,7.309a.685.685,0,0,0,.159.28.375.375,0,0,0,.128.078c-.008-.03-.015-.045-.02-.063Zm0,0c-.839-2.359-.834-4.978-1.852-7.264a8.829,8.829,0,0,1-.426-1.008,2.954,2.954,0,0,1-.116-.658l-.063.015-.063.018-.063.025h0l-.058.035a2.224,2.224,0,0,0,.058.222,8.5,8.5,0,0,0,.431,1.008c1.038,2.3,1.031,4.927,1.885,7.309a.685.685,0,0,0,.159.28.375.375,0,0,0,.128.078c-.008-.03-.015-.045-.02-.063Zm0,0c-.839-2.359-.834-4.978-1.852-7.264a8.829,8.829,0,0,1-.426-1.008,2.954,2.954,0,0,1-.116-.658l-.063.015-.063.018-.063.025h0l-.058.035a2.224,2.224,0,0,0,.058.222,8.5,8.5,0,0,0,.431,1.008c1.038,2.3,1.031,4.927,1.885,7.309a.685.685,0,0,0,.159.28.375.375,0,0,0,.128.078c-.008-.03-.015-.045-.02-.063Z" transform="translate(-519.521 -330.34)" fill="url(#linear-gradient-2)"/>
        <path id="Path_269" data-name="Path 269" d="M737.808,441.893a5.88,5.88,0,0,0-.968,1.5c-.038.083-.076.164-.111.252a24.414,24.414,0,0,0-1.492,6.087s-.691-.31-1.669-.794c-1.822-.9-4.635-2.4-5.772-3.6-.5-.542-.686-1.021-.267-1.356a3.1,3.1,0,0,0,.277-.252,8.02,8.02,0,0,0,.88-1.043c.363-.5.721-1.066,1.059-1.643.2-.338.388-.678.565-1.008l.071-.131c.756-1.434,1.308-2.659,1.308-2.659s.252.081.66.224C734.232,438.137,739.416,440.181,737.808,441.893Z" transform="translate(-548.517 -370.486)" fill="#efb7b9"/>
        <path id="Path_270" data-name="Path 270" d="M862.169,630.054s.307,2.283.7,4.693l-.895-.045q-3.589-.186-7.185-.476c-1.361-3.153-2.772-6.9-2.772-6.954s-.043-1.29-.091-2.667c-.015-.484-.033-.983-.048-1.452h0c-.025-.711-.048-1.351-.06-1.749,0-.272-.015-.433-.015-.433s-1.3.227-2.46.386l-.517.068c-.267.033-.5.058-.718.073a1.852,1.852,0,0,1-.557,0c-.4-.154.428-4.033.428-4.033l2.057-4.978.575-1.386.252-.063c.123-.03.29-.065.489-.1,1.963-.36,7.208-.819,8.1,4.358,1.1,6.394,1.26,7.831,1.26,7.831Z" transform="translate(-638.378 -500.254)" fill="#efb7b9"/>
        <path id="Path_271" data-name="Path 271" d="M911.922,728h-.008Z" transform="translate(-686.144 -587.965)" fill="#efb7b9"/>
        <path id="Path_272" data-name="Path 272" d="M862.169,630.054s.307,2.283.7,4.693l-.895-.045q-3.589-.186-7.185-.476c-1.361-3.153-2.772-6.9-2.772-6.954s-.043-1.29-.091-2.667c-.015-.484-.033-.983-.048-1.452h0c-.025-.711-.048-1.351-.06-1.749,0-.272-.015-.433-.015-.433s-1.3.227-2.46.386l-.517.068c-.267.033-.5.058-.718.073a1.852,1.852,0,0,1-.557,0c-.4-.154.428-4.033.428-4.033l2.057-4.978.575-1.386.252-.063c.123-.03.29-.065.489-.1,1.963-.36,7.208-.819,8.1,4.358,1.1,6.394,1.26,7.831,1.26,7.831Z" transform="translate(-638.378 -500.254)" opacity="0.05"/>
        <path id="Path_273" data-name="Path 273" d="M911.922,728h-.008Z" transform="translate(-686.144 -587.965)" opacity="0.05"/>
        <path id="Path_274" data-name="Path 274" d="M859.975,638.838q-3.589-.186-7.186-.476l-.907-.073-.4-.033c-1.129-2.724-2.132-5.389-2.132-5.436s-.043-1.29-.091-2.667c-.058-1.719-.123-3.634-.123-3.634l-.169.028-.071.013H848.8l-.406.068-.222.035c-.4.065-.885.139-1.358.207l-.106.015-.277.035-.252.03h0c-.194.025-.378.045-.544.06l-.2.018a1.765,1.765,0,0,1-.557,0c-.4-.154.429-4.033.429-4.033l2.631-6.364.091-.025c.139-.035.431-.1.827-.171.149-.025.313-.05.489-.073,2.283-.292,6.629-.209,7.433,4.461,1.1,6.394,1.26,7.831,1.26,7.831l1.469,6.951S859.7,637.041,859.975,638.838Z" transform="translate(-636.381 -504.391)" fill="#efb7b9"/>
        <path id="Path_275" data-name="Path 275" d="M851.248,657.61c-.058-1.719-.124-3.637-.124-3.637s-2.52.441-3.695.527l.237-.8s4.315-1.192,4.406-.519A30.713,30.713,0,0,1,851.248,657.61Z" transform="translate(-638.371 -531.847)" opacity="0.1"/>
        <path id="Path_276" data-name="Path 276" d="M849.363,611.48V613.3a36.356,36.356,0,0,1-1.9,8.289c-.035.108-.073.214-.113.32a11.438,11.438,0,0,1-.625,1.406c-.474.065-.933.121-1.273.146a1.84,1.84,0,0,1-.557,0c-.4-.154.426-4.033.426-4.033l2.631-6.361.093-.025.572-1.389A6.65,6.65,0,0,1,849.363,611.48Z" transform="translate(-636.395 -500.812)" opacity="0.1"/>
        <path id="Path_277" data-name="Path 277" d="M734.436,610.34v2.109a36.389,36.389,0,0,1-1.9,8.292c-.043.131-.091.252-.139.386s-.111.292-.174.433c-.139.335-.295.66-.459.973h0a16.832,16.832,0,0,1-4.6,5.267c-.187.144-.36.27-.5.376h-.013c-.252.171-.433.295-.549.368s-.126.078-.126.078c-1.195-.733-4.59-.857-4.59-.857l-7.924,1.439a45.929,45.929,0,0,1-5.235.595l-.9.043c-.519.02-1.059.033-1.61.035-.446,0-.9,0-1.361-.018h0a32.773,32.773,0,0,1-4.446-.416,22.2,22.2,0,0,1-2.4-.532,16.876,16.876,0,0,1-1.661-.555c-5.545-2.178-4.1-7.342-3.166-9.577.05-.118.1-.227.144-.328.207-.456.36-.723.36-.723l.368-.89h0l.6-1.459.134-.32.038-.093.446-1.081,6.3-.817,4.63-.6,1.409-.181.955-.124,1.822-.237.686-.088a8.54,8.54,0,0,1,1.278-.1,1.789,1.789,0,0,1,.681.1c.5.229,4.345-.4,4.345-.4a16.184,16.184,0,0,1,5.628-.612,31.31,31.31,0,0,0,3.909.025h0l.323-.015.418-.018h.091C730.655,610.663,734.436,610.34,734.436,610.34Z" transform="translate(-521.957 -499.959)" fill="#444053"/>
        <path id="Path_278" data-name="Path 278" d="M761.425,634.645s-3.024,6.883-3.15,7a6.2,6.2,0,0,0,0,2.142c.121-.126,4.315-9.421,4.315-9.421Z" transform="translate(-571.617 -517.933)" opacity="0.1"/>
        <path id="Path_279" data-name="Path 279" d="M799.326,612.27a7.87,7.87,0,0,0-1.989,1.784c-.459.8-4.65,8.718-5.688,9.88a25.38,25.38,0,0,0-2.326,3.309c-.121.209-.121,1.525.612.27a10.264,10.264,0,0,1,1.989-3.024c1.437-1.557,3.024-5.078,3.639-5.782s1.469-2.815,2.54-4.07l2.052-2.4Z" transform="translate(-594.864 -501.38)" opacity="0.1"/>
        <path id="Path_280" data-name="Path 280" d="M823.879,665.657a1.519,1.519,0,0,0-2.079.519C820.791,667.428,823.879,665.657,823.879,665.657Z" transform="translate(-619.049 -541.174)" opacity="0.1"/>
        <path id="Path_281" data-name="Path 281" d="M831.765,667.79s-.887,1.547-1.316,1.671S831.765,667.79,831.765,667.79Z" transform="translate(-625.619 -542.93)" opacity="0.1"/>
        <path id="Path_282" data-name="Path 282" d="M826.746,669.32s-.7,1.225-1.316,1.1Z" transform="translate(-621.916 -544.074)" opacity="0.1"/>
        <path id="Path_283" data-name="Path 283" d="M807.006,533.847s6.485-.275,7.128-.489,6.331-.948,6.331-.948,16.856,1.192,12.055,2.631-11.319.824-11.319.824-6.364,1.653-7.342,2.52-8.2.887-8.2.887Z" transform="translate(-607.128 -441.67)" fill="#efb7b9"/>
        <path id="Path_284" data-name="Path 284" d="M807.006,533.847s6.485-.275,7.128-.489,6.331-.948,6.331-.948,16.856,1.192,12.055,2.631-11.319.824-11.319.824-6.364,1.653-7.342,2.52-8.2.887-8.2.887Z" transform="translate(-607.128 -441.67)" opacity="0.05"/>
        <path id="Path_285" data-name="Path 285" d="M708.056,479.075s-5.935,2.016-3.06,7.158a22.936,22.936,0,0,0,6.578,7.561l9.545,6.608s4.007,2.293,5.842,1.346l3-.252.5-7.863s-2.52,1.958-5.262-.756-6.119-4.559-6.394-6.026S711.511,477.82,708.056,479.075Z" transform="translate(-531.247 -401.672)" fill="#a36468"/>
        <path id="Path_286" data-name="Path 286" d="M793.87,538.527s3.09,1.1,2.969,1.162-2.969,1.132-2.969,1.132l.214,4.191,4.191-.229s1.53-7.632.214-8.4l-4.62-.214Z" transform="translate(-598.31 -444.482)" fill="#67647e"/>
        <path id="Path_287" data-name="Path 287" d="M793.87,538.527s3.09,1.1,2.969,1.162-2.969,1.132-2.969,1.132l.214,4.191,4.191-.229s1.53-7.632.214-8.4l-4.62-.214Z" transform="translate(-598.31 -444.482)" opacity="0.1"/>
        <path id="Path_288" data-name="Path 288" d="M746.748,441.915a5.876,5.876,0,0,0-.968,1.5c-.038.083-.076.164-.111.252-2.251,0-3.869-1.749-5.25-3.314-.252-.29-.89.149-1.1-.176-.023-.038-.045-.076-.071-.113l.071-.131c.756-1.434,1.308-2.659,1.308-2.659s.252.081.66.224C743.172,438.16,748.356,440.2,746.748,441.915Z" transform="translate(-557.456 -370.509)" opacity="0.1"/>
        <path id="Path_289" data-name="Path 289" d="M749.957,409.01a7.586,7.586,0,0,1-7.516,7.584h-.073a7.574,7.574,0,0,1-5.691-2.571,7.728,7.728,0,0,1-.7-.92,7.589,7.589,0,1,1,13.975-4.093Z" transform="translate(-554.113 -343.69)" fill="#efb7b9"/>
        <path id="Path_290" data-name="Path 290" d="M712.681,618.22s-.577.706-1.215,1.364a4.736,4.736,0,0,1-1.326,1.084,43.166,43.166,0,0,0-4.222,2.906s-2.752,1.868-3.455,2.417-3.244.214-3.244.214a14.571,14.571,0,0,1-3.959-1.512,9.861,9.861,0,0,1,.5-1.048l1.59-3.856,6.3-.814Z" transform="translate(-524.553 -505.853)" opacity="0.1"/>
        <path id="Path_291" data-name="Path 291" d="M708.908,616.28s-.575.706-1.212,1.363a4.922,4.922,0,0,1-1.326,1.084,42.729,42.729,0,0,0-4.222,2.906s-2.755,1.868-3.458,2.417-3.241.214-3.241.214-3.488-.756-4.713-2.142c-.857-.965.03-2.755.635-3.74a7.556,7.556,0,0,1,.466-.7Z" transform="translate(-520.904 -504.402)" fill="#67647e"/>
        <path id="Path_292" data-name="Path 292" d="M755.345,490.242c-2.082-.184-8.935-8.569-8.935-8.569l.156-.214L748,479.47h3.36l.37,1.835c2.556,3.584,4.06,6.077,4.469,7.5C756.5,489.846,756.217,490.32,755.345,490.242Z" transform="translate(-562.811 -402.073)" fill="#67647e"/>
        <path id="Path_293" data-name="Path 293" d="M755.345,496.143c-2.082-.184-8.935-8.569-8.935-8.569l.156-.214a38.684,38.684,0,0,1,3.455,3.609c5.016,5.9,6.009,4.254,6.18,3.74C756.5,495.748,756.217,496.222,755.345,496.143Z" transform="translate(-562.811 -407.974)" opacity="0.1"/>
        <path id="Path_294" data-name="Path 294" d="M711.846,616.28s-.575.706-1.212,1.363a3.437,3.437,0,0,1-1.051.227,7.538,7.538,0,0,0-2.631,1.225s-3.241-.184-3.854.151a11.66,11.66,0,0,1-2.969.4c-4.312,1.23-5.5-.638-5.819-1.26a7.545,7.545,0,0,1,.466-.7Z" transform="translate(-523.842 -504.402)" opacity="0.1"/>
        <path id="Path_295" data-name="Path 295" d="M719.1,492.211a2.657,2.657,0,0,1-.038.35c-.015.113-.03.229-.048.338a5.542,5.542,0,0,1-.552,1.787c-.549.917-2.233,4.5-2.233,4.5l-.113.66-.058.345-.06.34-.411,2.412-.184,2.785s-1.008,1.406-1.437,2.016a2.761,2.761,0,0,0-.214,2.142c.154.643-1.406.733-1.406.733a11.3,11.3,0,0,1-3,1.041,7.549,7.549,0,0,0-2.631,1.22s-3.241-.184-3.854.154a11.545,11.545,0,0,1-2.969.4c-4.617,1.313-5.658-.92-5.872-1.379s.917-2.324.917-2.324.252-2.357.733-2.541,1.071-3.3,1.071-3.3a2.182,2.182,0,0,1,.214-1.469c.4-.519.368-1.989.887-2.692s-.549-3.06-.365-3.672-.582-3.09-.522-3.733a5.541,5.541,0,0,0-.643-2.447c-.418-1.1-.3-5.968-.252-7.364,0-.237.013-.373.013-.373s.428-1.379,1.56-4.131a5.607,5.607,0,0,1,3.67-3.13,4.6,4.6,0,0,1,.461-.113,3.239,3.239,0,0,1,.65.164,15.277,15.277,0,0,1,5.222,3.528,39.155,39.155,0,0,1,3.183,3.357c5.739,6.744,6.208,3.6,6.208,3.6s.252.575,1.434,2.868A7.3,7.3,0,0,1,719.1,492.211Z" transform="translate(-523.605 -398.55)" fill="#a36468"/>
        <path id="Path_296" data-name="Path 296" d="M730.338,464.372l-5.756-4.592s-2.074.252-2.931,3.735l5.925,5.189Z" transform="translate(-544.292 -387.345)" opacity="0.1"/>
        <path id="Path_297" data-name="Path 297" d="M729.994,463.691l-1.008,1.409-1.023,1.444-.771,1.132-4.731-3.985-.814-.706-.456-.388a5.327,5.327,0,0,1,1.933-3.276,2.4,2.4,0,0,1,1.008-.451Z" transform="translate(-543.948 -386.665)" fill="#67647e"/>
        <path id="Path_298" data-name="Path 298" d="M833.517,542.321c-4.8,1.437-11.319.827-11.319.827s-6.364,1.651-7.342,2.52c-.63.552-3.849.756-6.049.839-1.222.045-2.137.048-2.137.048l1.343-5.426.776-.035c1.742-.081,5.847-.287,6.351-.456.643-.214,6.331-.948,6.331-.948S838.318,540.882,833.517,542.321Z" transform="translate(-607.884 -447.115)" fill="#efb7b9"/>
        <path id="Path_299" data-name="Path 299" d="M727.381,502.528a5.545,5.545,0,0,1-.552,1.787c-.549.917-2.233,4.5-2.233,4.5l-.232,1.358a16.583,16.583,0,0,1-2.268-1.043l-9.552-6.616a22.9,22.9,0,0,1-6.578-7.561c-2.876-5.144,3.06-7.158,3.06-7.158,3.455-1.26,10.462,6.3,10.737,7.77s3.642,3.3,6.394,6.026A5.594,5.594,0,0,0,727.381,502.528Z" transform="translate(-531.972 -408.191)" opacity="0.1"/>
        <path id="Path_300" data-name="Path 300" d="M727.467,499.668c-.023.239-.05.469-.086.688a5.545,5.545,0,0,1-.552,1.787c-.549.917-2.233,4.5-2.233,4.5l-.113.66a16.341,16.341,0,0,1-2.394-1.089l-9.544-6.618a22.9,22.9,0,0,1-6.578-7.561c-2.876-5.144,3.06-7.16,3.06-7.16,3.455-1.26,10.462,6.3,10.737,7.77s3.642,3.3,6.394,6.029A5.516,5.516,0,0,0,727.467,499.668Z" transform="translate(-531.972 -406.007)" opacity="0.1"/>
        <path id="Path_301" data-name="Path 301" d="M731.419,500.9l-.489,7.861-3,.252a1.477,1.477,0,0,1-.2.088c-1.91.7-5.638-1.434-5.638-1.434l-9.544-6.616a22.9,22.9,0,0,1-6.578-7.561c-2.876-5.144,3.06-7.158,3.06-7.158,3.455-1.26,10.462,6.3,10.737,7.77s3.642,3.3,6.394,6.026a5.49,5.49,0,0,0,1.376,1.008A3.758,3.758,0,0,0,731.419,500.9Z" transform="translate(-531.972 -407.099)" fill="#a36468"/>
        <path id="Path_302" data-name="Path 302" d="M797.756,544.55l-.489,7.861-3,.252a1.466,1.466,0,0,1-.2.088l-.194-3.821s2.845-1.071,2.969-1.132-2.969-1.162-2.969-1.162V544.81A3.758,3.758,0,0,0,797.756,544.55Z" transform="translate(-598.31 -450.75)" opacity="0.1"/>
        <path id="Path_303" data-name="Path 303" d="M808.757,550.661c-1.222.045-2.137.048-2.137.048l1.356-5.414.776-.035C809.251,546.119,809.037,548.645,808.757,550.661Z" transform="translate(-607.846 -451.281)" opacity="0.1"/>
        <path id="Path_304" data-name="Path 304" d="M794.84,545.807s3.09,1.1,2.969,1.162-2.969,1.132-2.969,1.132l.214,4.191,4.191-.229s1.53-7.632.214-8.4l-4.62-.214Z" transform="translate(-599.035 -449.927)" fill="#67647e"/>
        <path id="Path_305" data-name="Path 305" d="M716.508,572.71a6.33,6.33,0,0,1-1.9,1.237Z" transform="translate(-539.026 -471.813)" opacity="0.1"/>
        <path id="Path_306" data-name="Path 306" d="M712.31,582.018s2.538-.093,2.843-.612S712.31,582.018,712.31,582.018Z" transform="translate(-537.306 -478.215)" opacity="0.1"/>
        <path id="Path_307" data-name="Path 307" d="M707.33,596.227c.154,0,3.211-.428,3.334-.827Z" transform="translate(-533.581 -488.784)" opacity="0.1"/>
        <path id="Path_308" data-name="Path 308" d="M703.57,604.275a8.373,8.373,0,0,0,2.966-1.225Z" transform="translate(-530.769 -494.506)" opacity="0.1"/>
        <path id="Path_309" data-name="Path 309" d="M731.85,605.687s6.639,0,6.944-1.222S731.85,605.687,731.85,605.687Z" transform="translate(-551.921 -495.308)" opacity="0.1"/>
        <path id="Path_310" data-name="Path 310" d="M751.63,539.809c.123,0,5.232,0,5.721-.7S751.63,539.809,751.63,539.809Z" transform="translate(-566.716 -446.531)" opacity="0.1"/>
        <path id="Path_311" data-name="Path 311" d="M709.018,461.25a4.889,4.889,0,0,1,.066.756,4.68,4.68,0,0,1-.076.839,7.259,7.259,0,0,1-.474,1.53l-.053.123c-.076.176-.156.348-.24.519a14.272,14.272,0,0,1-1.321,2.178,23.811,23.811,0,0,1-3.962,4.121q-.386.325-.779.643c0-.237.013-.373.013-.373s.429-1.379,1.56-4.131a5.607,5.607,0,0,1,3.67-3.13l-.456-.388a5.327,5.327,0,0,1,1.933-3.276C708.94,460.846,708.987,461.043,709.018,461.25Z" transform="translate(-529.729 -388.003)" opacity="0.1"/>
        <path id="Path_312" data-name="Path 312" d="M748.943,405.311a.887.887,0,0,0-.222.088c-.479.265-.618.892-1.008,1.288a2.9,2.9,0,0,1-1.8.617,2.217,2.217,0,0,0-1.7.791,4.051,4.051,0,0,0-.32,1.4.447.447,0,0,1-.1.232.454.454,0,0,1-.307.1,9.786,9.786,0,0,1-3.357-.65,1.794,1.794,0,0,0-1.623.252,1.846,1.846,0,0,0-.479,1.427v.045a9.745,9.745,0,0,1,.045,1.512,2.5,2.5,0,0,1-1.318,1.847,2.33,2.33,0,0,1-.953.272.771.771,0,0,1-.378-.055c.224-.383.438-.756.635-1.137a7.588,7.588,0,1,1,12.875-8.035Z" transform="translate(-554.207 -343.93)" opacity="0.1"/>
        <path id="Path_313" data-name="Path 313" d="M718.449,391.817a1.28,1.28,0,0,1-.421.517c-.575.373-1.4-.038-2,.295-.481.265-.618.892-1.008,1.288a2.894,2.894,0,0,1-1.8.617,2.217,2.217,0,0,0-1.7.791,4.1,4.1,0,0,0-.32,1.4.427.427,0,0,1-.1.232.461.461,0,0,1-.307.1,9.846,9.846,0,0,1-3.357-.65,1.789,1.789,0,0,0-1.621.252,1.757,1.757,0,0,0-.481,1.429,11.044,11.044,0,0,1,.048,1.553,2.52,2.52,0,0,1-2.268,2.12.62.62,0,0,1-.466-.118.667.667,0,0,1-.154-.277c-.839-2.359-.832-4.978-1.85-7.266a8.207,8.207,0,0,1-.426-1.008c-.02-.071-.04-.144-.055-.217a3.313,3.313,0,0,1-.06-.441.63.63,0,0,0-.287.118.527.527,0,0,0-.081.086,1.494,1.494,0,0,0-.212.8,30.245,30.245,0,0,0,.907,9.368,9.792,9.792,0,0,1,.436,2.351,6.284,6.284,0,0,1-.6,2.493c-1.58,3.644-4.756,6.313-7.914,8.725a3.511,3.511,0,0,0,.938-2.6,1.028,1.028,0,0,1-.8.716,3.081,3.081,0,0,1-1.127-.018c.484-.159.673-.728.794-1.222q.37-1.512.688-3.052a19.208,19.208,0,0,0,.444-2.979c.038-.852-.028-1.706-.063-2.561a51.847,51.847,0,0,1,.252-7.019c.187-2.016.524-4.2,2-5.572a8.706,8.706,0,0,1,2.117-1.321c0-.252,1.847-.756,2.092-.791a1.986,1.986,0,0,1,.307-.035.633.633,0,0,1,.658.345c.091-.164.192-.325.3-.479a5.571,5.571,0,0,1,.479-.6,27.69,27.69,0,0,1,3.317-2.7,8.528,8.528,0,0,1,1.321-.973,4.754,4.754,0,0,1,1.978-.5,8.028,8.028,0,0,1,3.339.524c1.532.59,2.871,1.648,4.456,2.077a10.6,10.6,0,0,1,1.157.32,2.8,2.8,0,0,1,1.462,3.886Z" transform="translate(-521.636 -331.404)" fill="#444053"/>
        <g id="Group_1659" data-name="Group 1659" transform="translate(169.714 58.404)" opacity="0.1">
          <path id="Path_314" data-name="Path 314" d="M692.9,497.237a3.484,3.484,0,0,0,.229-1.487,1.033,1.033,0,0,1-.8.716,1.633,1.633,0,0,1-.292.043,1.266,1.266,0,0,1-.711.917,3.082,3.082,0,0,0,1.127.02,1.259,1.259,0,0,0,.449-.209Z" transform="translate(-691.32 -472.654)"/>
          <path id="Path_315" data-name="Path 315" d="M742.323,404.11a2.817,2.817,0,0,1-.3,1.144,1.3,1.3,0,0,1-.423.5c-.572.373-1.4-.035-2,.295-.479.265-.618.895-1.008,1.288a2.89,2.89,0,0,1-1.8.617,2.251,2.251,0,0,0-1.7.791,4.053,4.053,0,0,0-.32,1.4.353.353,0,0,1-.406.335,9.79,9.79,0,0,1-3.357-.653,1.793,1.793,0,0,0-1.623.252,1.852,1.852,0,0,0-.479,1.429,10.635,10.635,0,0,1,.045,1.55,2.505,2.505,0,0,1-2.268,2.122.628.628,0,0,1-.466-.118.678.678,0,0,1-.154-.28c-.839-2.359-.834-4.978-1.852-7.264a8.831,8.831,0,0,1-.423-1.008,2.962,2.962,0,0,1-.118-.658.555.555,0,0,0-.368.2,1.548,1.548,0,0,0-.212.8,30.419,30.419,0,0,0,.252,6.049,30.5,30.5,0,0,1-.124-5.076,1.494,1.494,0,0,1,.212-.8.529.529,0,0,1,.368-.2,2.986,2.986,0,0,0,.116.658,8.627,8.627,0,0,0,.426,1.008c1.008,2.288,1.008,4.9,1.85,7.264a.7.7,0,0,0,.156.28.61.61,0,0,0,.464.139,2.52,2.52,0,0,0,2.268-2.12,11.053,11.053,0,0,0-.048-1.553,1.892,1.892,0,0,1,.481-1.429,1.753,1.753,0,0,1,1.621-.252,9.825,9.825,0,0,0,3.357.65.461.461,0,0,0,.307-.1.436.436,0,0,0,.1-.234,4.023,4.023,0,0,1,.32-1.4,2.223,2.223,0,0,1,1.7-.794,2.91,2.91,0,0,0,1.8-.615c.381-.4.517-1.023,1.008-1.29.6-.33,1.424.081,2-.292a1.281,1.281,0,0,0,.421-.517,2.858,2.858,0,0,0,.179-2.125Z" transform="translate(-715.043 -404.11)"/>
          <path id="Path_316" data-name="Path 316" d="M703.685,461.286a6.3,6.3,0,0,1-.6,2.493c-1.414,3.259-4.106,5.739-6.916,7.949a3.529,3.529,0,0,1-.877,1.764c3.155-2.409,6.336-5.078,7.914-8.723a6.283,6.283,0,0,0,.6-2.493,5.522,5.522,0,0,0-.129-1.1C703.683,461.205,703.685,461.246,703.685,461.286Z" transform="translate(-694.289 -446.796)"/>
        </g>
        <path id="Path_317" data-name="Path 317" d="M726.529,404c-.227,1.043-.539,2.4-.774,3.1a3.766,3.766,0,0,1-.06-.441.623.623,0,0,0-.285.118c0-.733.088-1.825.164-2.641a.635.635,0,0,1,.66.345A4.386,4.386,0,0,1,726.529,404Z" transform="translate(-547.104 -345.624)" opacity="0.1"/>
        <path id="Path_318" data-name="Path 318" d="M726.042,404c-.227,1.043-.539,2.4-.774,3.1a3.323,3.323,0,0,1-.06-.441.63.63,0,0,0-.287.118c0-.733.088-1.825.166-2.641a.632.632,0,0,1,.658.345C725.835,404.318,725.948,404.156,726.042,404Z" transform="translate(-546.738 -345.624)" fill="#67647e"/>
      </g>
    </g>
  </g>
</svg>
