<svg xmlns="http://www.w3.org/2000/svg" width="375" height="149" viewBox="0 0 375 149">
  <g id="Group_1883" data-name="Group 1883" transform="translate(0 -136)">
    <path id="Path_735" data-name="Path 735" d="M0,0H375V149H0Z" transform="translate(0 136)" fill="#e3d5f8"/>
    <g id="Group_1882" data-name="Group 1882">
      <path id="Path_134" data-name="Path 134" d="M309.117,316.167a21.078,21.078,0,0,1-5.8,6.956c-.343.275-.693.539-1.049.8q-.718.5-1.472.99a48.379,48.379,0,0,1-12.939,5.406q-1.825.5-3.662.948-1.55.376-3.1.7c-.393.086-.786.166-1.18.252s-.844.169-1.26.252l-.6.113a154.04,154.04,0,0,1-35.033,2l-.56-.028-.895-.045q-3.589-.187-7.186-.476l-.907-.073-.4-.033q-2.016-.169-4.033-.371-2.656-.252-5.32-.557l-.229-.025-.187-.023h0c-6.339-.713-12.692-1.57-19.054-2.45l-.9-.126-1.616-.224-1.361-.189h0l-.4-.055q-3.221-.451-6.442-.892l-.348-.048c-4.033-.552-8.088-1.084-12.13-1.568l-.527-.063h0q-2.483-.295-4.963-.562l-1.26-.134-1.676-.169c-4.645-.461-9.287-.829-13.92-1.059q-3.342-.166-6.7-.252-2.772-.063-5.545-.073-3.76-.018-7.536.043h-.57c-3.546.058-7.1.159-10.656.28l-.64.02h-.212c-7.561.267-15.122.623-22.663.877l-1.842.061h-.267q-3.932.126-7.856.194H92.667l-1.169.015q-1.822.018-3.637.02H86.376c-4.441-.013-8.864-.111-13.26-.34l-.489-.028a167.827,167.827,0,0,1-25.282-3.145q-1.288-.27-2.571-.565A118.058,118.058,0,0,1,27.94,317.4a20.1,20.1,0,0,1-7.14-4.143c-4.98-5.041-3.11-14.913,3.37-17.784,5.068-2.246,11.006-.418,16.458-1.432a8.41,8.41,0,0,0,.99-.252,13.761,13.761,0,0,0,2.016-.832c.222-.111.444-.229.668-.353a17.015,17.015,0,0,0,1.492-.912,22.905,22.905,0,0,0,2.268-1.721q.479-.408.933-.847a17.837,17.837,0,0,0,2.752-3.294,11.643,11.643,0,0,0,.756-1.422,7.507,7.507,0,0,0,.313-.786,7.323,7.323,0,0,0,.3-1.164,5.389,5.389,0,0,0-1.986-5.237,5.28,5.28,0,0,0-.5-.381,7.7,7.7,0,0,0-1.094-.633c-.154-.073-.313-.144-.474-.212-2.3-.97-5.275-1.343-7.78-2.016h0a13.737,13.737,0,0,1-2.228-.774c-.456-.212-.91-.433-1.356-.665h0l-.118-.066h0a30.343,30.343,0,0,1-9.829-8.065,26.278,26.278,0,0,1-1.83-2.656c-.169-.277-.333-.562-.489-.847-4.428-7.989-4.884-18.227-.277-26.083a24.681,24.681,0,0,1,1.865-2.737q.333-.431.688-.847c4.385-5.174,10.686-8.68,17.048-11.276a119.972,119.972,0,0,1,26.59-7.133q2.772-.441,5.545-.791c7.737-.988,15.566-1.512,23.338-1.91q10.906-.552,21.907-.713,3.728-.05,7.463-.043,8.415,0,16.831.325,2.772.106,5.545.252,7.11.368,14.192,1.008,3.4.308,6.79.678a278.511,278.511,0,0,1,50.513,10.026q2.785.842,5.545,1.764a214.125,214.125,0,0,1,20.261,7.831q.938.421,1.87.847,6.2,2.843,12.219,6.127a135.888,135.888,0,0,1,15.273,9.577q2.853,2.092,5.545,4.365a79.745,79.745,0,0,1,8.849,8.73q.363.421.718.847,1.845,2.215,3.5,4.59c5.394,7.753,9.013,16.619,11.684,25.677C311.287,299.925,312.854,308.8,309.117,316.167Z" transform="translate(22.84 -65.527)" fill="#6c63ff" opacity="0.1"/>
      <path id="Path_135" data-name="Path 135" d="M327.84,289.079H306.309V261.69h9.577q-.355-.426-.718-.847h-8.849v-8.73q-2.687-2.268-5.545-4.365v13.106H251.136V232.041h22.131q-.935-.426-1.87-.847H251.136v-7.831q-2.772-.915-5.545-1.764v9.577H174.749l-.169-.161,20.493-19.452q-3.387-.373-6.79-.678l-14.192,13.469V209.887q-2.772-.146-5.545-.252v15.649L151.716,209.31q-3.733,0-7.463.043l22.824,21.662-.169.161H99V212q-2.772.35-5.545.791v18.4H49.816q-.355.416-.688.847H93.453v28.8H47.53c.156.285.32.57.489.847H93.453v27.389H71.105q-.454.439-.933.847h23.28v28.026q2.772.4,5.545.827V289.926h69.544v35.116q2.772,0,5.545.073V289.926h71.5v42.989l.229.025q2.661.3,5.32.557V289.926h49.623v42.483c.423-.078.847-.161,1.26-.252s.786-.159,1.18-.252q1.553-.33,3.1-.7V289.926h21.705Zm-159.3,0H99V261.69h69.539Zm0-28.228H99v-28.81h68.553l.978.771Zm77.044,28.228H174.092V261.69h71.495Zm0-28.228H174.092v-28.81h71.495Zm55.173,28.228H251.136V261.69h49.623Z" transform="translate(0.727 -62.886)" fill="#6c63ff" opacity="0.1"/>
      <g id="Group_1870" data-name="Group 1870" transform="translate(73.837 156.616)">
        <path id="Path_739" data-name="Path 739" d="M378.514,240.57c3.251-1.377,7.327-1.226,9.987,1.1a16.268,16.268,0,0,0-9.668,5.592c-.945,1.14-1.878,2.506-3.332,2.789a3.637,3.637,0,0,1-2.622-.63,10.8,10.8,0,0,1-2.02-1.875l-.216-.08C372.723,244.608,375.263,241.947,378.514,240.57Z" transform="translate(-308.316 -239.691)" fill="#a5d297"/>
        <path id="Path_740" data-name="Path 740" d="M388.719,247.236a13.9,13.9,0,0,0-8.5.925,5.988,5.988,0,0,0-1.589,1,3.434,3.434,0,0,0-.951,1.537,7.109,7.109,0,0,1-.591,1.616,2.1,2.1,0,0,1-1.435.948,5.464,5.464,0,0,1-2.169-.144,5.365,5.365,0,0,0-2.411-.159c-.1.024-.129-.128-.032-.152,1.4-.345,2.749.423,4.147.354a2.13,2.13,0,0,0,1.69-.811,5.514,5.514,0,0,0,.631-1.629,3.665,3.665,0,0,1,.874-1.537,5.536,5.536,0,0,1,1.545-1.055,13.49,13.49,0,0,1,4.042-1.2,14.152,14.152,0,0,1,4.8.161c.1.02.048.168-.049.148Z" transform="translate(-308.573 -245.199)" fill="#fff"/>
        <path id="Path_741" data-name="Path 741" d="M415.537,242.391a2.086,2.086,0,0,1,1.1-2.469c.09-.043.162.1.071.138a1.932,1.932,0,0,0-1.016,2.3C415.718,242.455,415.566,242.487,415.537,242.391Z" transform="translate(-342.911 -239.864)" fill="#fff"/>
        <path id="Path_742" data-name="Path 742" d="M400.605,262.849a4.021,4.021,0,0,0,2.9.4c.1-.024.129.129.032.152a4.182,4.182,0,0,1-3.021-.417C400.432,262.93,400.518,262.8,400.605,262.849Z" transform="translate(-331.385 -257.64)" fill="#fff"/>
        <path id="Path_743" data-name="Path 743" d="M435.151,247.075a1.181,1.181,0,0,0,.609.94c.088.048,0,.178-.085.13a1.323,1.323,0,0,1-.677-1.039.08.08,0,0,1,.06-.092A.078.078,0,0,1,435.151,247.075Z" transform="translate(-357.945 -245.369)" fill="#fff"/>
        <path id="Path_744" data-name="Path 744" d="M387.461,276.5l-.169-.085a15.558,15.558,0,0,0-2.339-.944l-.187-.059a16.4,16.4,0,0,0-6-.642,15.924,15.924,0,0,0-2.39.375,10.366,10.366,0,0,1-3.317.506,2.731,2.731,0,0,1-.334-.053l-2.882-4.983c0-.015,0-.029,0-.043l-.124-.194.121-.037.07-.021.045-.014.014,0,.04-.012q.349-.1.7-.2h0a23.41,23.41,0,0,1,5.464-.884c.055,0,.112,0,.168,0a15.189,15.189,0,0,1,2.475.145,13.429,13.429,0,0,1,1.333.262,11.168,11.168,0,0,1,3.212,1.371,8.869,8.869,0,0,1,4.064,5.345C387.436,276.383,387.449,276.439,387.461,276.5Z" transform="translate(-307.602 -262.571)" fill="#a5d297"/>
        <path id="Path_745" data-name="Path 745" d="M387.724,280.385A13.9,13.9,0,0,0,380.376,276a5.987,5.987,0,0,0-1.869-.16,3.434,3.434,0,0,0-1.685.654,7.108,7.108,0,0,1-1.444.935,2.1,2.1,0,0,1-1.716-.107,5.464,5.464,0,0,1-1.645-1.421,5.365,5.365,0,0,0-1.829-1.579c-.092-.039-.026-.18.066-.141,1.323.566,1.94,1.993,3.1,2.779a2.13,2.13,0,0,0,1.837.37,5.515,5.515,0,0,0,1.485-.921,3.665,3.665,0,0,1,1.624-.7,5.535,5.535,0,0,1,1.869.088,13.49,13.49,0,0,1,3.95,1.476,14.152,14.152,0,0,1,3.739,3.021c.066.075-.063.163-.128.088Z" transform="translate(-307.931 -266.433)" fill="#fff"/>
        <path id="Path_746" data-name="Path 746" d="M419.835,278.331a2.086,2.086,0,0,1,2.362-1.311c.1.02.072.173-.027.153a1.932,1.932,0,0,0-2.195,1.224C419.941,278.491,419.8,278.424,419.835,278.331Z" transform="translate(-346.267 -268.605)" fill="#fff"/>
        <path id="Path_747" data-name="Path 747" d="M400.312,283.454a4.021,4.021,0,0,0,2.081,2.064c.092.04.026.18-.066.141a4.183,4.183,0,0,1-2.161-2.152C400.125,283.415,400.272,283.363,400.312,283.454Z" transform="translate(-331.143 -273.589)" fill="#fff"/>
        <path id="Path_748" data-name="Path 748" d="M436.729,291.649a1.181,1.181,0,0,0-.08,1.118c.041.091-.105.143-.146.053a1.323,1.323,0,0,1,.085-1.237.08.08,0,0,1,.1-.037.078.078,0,0,1,.037.1Z" transform="translate(-359.02 -279.895)" fill="#fff"/>
        <path id="Path_749" data-name="Path 749" d="M838.449,375.114H835.9l-1.214-9.842h3.766Z" transform="translate(-640.809 -277.814)" fill="#a0616a"/>
        <path id="Path_750" data-name="Path 750" d="M927.44,648.383h-8.227v-.1a3.2,3.2,0,0,1,3.2-3.2h5.025Z" transform="translate(-729.149 -548.61)" fill="#2f2e41"/>
        <path id="Path_751" data-name="Path 751" d="M921.981,370.578l-2.523.381-2.671-9.549,3.307-.563Z" transform="translate(-704.474 -274.382)" fill="#a0616a"/>
        <path id="Path_752" data-name="Path 752" d="M1017.662,643.037l-8.135,1.23-.016-.1a3.2,3.2,0,0,1,2.688-3.645h0l4.968-.751Z" transform="translate(-799.141 -544.493)" fill="#2f2e41"/>
        <path id="Path_753" data-name="Path 753" d="M454.089,396.549h-76.24v-76.24h76.24Z" transform="translate(-313.087 -296.776)" fill="#6c63ff"/>
        <path id="Path_754" data-name="Path 754" d="M454.089,396.549h-76.24v-76.24h76.24Zm-75.113-1.126h73.987V321.435H378.975Z" transform="translate(-313.087 -296.776)" fill="#f0f0f0"/>
        <rect id="Rectangle_177" data-name="Rectangle 177" width="48.895" height="1.726" transform="translate(80.637 53.858)" fill="#6c63ff"/>
        <rect id="Rectangle_178" data-name="Rectangle 178" width="48.895" height="1.726" transform="translate(80.637 58.608)" fill="#ccc9ff"/>
        <rect id="Rectangle_179" data-name="Rectangle 179" width="48.895" height="1.726" transform="translate(80.637 63.358)" fill="#6c63ff"/>
        <circle id="Ellipse_56" data-name="Ellipse 56" cx="1.126" cy="1.126" r="1.126" transform="translate(75.823 53.863)" fill="#6c63ff"/>
        <rect id="Rectangle_180" data-name="Rectangle 180" width="48.895" height="1.726" transform="translate(80.637 33.388)" fill="#f0f0f0"/>
        <rect id="Rectangle_181" data-name="Rectangle 181" width="48.895" height="1.726" transform="translate(80.637 38.139)" fill="#f0f0f0"/>
        <rect id="Rectangle_182" data-name="Rectangle 182" width="48.895" height="1.726" transform="translate(80.637 42.889)" fill="#f0f0f0"/>
        <circle id="Ellipse_57" data-name="Ellipse 57" cx="1.126" cy="1.126" r="1.126" transform="translate(75.823 33.189)" fill="#f0f0f0"/>
        <rect id="Rectangle_183" data-name="Rectangle 183" width="48.895" height="1.726" transform="translate(80.637 74.526)" fill="#f0f0f0"/>
        <rect id="Rectangle_184" data-name="Rectangle 184" width="48.895" height="1.726" transform="translate(80.637 79.276)" fill="#f0f0f0"/>
        <rect id="Rectangle_185" data-name="Rectangle 185" width="48.895" height="1.726" transform="translate(80.637 84.808)" fill="#f0f0f0"/>
        <circle id="Ellipse_58" data-name="Ellipse 58" cx="1.126" cy="1.126" r="1.126" transform="translate(75.823 74.339)" fill="#e5e5e5"/>
        <path id="Path_138" data-name="Path 138" d="M742.247,394.725h-44.36c-.665,0-1.2-1.1-1.2-2.464v-33c0-1.36.539-2.461,1.2-2.464h44.36c.665,0,1.2,1.1,1.2,2.464v33C743.45,393.621,742.91,394.723,742.247,394.725Z" transform="translate(-558.17 -327.972)" fill="#847d9a"/>
        <path id="Path_138-2" data-name="Path 138" d="M742.247,394.725h-44.36c-.665,0-1.2-1.1-1.2-2.464v-33c0-1.36.539-2.461,1.2-2.464h44.36c.665,0,1.2,1.1,1.2,2.464v33C743.45,393.621,742.91,394.723,742.247,394.725Zm-44.36-36.943c-.4,0-.722.662-.723,1.478v33c0,.816.324,1.477.723,1.478h44.36c.4,0,.722-.662.723-1.478v-33c0-.816-.324-1.477-.723-1.478Z" transform="translate(-558.17 -327.972)" fill="#e6e6e6"/>
        <rect id="Rectangle_186" data-name="Rectangle 186" width="11.941" height="0.897" transform="translate(155.694 56.294)" fill="#6c63ff"/>
        <rect id="Rectangle_187" data-name="Rectangle 187" width="15.027" height="0.897" transform="translate(154.115 58.762)" fill="#6c63ff"/>
        <path id="Path_755" data-name="Path 755" d="M781.68,399.281a7.8,7.8,0,0,1-11.494,6.866l0,0a7.8,7.8,0,1,1,11.5-6.865Z" transform="translate(-612.231 -355.049)" fill="#cacaca"/>
        <circle id="Ellipse_59" data-name="Ellipse 59" cx="2.119" cy="2.119" r="2.119" transform="translate(159.501 39.511)" fill="#fff"/>
        <path id="Path_756" data-name="Path 756" d="M791.836,433.157a10.924,10.924,0,0,1-7.316-.028h0l1.579-3.117h4.239Z" transform="translate(-626.579 -384.712)" fill="#fff"/>
        <path id="Path_757" data-name="Path 757" d="M560.144,288.153h33.285V273.559h-.512v14.082H560.144Z" transform="translate(-430.109 -207.95)" fill="#3f3d56"/>
        <circle id="Ellipse_60" data-name="Ellipse 60" cx="2.816" cy="2.816" r="2.816" transform="translate(160.6 64.709)" fill="#3f3d56"/>
        <path id="Path_138-3" data-name="Path 138" d="M230.247,304.725h-44.36c-.665,0-1.2-1.1-1.2-2.464v-33c0-1.36.54-2.461,1.2-2.464h44.36c.665,0,1.2,1.1,1.2,2.464v33C231.45,303.621,230.91,304.723,230.247,304.725Z" transform="translate(-166.002 -260.709)" fill="#d48a9b"/>
        <path id="Path_138-4" data-name="Path 138" d="M230.247,304.725h-44.36c-.665,0-1.2-1.1-1.2-2.464v-33c0-1.36.54-2.461,1.2-2.464h44.36c.665,0,1.2,1.1,1.2,2.464v33C231.45,303.621,230.91,304.723,230.247,304.725Zm-44.36-36.943c-.4,0-.722.662-.723,1.478v33c0,.816.324,1.477.723,1.478h44.36c.4,0,.722-.662.723-1.478v-33c0-.816-.324-1.477-.723-1.478Z" transform="translate(-166.002 -260.709)" fill="#e6e6e6"/>
        <path id="Path_758" data-name="Path 758" d="M306.531,300.8a10.993,10.993,0,0,0-7.568-3.447v11.015Z" transform="translate(-253.301 -284.405)" fill="#3f3d56"/>
        <path id="Path_759" data-name="Path 759" d="M306.531,318.813l-7.568,7.568H309.54A10.987,10.987,0,0,0,306.531,318.813Z" transform="translate(-253.282 -299.934)" fill="#e4e4e4"/>
        <path id="Path_760" data-name="Path 760" d="M309.55,356.038a11.057,11.057,0,0,1-.19,2.046c-.01.053-.02.106-.031.159a10.935,10.935,0,0,1-1.276,3.344c-.032.056-.065.111-.1.166h0a11.061,11.061,0,0,1-2.214,2.619l-.13.111a10.977,10.977,0,0,1-6.649,2.569V356.038Z" transform="translate(-253.281 -328.21)" fill="#f0f0f0"/>
        <path id="Path_761" data-name="Path 761" d="M268.045,367.062c.146,0,.292,0,.437-.009V356.037l-8.011,8.011a10.987,10.987,0,0,0,7.574,3.014Z" transform="translate(-224.771 -328.209)" fill="#cacaca"/>
        <path id="Path_762" data-name="Path 762" d="M256.2,303.419a11.025,11.025,0,0,0-11.025,11.025h11.474V303.429C256.5,303.423,256.346,303.419,256.2,303.419Z" transform="translate(-212.906 -288.176)" fill="#6c63ff"/>
        <path id="Path_763" data-name="Path 763" d="M242.973,356.038l-2.318,2.318-.076.076,0,0-2.021,2.021-.077.077-2.184,2.184-.077.077h0l-1.257,1.256a10.993,10.993,0,0,1-3.451-8.011Z" transform="translate(-202.314 -328.269)" fill="#6c63ff"/>
        <path id="Path_764" data-name="Path 764" d="M231.983,200.153H198.7V185.559h.512v14.082h32.773Z" transform="translate(-152.571 -141.055)" fill="#3f3d56"/>
        <circle id="Ellipse_61" data-name="Ellipse 61" cx="2.816" cy="2.816" r="2.816" transform="translate(43.3 43.739)" fill="#3f3d56"/>
        <path id="Path_765" data-name="Path 765" d="M994.844,431.608l-2.833.742.188,4.593.023,8.363a1.676,1.676,0,1,0,2.218.279l.871-8.393Z" transform="translate(-785.202 -385.498)" fill="#efb7b9"/>
        <path id="Path_766" data-name="Path 766" d="M993.483,408.452l-4.141-1.394-.01-.062a53.433,53.433,0,0,1-.606-6.652,2.062,2.062,0,0,1,.687-1.594,2.162,2.162,0,0,1,2.34-.376,2.313,2.313,0,0,1,1.43,2.057Z" transform="translate(-783.051 -360.296)" fill="#a36468"/>
        <path id="Path_767" data-name="Path 767" d="M943.273,436.531l-6.334-1.639-2.928,9.86-.1,36.733,4.843-.03,2.025-29.731,12.9,27.471,5.2-.624-11.343-29.448s.624-5.2-1.353-7.8l.416-2.706Z" transform="translate(-740.544 -385.626)" fill="#2f2e41"/>
        <path id="Path_768" data-name="Path 768" d="M956.011,397.139l-.479-.008-9.733-3.89,4.656-10.371,2.211.4-.4-1.61,4.885-1.194.85,3.4,1.254,1.14a2.205,2.205,0,0,1,.608,2.327L956.971,396a.974.974,0,0,1-.96,1.137Z" transform="translate(-749.764 -346.647)" fill="#a36468"/>
        <path id="Path_769" data-name="Path 769" d="M912.755,415.216l-2.561-1.421-3.038,3.45-5.762,6.061a1.676,1.676,0,1,0,1.411,1.734l6.429-5.465Z" transform="translate(-713.828 -372.095)" fill="#efb7b9"/>
        <path id="Path_770" data-name="Path 770" d="M945.725,397.52l-2.029-3.869.036-.052a53.446,53.446,0,0,1,4.159-5.227,2.062,2.062,0,0,1,1.6-.677,2.163,2.163,0,0,1,1.952,1.345,2.312,2.312,0,0,1-.388,2.474Z" transform="translate(-748.133 -352.324)" fill="#a36468"/>
        <circle id="Ellipse_62" data-name="Ellipse 62" cx="3.881" cy="3.881" r="3.881" transform="translate(199.888 24.674)" fill="#a0616a"/>
        <path id="Path_771" data-name="Path 771" d="M959.446,340.058a6.852,6.852,0,0,1,1.744-2.367,1.813,1.813,0,0,1,2.4-.217,4.446,4.446,0,1,1-2.638,3.559C960.308,340.942,960.088,340.148,959.446,340.058Z" transform="translate(-760.347 -313.845)" fill="#2f2e41"/>
        <path id="Path_772" data-name="Path 772" d="M187.395,428.044a1.458,1.458,0,0,0,.347-2.209l1.895-19.013-3.164.21-.876,18.722a1.466,1.466,0,0,0,1.8,2.29Z" transform="translate(-166.377 -366.498)" fill="#ffb8b8"/>
        <path id="Path_773" data-name="Path 773" d="M185.279,390.261l.829,6.3-.115,3.864,3.48.319.7-3.214.384-8.508a2.539,2.539,0,0,0-2.243-2.636h0a2.539,2.539,0,0,0-2.81,2.189Z" transform="translate(-166.465 -351.199)" fill="#2f2e41"/>
        <path id="Path_774" data-name="Path 774" d="M143.117,382.886h2.111l1-8.142h-3.115Z" transform="translate(-110.977 -285.159)" fill="#ffb7b7"/>
        <path id="Path_775" data-name="Path 775" d="M242.221,647.619h4.157a2.649,2.649,0,0,1,2.649,2.649v.086h-6.806Z" transform="translate(-210.619 -550.582)" fill="#2f2e41"/>
        <path id="Path_776" data-name="Path 776" d="M65.506,382.886h2.111l1-8.142H65.506Z" transform="translate(-50.795 -285.159)" fill="#ffb7b7"/>
        <path id="Path_777" data-name="Path 777" d="M164.61,647.619h4.157a2.649,2.649,0,0,1,2.649,2.649v.086H164.61Z" transform="translate(-150.437 -550.582)" fill="#2f2e41"/>
        <circle id="Ellipse_63" data-name="Ellipse 63" cx="4.576" cy="4.576" r="4.576" transform="translate(18.343 22.133)" fill="#ffb8b8"/>
        <path id="Path_778" data-name="Path 778" d="M166.406,381.378l-3.176.363h0a8.451,8.451,0,0,0-1.081,7.631l2.4,6.932s-3.327,6.669-3.327,12.861-6.335,28.293-6.335,28.293l8.917.93,3.891-23.544,5.362,23.449,6.121-1L175.8,406.553l-2.228-10.119-.095-4.935s.947-3.7-1.424-6.074l-2.895-4.033Z" transform="translate(-142.895 -344.13)" fill="#2f2e41"/>
        <path id="Path_779" data-name="Path 779" d="M234.5,407.94a1.6,1.6,0,0,0-1.939-1.5l-17.27-11.834-1.465,3.15,17.527,10.7a1.606,1.606,0,0,0,3.147-.522Z" transform="translate(-188.603 -357.441)" fill="#ffb8b8"/>
        <path id="Path_780" data-name="Path 780" d="M197.813,390.83l6.494,2.523,3.652,2.146,2.139-3.175-2.72-2.363-7.972-4.85a2.782,2.782,0,0,0-3.714.767h0a2.782,2.782,0,0,0,.623,3.853Z" transform="translate(-174.14 -350.026)" fill="#2f2e41"/>
        <path id="Path_781" data-name="Path 781" d="M204.092,333.117h-6.725v-2.931c1.476-.586,2.92-1.085,3.794,0a2.931,2.931,0,0,1,2.931,2.931Z" transform="translate(-175.838 -308.161)" fill="#2f2e41"/>
        <path id="Path_782" data-name="Path 782" d="M184.942,331.092c-4.02.018-5.146,5.039-5.146,7.882,0,1.585.717,2.153,1.844,2.344l.4-2.122.932,2.214c.316,0,.649,0,.994-.011l.316-.651.7.639c2.822,0,6.923-.248,5.1-2.413C187.649,336.073,188.446,331.076,184.942,331.092Z" transform="translate(-162.213 -309.241)" fill="#2f2e41"/>
        <path id="Path_783" data-name="Path 783" d="M1005.127,348.711a4.714,4.714,0,0,1-.078-2.061,26.326,26.326,0,0,1,1-3.875,15.445,15.445,0,0,0,.784-3.915,6.017,6.017,0,0,0-1.04-3.789,3.776,3.776,0,0,0-3.472-1.573,2.8,2.8,0,0,0-2.369,2.592.98.98,0,0,0,.481,1.208,6.4,6.4,0,0,0,1.443.432,3.619,3.619,0,0,1,2.169,1.919,4.679,4.679,0,0,1,.314,2.914,19.7,19.7,0,0,1-.956,2.74,4.719,4.719,0,0,0-.284,2.844,3,3,0,0,0,3.356,2.045,2.211,2.211,0,0,1-1.346-1.481Z" transform="translate(-791.692 -310.932)" fill="#2f2e41"/>
        <path id="Path_784" data-name="Path 784" d="M331.6,658.758H101.731a.225.225,0,1,1,0-.449H331.6a.225.225,0,1,1,0,.449Z" transform="translate(-101.5 -558.871)" fill="#cacaca"/>
        <path id="Path_785" data-name="Path 785" d="M846.79,583.737c-.436-3.5-2.607-6.956-5.949-8.1a16.269,16.269,0,0,1,0,11.169c-.514,1.389-1.229,2.88-.746,4.28a3.637,3.637,0,0,0,1.857,1.954,10.8,10.8,0,0,0,2.635.81l.177.147C846.193,590.772,847.226,587.241,846.79,583.737Z" transform="translate(-669.189 -494.767)" fill="#a5d297"/>
        <path id="Path_786" data-name="Path 786" d="M843.752,575.45a13.905,13.905,0,0,1,3.457,7.826,5.988,5.988,0,0,1-.068,1.875,3.435,3.435,0,0,1-.854,1.593,7.1,7.1,0,0,0-1.1,1.32,2.1,2.1,0,0,0-.1,1.717,5.464,5.464,0,0,0,1.211,1.806,5.366,5.366,0,0,1,1.345,2.008c.028.1.176.047.148-.049-.4-1.382-1.743-2.167-2.382-3.412a2.13,2.13,0,0,1-.144-1.869,5.515,5.515,0,0,1,1.095-1.362,3.665,3.665,0,0,0,.893-1.526,5.536,5.536,0,0,0,.14-1.865,13.49,13.49,0,0,0-.985-4.1,14.151,14.151,0,0,0-2.545-4.078C843.789,575.258,843.686,575.376,843.752,575.45Z" transform="translate(-672.173 -494.51)" fill="#fff"/>
        <path id="Path_787" data-name="Path 787" d="M858.681,598.8a2.086,2.086,0,0,0,1.588-2.185c-.008-.1-.163-.092-.155.008a1.932,1.932,0,0,1-1.481,2.03C858.535,598.673,858.584,598.82,858.681,598.8Z" transform="translate(-683.642 -510.974)" fill="#fff"/>
        <path id="Path_788" data-name="Path 788" d="M849.384,617.208a4.021,4.021,0,0,1-1.8-2.316c-.028-.1-.176-.047-.148.049a4.183,4.183,0,0,0,1.873,2.406C849.4,617.4,849.47,617.259,849.384,617.208Z" transform="translate(-675.068 -525.163)" fill="#fff"/>
        <path id="Path_789" data-name="Path 789" d="M848.02,587.34a1.181,1.181,0,0,1-1.119-.057c-.086-.052-.155.087-.07.139a1.323,1.323,0,0,0,1.238.066.08.08,0,0,0,.049-.1A.078.078,0,0,0,848.02,587.34Z" transform="translate(-674.586 -503.786)" fill="#fff"/>
        <path id="Path_790" data-name="Path 790" d="M798.616,602.222l.158.1a15.551,15.551,0,0,1,1.988,1.552c.049.043.1.088.144.133a16.4,16.4,0,0,1,3.561,4.874,15.918,15.918,0,0,1,.872,2.256,10.366,10.366,0,0,0,1.223,3.125,2.729,2.729,0,0,0,.213.263h5.757l.039-.018.23.011c-.009-.041-.02-.083-.029-.123-.005-.024-.012-.047-.017-.071s-.008-.031-.011-.046l0-.014c0-.014-.007-.028-.009-.041q-.087-.353-.179-.705s0,0,0,0a23.409,23.409,0,0,0-1.97-5.172c-.026-.049-.052-.1-.081-.147a15.2,15.2,0,0,0-1.365-2.07,13.435,13.435,0,0,0-.894-1.023,11.167,11.167,0,0,0-2.795-2.094,8.869,8.869,0,0,0-6.662-.842Z" transform="translate(-637.264 -515.091)" fill="#a5d297"/>
        <path id="Path_791" data-name="Path 791" d="M798.441,603.293a13.9,13.9,0,0,1,7.472,4.167A5.986,5.986,0,0,1,806.987,609a3.434,3.434,0,0,1,.277,1.786,7.11,7.11,0,0,0-.086,1.718,2.1,2.1,0,0,0,.952,1.433,5.463,5.463,0,0,0,2.054.713,5.365,5.365,0,0,1,2.282.793c.08.06.169-.068.089-.128-1.152-.862-2.7-.681-3.957-1.29a2.13,2.13,0,0,1-1.24-1.405,5.516,5.516,0,0,1,.054-1.746,3.664,3.664,0,0,0-.206-1.757,5.536,5.536,0,0,0-1.011-1.574,13.49,13.49,0,0,0-3.255-2.68,14.152,14.152,0,0,0-4.487-1.724c-.1-.019-.109.136-.012.155Z" transform="translate(-637.077 -516.088)" fill="#fff"/>
        <path id="Path_792" data-name="Path 792" d="M828.626,609.736a2.086,2.086,0,0,0-.048-2.7c-.066-.075-.186.025-.119.1a1.932,1.932,0,0,1,.039,2.513C828.434,609.724,828.563,609.813,828.626,609.736Z" transform="translate(-660.488 -519.091)" fill="#fff"/>
        <path id="Path_793" data-name="Path 793" d="M828.071,633.217a4.021,4.021,0,0,1-2.828-.768c-.08-.06-.169.068-.089.128a4.183,4.183,0,0,0,2.944.793C828.2,633.359,828.17,633.206,828.071,633.217Z" transform="translate(-657.887 -538.806)" fill="#fff"/>
        <path id="Path_794" data-name="Path 794" d="M809,607.936a1.181,1.181,0,0,1-.928.628c-.1.01-.071.163.028.153a1.323,1.323,0,0,0,1.028-.693.08.08,0,0,0-.02-.108.078.078,0,0,0-.108.02Z" transform="translate(-644.767 -519.784)" fill="#fff"/>
        <path id="Path_795" data-name="Path 795" d="M293.246,583.737c.436-3.5,2.607-6.956,5.949-8.1a16.268,16.268,0,0,0,0,11.169c.513,1.389,1.229,2.88.746,4.28a3.637,3.637,0,0,1-1.857,1.954,10.8,10.8,0,0,1-2.635.81l-.177.147C293.843,590.772,292.81,587.241,293.246,583.737Z" transform="translate(-248.832 -494.767)" fill="#a5d297"/>
        <path id="Path_796" data-name="Path 796" d="M306.3,575.45a13.905,13.905,0,0,0-3.457,7.826,5.987,5.987,0,0,0,.068,1.875,3.435,3.435,0,0,0,.854,1.593,7.109,7.109,0,0,1,1.1,1.32,2.1,2.1,0,0,1,.1,1.717,5.463,5.463,0,0,1-1.211,1.806,5.365,5.365,0,0,0-1.345,2.008c-.028.1-.176.047-.148-.049.4-1.382,1.743-2.167,2.382-3.412a2.13,2.13,0,0,0,.144-1.869A5.516,5.516,0,0,0,303.7,586.9a3.665,3.665,0,0,1-.893-1.526,5.536,5.536,0,0,1-.14-1.865,13.489,13.489,0,0,1,.985-4.1,14.151,14.151,0,0,1,2.545-4.078c.067-.075.169.043.1.117Z" transform="translate(-255.86 -494.511)" fill="#fff"/>
        <path id="Path_797" data-name="Path 797" d="M299.522,598.8a2.086,2.086,0,0,1-1.588-2.185.078.078,0,0,1,.155.008,1.932,1.932,0,0,0,1.481,2.03C299.668,598.673,299.619,598.82,299.522,598.8Z" transform="translate(-252.539 -510.974)" fill="#fff"/>
        <path id="Path_798" data-name="Path 798" d="M307.816,617.208a4.021,4.021,0,0,0,1.8-2.316c.028-.1.176-.047.148.049a4.182,4.182,0,0,1-1.873,2.406C307.8,617.4,307.73,617.259,307.816,617.208Z" transform="translate(-260.111 -525.163)" fill="#fff"/>
        <path id="Path_799" data-name="Path 799" d="M311.448,587.34a1.181,1.181,0,0,0,1.119-.057c.086-.052.155.087.07.139a1.323,1.323,0,0,1-1.238.066.08.08,0,0,1-.049-.1A.078.078,0,0,1,311.448,587.34Z" transform="translate(-262.86 -503.786)" fill="#fff"/>
        <path id="Path_800" data-name="Path 800" d="M316.462,602.222l-.158.1a15.552,15.552,0,0,0-1.988,1.552c-.049.043-.1.088-.145.133a16.4,16.4,0,0,0-3.561,4.874,15.915,15.915,0,0,0-.872,2.256,10.366,10.366,0,0,1-1.223,3.125,2.734,2.734,0,0,1-.213.263h-5.757l-.039-.018-.23.011c.009-.041.02-.083.029-.123.005-.024.012-.047.017-.071s.008-.031.011-.046l0-.014c0-.014.007-.028.009-.041q.087-.353.179-.705s0,0,0,0a23.411,23.411,0,0,1,1.97-5.172c.026-.049.053-.1.081-.147a15.2,15.2,0,0,1,1.365-2.07,13.441,13.441,0,0,1,.894-1.023,11.169,11.169,0,0,1,2.795-2.094,8.869,8.869,0,0,1,6.662-.842Z" transform="translate(-255.806 -515.091)" fill="#a5d297"/>
        <path id="Path_801" data-name="Path 801" d="M316.542,603.292a13.9,13.9,0,0,0-7.472,4.167A5.988,5.988,0,0,0,308,609a3.434,3.434,0,0,0-.277,1.786,7.108,7.108,0,0,1,.086,1.718,2.1,2.1,0,0,1-.952,1.433,5.463,5.463,0,0,1-2.054.713,5.365,5.365,0,0,0-2.282.793c-.08.06-.169-.068-.089-.128,1.152-.862,2.7-.681,3.957-1.29a2.13,2.13,0,0,0,1.24-1.405,5.514,5.514,0,0,0-.054-1.746,3.665,3.665,0,0,1,.206-1.757,5.538,5.538,0,0,1,1.011-1.574,13.49,13.49,0,0,1,3.255-2.68,14.15,14.15,0,0,1,4.487-1.724c.1-.019.109.136.012.155Z" transform="translate(-255.898 -516.087)" fill="#fff"/>
        <path id="Path_802" data-name="Path 802" d="M333.155,609.736a2.086,2.086,0,0,1,.048-2.7c.066-.075.186.025.119.1a1.932,1.932,0,0,0-.039,2.513C333.347,609.724,333.219,609.813,333.155,609.736Z" transform="translate(-279.27 -519.091)" fill="#fff"/>
        <path id="Path_803" data-name="Path 803" d="M325.5,633.217a4.021,4.021,0,0,0,2.828-.768c.08-.06.169.068.089.128a4.182,4.182,0,0,1-2.944.793c-.1-.011-.071-.164.028-.153Z" transform="translate(-273.659 -538.806)" fill="#fff"/>
        <path id="Path_804" data-name="Path 804" d="M351.156,607.936a1.181,1.181,0,0,0,.928.628c.1.01.071.163-.028.153a1.323,1.323,0,0,1-1.028-.693.08.08,0,0,1,.02-.108.078.078,0,0,1,.108.02Z" transform="translate(-293.364 -519.784)" fill="#fff"/>
      </g>
    </g>
  </g>
</svg>
