<svg xmlns="http://www.w3.org/2000/svg" xmlns:xlink="http://www.w3.org/1999/xlink" width="375" height="149" viewBox="0 0 375 149">
  <defs>
    <linearGradient id="linear-gradient" x1="0.5" y1="1" x2="0.5" gradientUnits="objectBoundingBox">
      <stop offset="0" stop-color="gray" stop-opacity="0.251"/>
      <stop offset="0.54" stop-color="gray" stop-opacity="0.122"/>
      <stop offset="1" stop-color="gray" stop-opacity="0.102"/>
    </linearGradient>
  </defs>
  <g id="Group_1933" data-name="Group 1933" transform="translate(1 -134)">
    <g id="Group_1923" data-name="Group 1923">
      <g id="Group_1920" data-name="Group 1920">
        <g id="Group_1885" data-name="Group 1885" transform="translate(5)">
          <path id="Path_735" data-name="Path 735" d="M0,0H375V149H0Z" transform="translate(-6 134)" fill="#e3d5f8"/>
          <g id="Group_1876" data-name="Group 1876">
            <path id="Path_738" data-name="Path 738" d="M327.84,289.079H306.309V261.69h9.577q-.355-.426-.718-.847h-8.849v-8.73q-2.687-2.268-5.545-4.365v13.106H251.136V232.041h22.131q-.935-.426-1.87-.847H251.136v-7.831q-2.772-.915-5.545-1.764v9.577H174.749l-.169-.161,20.493-19.452q-3.387-.373-6.79-.678l-14.192,13.469V209.887q-2.772-.146-5.545-.252v15.649L151.716,209.31q-3.733,0-7.463.043l22.824,21.662-.169.161H99V212q-2.772.35-5.545.791v18.4H49.816q-.355.416-.688.847H93.453v28.8H47.53c.156.285.32.57.489.847H93.453v27.389H71.105q-.454.439-.933.847h23.28v28.026q2.772.4,5.545.827V289.926h69.544v35.116q2.772,0,5.545.073V289.926h71.5v42.989l.229.025q2.661.3,5.32.557V289.926h49.623v42.483c.423-.078.847-.161,1.26-.252s.786-.159,1.18-.252q1.553-.33,3.1-.7V289.926h21.705Zm-159.3,0H99V261.69h69.539Zm0-28.228H99v-28.81h68.553l.978.771Zm77.044,28.228H174.092V261.69h71.495Zm0-28.228H174.092v-28.81h71.495Zm55.173,28.228H251.136V261.69h49.623Z" transform="translate(0.727 -62.886)" fill="#6c63ff" opacity="0.1"/>
            <g id="Group_1875" data-name="Group 1875" transform="translate(0 1.341)">
              <path id="Path_737" data-name="Path 737" d="M309.117,316.167a21.078,21.078,0,0,1-5.8,6.956c-.343.275-.693.539-1.049.8q-.718.5-1.472.99a48.379,48.379,0,0,1-12.939,5.406q-1.825.5-3.662.948-1.55.376-3.1.7c-.393.086-.786.166-1.18.252s-.844.169-1.26.252l-.6.113a154.04,154.04,0,0,1-35.033,2l-.56-.028-.895-.045q-3.589-.187-7.186-.476l-.907-.073-.4-.033q-2.016-.169-4.033-.371-2.656-.252-5.32-.557l-.229-.025-.187-.023h0c-6.339-.713-12.692-1.57-19.054-2.45l-.9-.126-1.616-.224-1.361-.189h0l-.4-.055q-3.221-.451-6.442-.892l-.348-.048c-4.033-.552-8.088-1.084-12.13-1.568l-.527-.063h0q-2.483-.295-4.963-.562l-1.26-.134-1.676-.169c-4.645-.461-9.287-.829-13.92-1.059q-3.342-.166-6.7-.252-2.772-.063-5.545-.073-3.76-.018-7.536.043h-.57c-3.546.058-7.1.159-10.656.28l-.64.02h-.212c-7.561.267-15.122.623-22.663.877l-1.842.061h-.267q-3.932.126-7.856.194H92.667l-1.169.015q-1.822.018-3.637.02H86.376c-4.441-.013-8.864-.111-13.26-.34l-.489-.028a167.827,167.827,0,0,1-25.282-3.145q-1.288-.27-2.571-.565A118.058,118.058,0,0,1,27.94,317.4a20.1,20.1,0,0,1-7.14-4.143c-4.98-5.041-3.11-14.913,3.37-17.784,5.068-2.246,11.006-.418,16.458-1.432a8.41,8.41,0,0,0,.99-.252,13.761,13.761,0,0,0,2.016-.832c.222-.111.444-.229.668-.353a17.015,17.015,0,0,0,1.492-.912,22.905,22.905,0,0,0,2.268-1.721q.479-.408.933-.847a17.837,17.837,0,0,0,2.752-3.294,11.643,11.643,0,0,0,.756-1.422,7.507,7.507,0,0,0,.313-.786,7.323,7.323,0,0,0,.3-1.164,5.389,5.389,0,0,0-1.986-5.237,5.28,5.28,0,0,0-.5-.381,7.7,7.7,0,0,0-1.094-.633c-.154-.073-.313-.144-.474-.212-2.3-.97-5.275-1.343-7.78-2.016h0a13.737,13.737,0,0,1-2.228-.774c-.456-.212-.91-.433-1.356-.665h0l-.118-.066h0a30.343,30.343,0,0,1-9.829-8.065,26.278,26.278,0,0,1-1.83-2.656c-.169-.277-.333-.562-.489-.847-4.428-7.989-4.884-18.227-.277-26.083a24.681,24.681,0,0,1,1.865-2.737q.333-.431.688-.847c4.385-5.174,10.686-8.68,17.048-11.276a119.972,119.972,0,0,1,26.59-7.133q2.772-.441,5.545-.791c7.737-.988,15.566-1.512,23.338-1.91q10.906-.552,21.907-.713,3.728-.05,7.463-.043,8.415,0,16.831.325,2.772.106,5.545.252,7.11.368,14.192,1.008,3.4.308,6.79.678a278.511,278.511,0,0,1,50.513,10.026q2.785.842,5.545,1.764a214.125,214.125,0,0,1,20.261,7.831q.938.421,1.87.847,6.2,2.843,12.219,6.127a135.888,135.888,0,0,1,15.273,9.577q2.853,2.092,5.545,4.365a79.745,79.745,0,0,1,8.849,8.73q.363.421.718.847,1.845,2.215,3.5,4.59c5.394,7.753,9.013,16.619,11.684,25.677C311.287,299.925,312.854,308.8,309.117,316.167Z" transform="translate(22.84 -65.527)" fill="#6c63ff" opacity="0.1"/>
            </g>
          </g>
        </g>
      </g>
    </g>
    <g id="Group_1932" data-name="Group 1932">
      <g id="Group_1927" data-name="Group 1927" transform="translate(111.13 156.5)">
        <path id="Path_1138" data-name="Path 1138" d="M124.523,231.239c2.984,6.74-.823,14.5-5.3,20.355-1.5,1.959-3.15,4.009-3.36,6.475-.251,3.007,1.785,5.772,4.2,7.579a17.7,17.7,0,0,0,15.668,2.65c4.532-1.432,8.342-4.678,12.912-5.986,7.649-2.189,15.75,1.44,22.295,5.961,4.632,3.2,9.593,7.087,15.177,6.4,3.932-.481,7.268-3.24,9.53-6.49,1.092-1.575,2.043-3.326,3.635-4.386a9.078,9.078,0,0,1,3.17-1.2c10.152-2.169,20.923,3.126,30.94.4,6.765-1.84,12.16-7.188,15.514-13.343s4.92-13.108,6.224-20c.926-4.9,1.7-10.177-.43-14.682-2.254-4.765-7.47-7.653-12.712-8.193s-10.5.956-15.33,3.067c-6.035,2.639-11.95,6.333-18.538,6.346-4.486.009-8.763-1.718-13.052-3.025-7.185-2.195-14.63-3.286-22.066-4.293-7.115-.964-14.3-1.861-21.456-1.289-5.064.4-9.536,2.338-14.45,3.233-3.2.584-6.422.143-9.564,1.133-3.866,1.21-7.852,4.018-8.065,8.435C119.268,224.592,122.939,227.661,124.523,231.239Z" transform="translate(-114.274 -189.511)" fill="#6c63ff" opacity="0.1"/>
        <g id="Group_1925" data-name="Group 1925" transform="translate(92.316 24.609)" opacity="0.5">
          <path id="Path_1139" data-name="Path 1139" d="M757.238,260.241a2.951,2.951,0,0,0-2.04,2.2c-.859,2.864,1.128,4.822.477,7.8a5.814,5.814,0,0,1-1,2.186,14.9,14.9,0,0,1-2.5,2.351,7.471,7.471,0,0,0-2.2,3.614,10,10,0,0,0-.1,4.7,18.634,18.634,0,0,0,1.253,3.293,24.321,24.321,0,0,1,1.289,4.152,10.1,10.1,0,0,1,.286,2.106,18.6,18.6,0,0,1-.261,2.818l-1.213,8.463a25.142,25.142,0,0,0-.331,3.345,16.556,16.556,0,0,0,.388,3.34c.43,2.239.883,4.563,1.861,5.744s2.636.772,3.657-1.639c.971-2.291.991-5.355,1.847-7.806,1.349-3.866,4.032-4.381,5.52-8.065,1.432-3.534.991-7.875,1.718-11.9.518-2.888,1.622-5.522,2.277-8.376a26.552,26.552,0,0,0,.1-11.536,15.321,15.321,0,0,0-3.59-6.973,3.493,3.493,0,0,0-2.1-1.379c-.843-.064-1.575,1-2.413,1.316C759.184,260.351,758.216,259.963,757.238,260.241Z" transform="translate(-749.636 -258.67)" fill="#6bfd3e"/>
          <path id="Path_1140" data-name="Path 1140" d="M790.125,260.09s-1.432,36.551-7.435,58.106" transform="translate(-777.957 -259.887)" fill="none" stroke="#535461" stroke-miterlimit="10" stroke-width="2"/>
          <path id="Path_1141" data-name="Path 1141" d="M788.22,286.26s6.412,5.843,5.2,16.977" transform="translate(-782.695 -282.31)" fill="none" stroke="#535461" stroke-miterlimit="10" stroke-width="2"/>
          <path id="Path_1142" data-name="Path 1142" d="M750.6,402.38s10.538,2.119,9.756,8.422" transform="translate(-750.462 -381.804)" fill="none" stroke="#535461" stroke-miterlimit="10" stroke-width="2"/>
          <path id="Path_1143" data-name="Path 1143" d="M831.522,316.41s-4.262,3.733-8.062,14.305" transform="translate(-812.89 -308.143)" fill="none" stroke="#535461" stroke-miterlimit="10" stroke-width="2"/>
          <path id="Path_1144" data-name="Path 1144" d="M819.275,505.47s-2.909,2.291-5.245-5.7" transform="translate(-804.81 -465.249)" fill="none" stroke="#535461" stroke-miterlimit="10" stroke-width="2"/>
          <path id="Path_1145" data-name="Path 1145" d="M763,545.252s5.933-.775,6.48-4.492" transform="translate(-761.086 -500.37)" fill="none" stroke="#535461" stroke-miterlimit="10" stroke-width="2"/>
        </g>
        <path id="Path_1146" data-name="Path 1146" d="M823.2,88.144a4.562,4.562,0,0,0-3.962,3c-1.425,4.118,2.908,7.235,1.91,11.537a6.468,6.468,0,0,1-1.814,3.1c-1.523,1.5-3.257,2.148-4.9,3.164a9.24,9.24,0,0,0-4.128,5.061,10.669,10.669,0,0,0,.351,6.907,27.571,27.571,0,0,0,2.984,5,33.853,33.853,0,0,1,3.171,6.258,12.035,12.035,0,0,1,.838,3.134,18.96,18.96,0,0,1-.2,4.118l-1.506,12.314a25.627,25.627,0,0,0-.286,4.887,19.255,19.255,0,0,0,1.2,4.964c1.145,3.348,2.371,6.825,4.529,8.68s5.548,1.449,7.372-1.982c1.737-3.266,1.417-7.769,2.9-11.277,2.334-5.528,7.825-5.975,10.467-11.223,2.536-5.034,1.117-11.474,2.135-17.325.73-4.192,2.7-7.939,3.723-12.064a28.435,28.435,0,0,0-1.17-16.977,26.035,26.035,0,0,0-8.256-10.694,9.272,9.272,0,0,0-4.507-2.279c-1.753-.195-3.15,1.28-4.838,1.651C827.244,88.535,825.2,87.849,823.2,88.144Z" transform="translate(-708.944 -86.48)" fill="#afb0bd"/>
        <path id="Path_1147" data-name="Path 1147" d="M916.9,88.12s1.382,53.658-8.5,84.687" transform="translate(-793.352 -87.931)" fill="rgba(159,159,159,0)" stroke="#c2c2c4" stroke-miterlimit="10" stroke-width="2"/>
        <path id="Path_1148" data-name="Path 1148" d="M874.83,121.16s13.977,9.367,12.78,25.618" transform="translate(-764.588 -116.24)" fill="rgba(159,159,159,0)" stroke="#c2c2c4" stroke-miterlimit="10" stroke-width="2"/>
        <path id="Path_1149" data-name="Path 1149" d="M810.75,287.71s22.061,4.37,21.191,13.558" transform="translate(-709.683 -258.943)" fill="rgba(159,159,159,0)" stroke="#c2c2c4" stroke-miterlimit="10" stroke-width="2"/>
        <path id="Path_1150" data-name="Path 1150" d="M978.18,176.42s-8.385,4.991-14.99,20.11" transform="translate(-840.297 -163.588)" fill="rgba(159,159,159,0)" stroke="#c2c2c4" stroke-miterlimit="10" stroke-width="2"/>
        <path id="Path_1151" data-name="Path 1151" d="M965.1,447.63s-5.75,3.027-11.53-9.02" transform="translate(-832.054 -388.237)" fill="rgba(159,159,159,0)" stroke="#c2c2c4" stroke-miterlimit="10" stroke-width="2"/>
        <ellipse id="Ellipse_103" data-name="Ellipse 103" cx="61.234" cy="5.882" rx="61.234" ry="5.882" transform="translate(8.662 77.792)" fill="#6c63ff" opacity="0.1"/>
        <path id="Path_1153" data-name="Path 1153" d="M152.358,622.29s1.2,1.575-.554,3.938-3.2,4.37-2.609,5.846c0,0,2.646-4.4,4.8-4.462S154.727,624.936,152.358,622.29Z" transform="translate(-142.735 -545.618)" fill="#6c63ff"/>
        <path id="Path_1154" data-name="Path 1154" d="M152.743,622.29a1.942,1.942,0,0,1,.245.493c2.1,2.468,3.22,4.772,1.2,4.831-1.881.054-4.138,3.418-4.679,4.268a1.833,1.833,0,0,0,.064.193s2.646-4.4,4.8-4.462S155.113,624.936,152.743,622.29Z" transform="translate(-143.12 -545.618)" opacity="0.1"/>
        <path id="Path_1155" data-name="Path 1155" d="M185.956,634.159c0,.553-.062,1-.143,1s-.143-.448-.143-1,.077-.286.153-.286S185.956,633.607,185.956,634.159Z" transform="translate(-174.103 -555.487)" fill="#ffd037"/>
        <path id="Path_1156" data-name="Path 1156" d="M187.339,638.6c-.485.265-.908.43-.944.357s.326-.336.812-.6.294-.072.331,0S187.826,638.331,187.339,638.6Z" transform="translate(-174.722 -559.267)" fill="#ffd037"/>
        <path id="Path_1157" data-name="Path 1157" d="M111.738,622.29s-1.2,1.575.554,3.938,3.194,4.37,2.622,5.846c0,0-2.646-4.4-4.8-4.462S109.37,624.936,111.738,622.29Z" transform="translate(-108.454 -545.618)" fill="#6c63ff"/>
        <path id="Path_1158" data-name="Path 1158" d="M111.707,622.29a1.942,1.942,0,0,0-.245.493c-2.1,2.468-3.22,4.772-1.2,4.831,1.881.054,4.138,3.418,4.679,4.268a1.829,1.829,0,0,1-.064.193s-2.646-4.4-4.8-4.462S109.339,624.936,111.707,622.29Z" transform="translate(-108.423 -545.618)" opacity="0.1"/>
        <path id="Path_1159" data-name="Path 1159" d="M112.25,634.159c0,.553.062,1,.143,1s.143-.448.143-1-.077-.286-.153-.286S112.25,633.607,112.25,634.159Z" transform="translate(-111.195 -555.487)" fill="#ffd037"/>
        <path id="Path_1160" data-name="Path 1160" d="M105.129,638.6c.485.265.908.43.944.357s-.326-.336-.812-.6-.294-.072-.331,0S104.644,638.331,105.129,638.6Z" transform="translate(-104.84 -559.267)" fill="#ffd037"/>
        <path id="Path_1161" data-name="Path 1161" d="M114.91,678.346s3.355-.1,4.366-.823,5.155-1.575,5.411-.43,5.041,5.743,1.254,5.773-8.8-.59-9.809-1.2S114.91,678.346,114.91,678.346Z" transform="translate(-113.474 -592.096)" fill="#321e1e"/>
        <path id="Path_1162" data-name="Path 1162" d="M126.018,693.306c-3.787.03-8.8-.59-9.809-1.2-.769-.468-1.075-2.148-1.177-2.922h-.112s.212,2.706,1.221,3.32,6.022,1.236,9.815,1.206c1.094-.009,1.47-.4,1.45-.974C127.245,693.08,126.831,693.3,126.018,693.306Z" transform="translate(-113.483 -602.931)" opacity="0.2"/>
        <path id="Path_1163" data-name="Path 1163" d="M419.87,469.42s16.788-10.726,28.394-10.726a83.775,83.775,0,0,1,29.172,1.5c15.2,3.678,20.813,8.448,25.027,7.047l-17.7.518Z" transform="translate(-374.77 -404.898)" fill="#8cd0f3"/>
        <path id="Path_1164" data-name="Path 1164" d="M419.87,469.42s16.788-10.726,28.394-10.726a83.775,83.775,0,0,1,29.172,1.5c15.2,3.678,20.813,8.448,25.027,7.047l-17.7.518Z" transform="translate(-374.77 -404.898)" fill="#8cd0f3" opacity="0.1"/>
        <path id="Path_1165" data-name="Path 1165" d="M254.986,470.407H152.6l2.815-11.278,17.411-4.629,82.16,2.159Z" transform="translate(-130.756 -389.47)" fill="#121c3f"/>
        <path id="Path_1166" data-name="Path 1166" d="M324.7,482.553v3.6s-3.04,2.205-3.316,3.932a43.914,43.914,0,0,1-5.6,1.105,3.611,3.611,0,0,0-.365.013,10.332,10.332,0,0,0,.454-1.6,10.552,10.552,0,1,0-20.027,2.148h-5.9s-.054.019-.143.057c-.316.143-1.062.521-1.17,1.115H239.728l-1-.009a10.351,10.351,0,0,0,.573-1.108,10.227,10.227,0,0,0,.7-2.2,10.562,10.562,0,1,0-19.46,3.275c-.7-.17-2.224-.654-2.224-.654s-6.493-.69-8.151-2.148l.251-.173,1.062-.726-.484-1.861a1.147,1.147,0,0,1-.143-.255,1.7,1.7,0,0,1,.213-1.612c.69-1.105.345-5.043.345-5.043s9.4-6.493,27.91-7.945a2.673,2.673,0,0,0,1.356.415,5.923,5.923,0,0,0,2.514-.415s1.519.69,8.018-3.04a45.567,45.567,0,0,1,25.563-6.907s14.922-.9,27.634,4.009a78.242,78.242,0,0,0,12.617,3.836,29.268,29.268,0,0,0,5.255.661h.505s0,1.645.087,3.588v.01c.031.676.074,1.387.135,2.079v.043c.166,1.926.452,3.675.949,4.022Z" transform="translate(-195.086 -408.663)" fill="#ea5582"/>
        <path id="Path_1167" data-name="Path 1167" d="M228.4,570.888a13.74,13.74,0,0,1,9.344-2.556s-4.715,3.731-6.84,3.489l-.362-.311-2.148.12S228.076,571.13,228.4,570.888Z" transform="translate(-210.591 -499.303)" fill="#8cd0f3"/>
        <path id="Path_1168" data-name="Path 1168" d="M218.472,626v1.917s-.143,1.831-1.8,1.9l-4.725.233,1.061-.726-.484-1.861a1.106,1.106,0,0,1-.143-.253,5.6,5.6,0,0,1,3.5-1.206Z" transform="translate(-196.62 -548.797)" fill="#fff" opacity="0.2"/>
        <path id="Path_1169" data-name="Path 1169" d="M411.06,569.023l3.627-.143a6.631,6.631,0,0,1-2.5,1.261C411.146,570.246,411.06,569.023,411.06,569.023Z" transform="translate(-367.221 -499.855)" fill="#fff" opacity="0.2"/>
        <path id="Path_1170" data-name="Path 1170" d="M464.38,626.405s32.8-4.56,40.726-3.11c0,0,2.331.156,3.213,1.088s0,.328,0,.328Z" transform="translate(-412.907 -546.235)" fill="#fff" opacity="0.2"/>
        <path id="Path_1171" data-name="Path 1171" d="M592.61,551.229s.415-.777,1.088-.795l4.37-.225a1.077,1.077,0,0,1-.846.829Z" transform="translate(-522.777 -483.858)" fill="#18218a" opacity="0.5"/>
        <path id="Path_1172" data-name="Path 1172" d="M769.21,542.025s.415-.777,1.088-.795l4.37-.231a1.077,1.077,0,0,1-.846.829Z" transform="translate(-674.091 -475.967)" fill="#18218a" opacity="0.5"/>
        <path id="Path_1173" data-name="Path 1173" d="M507.876,472.755l-3.353,8.794-12.09.013H481.62s1.615-1.186,4.217-2.7c.859-.5,1.834-1.037,2.892-1.575.974-.5,2.022-1,3.123-1.48.859-.378,1.764-.742,2.689-1.081C498.734,473.2,503.448,472.167,507.876,472.755Z" transform="translate(-427.678 -417.35)" fill="#8cd0f3"/>
        <path id="Path_1174" data-name="Path 1174" d="M688.264,478.922s-5.051.749-9.872,1.3c-1.843.212-3.651.4-5.132.5l-.206.014c-.573.037-1.1.062-1.555.07a5.722,5.722,0,0,1-1.519-.1l1.393-8.412s1.718.019,4.26.143l.556.03c.528.03,1.085.064,1.667.1.831.057,1.705.126,2.607.209,4.356.4,9.29,1.117,12.414,2.408C699.524,477.937,688.264,478.922,688.264,478.922Z" transform="translate(-589.069 -417.095)" fill="#8cd0f3"/>
        <path id="Path_1175" data-name="Path 1175" d="M942.576,548.143v2.245s-3.627.052-2.849-.673a11.113,11.113,0,0,0,1.365-1.575Z" transform="translate(-820.099 -482.085)" fill="#8cd0f3"/>
        <path id="Path_1176" data-name="Path 1176" d="M980.605,542.718l-2.945.231v-2.7s1.365-1.917,2.729.208l.079.125Z" transform="translate(-852.695 -474.644)" fill="#8cd0f3"/>
        <circle id="Ellipse_104" data-name="Ellipse 104" cx="8.429" cy="8.429" r="8.429" transform="translate(26.127 70.435)" fill="#182a7c"/>
        <path id="Path_1177" data-name="Path 1177" d="M312.255,597.02a6.784,6.784,0,1,1-.143-1.375A6.784,6.784,0,0,1,312.255,597.02Z" transform="translate(-270.938 -518.163)" fill="#3f8ffe"/>
        <ellipse id="Ellipse_105" data-name="Ellipse 105" cx="5.812" cy="5.826" rx="5.812" ry="5.826" transform="translate(28.735 73.029)" fill="#18218a" opacity="0.5"/>
        <path id="Path_1178" data-name="Path 1178" d="M338.876,590.424v.246l-1.934,6.4-1.552-6.757A6.8,6.8,0,0,1,338.876,590.424Z" transform="translate(-302.386 -518.071)" fill="#3f8ffe"/>
        <path id="Path_1179" data-name="Path 1179" d="M339.239,644.931a6.8,6.8,0,0,1-3.409.117l1.488-6.479Z" transform="translate(-302.763 -559.567)" fill="#3f8ffe"/>
        <path id="Path_1180" data-name="Path 1180" d="M353.025,629.333a6.8,6.8,0,0,1-.324,2.082h-.027l-6.4-1.934,6.624-1.521A6.836,6.836,0,0,1,353.025,629.333Z" transform="translate(-311.708 -550.476)" fill="#3f8ffe"/>
        <path id="Path_1181" data-name="Path 1181" d="M305.664,629.445l-6.4,1.934h-.05a6.855,6.855,0,0,1-.185-3.459Z" transform="translate(-271.108 -550.442)" fill="#3f8ffe"/>
        <circle id="Ellipse_106" data-name="Ellipse 106" cx="0.743" cy="0.743" r="0.743" transform="translate(33.803 78.112)" fill="#182a7c"/>
        <circle id="Ellipse_107" data-name="Ellipse 107" cx="8.429" cy="8.429" r="8.429" transform="translate(101.966 70.435)" fill="#182a7c"/>
        <path id="Path_1182" data-name="Path 1182" d="M841.935,597.02a6.784,6.784,0,1,1-.143-1.375,6.784,6.784,0,0,1,.143,1.375Z" transform="translate(-724.778 -518.163)" fill="#3f8ffe"/>
        <ellipse id="Ellipse_108" data-name="Ellipse 108" cx="5.812" cy="5.826" rx="5.812" ry="5.826" transform="translate(104.575 73.029)" fill="#18218a" opacity="0.5"/>
        <path id="Path_1183" data-name="Path 1183" d="M868.546,590.424v.246l-1.934,6.4-1.552-6.757A6.8,6.8,0,0,1,868.546,590.424Z" transform="translate(-756.217 -518.071)" fill="#3f8ffe"/>
        <path id="Path_1184" data-name="Path 1184" d="M868.919,644.931a6.8,6.8,0,0,1-3.409.117L867,638.57Z" transform="translate(-756.603 -559.567)" fill="#3f8ffe"/>
        <path id="Path_1185" data-name="Path 1185" d="M882.662,629.325a6.8,6.8,0,0,1-.324,2.082h-.033l-6.406-1.936,6.624-1.521A6.841,6.841,0,0,1,882.662,629.325Z" transform="translate(-765.505 -550.468)" fill="#3f8ffe"/>
        <path id="Path_1186" data-name="Path 1186" d="M835.335,629.445l-6.4,1.934h-.05a6.855,6.855,0,0,1-.185-3.459Z" transform="translate(-724.94 -550.442)" fill="#3f8ffe"/>
        <circle id="Ellipse_109" data-name="Ellipse 109" cx="0.743" cy="0.743" r="0.743" transform="translate(109.643 78.112)" fill="#182a7c"/>
        <path id="Path_1187" data-name="Path 1187" d="M504.6,505.5l-2.118,4.268H500.14l1.565-2.693C502.568,506.574,503.541,506.04,504.6,505.5Z" transform="translate(-443.547 -445.55)" fill="#fff" opacity="0.2"/>
        <path id="Path_1188" data-name="Path 1188" d="M540.612,487.61l-2.109,6.825H535.39l2.534-5.747C538.789,488.313,539.688,487.952,540.612,487.61Z" transform="translate(-473.749 -430.222)" fill="#fff" opacity="0.2"/>
        <path id="Path_1189" data-name="Path 1189" d="M686.966,473.483l-4.595,8.148-.206.014c-.573.037-1.1.062-1.555.07l4.134-8.366.556.03C685.82,473.409,686.382,473.443,686.966,473.483Z" transform="translate(-598.177 -418.003)" fill="#fff" opacity="0.2"/>
        <path id="Path_1190" data-name="Path 1190" d="M361.643,448.63,359.02,466.7l21.908-.48,3.6-17.51Z" transform="translate(-307.621 -384.44)" fill="none" stroke="#fff" stroke-miterlimit="10" stroke-width="1" opacity="0.2"/>
        <path id="Path_1191" data-name="Path 1191" d="M460.755,667.431c-.316.143-1.062.521-1.17,1.115H410.672l-1-.009a10.348,10.348,0,0,0,.573-1.108Z" transform="translate(-366.03 -584.295)" fill="#18218a" opacity="0.5"/>
        <path id="Path_1192" data-name="Path 1192" d="M427.905,737.1a2.28,2.28,0,0,0,.745-1.123,1,1,0,0,0-.52-1.145,1.448,1.448,0,0,0-1.375.483,1.815,1.815,0,0,1-1.336.644,2.035,2.035,0,0,0,.629-1.9.8.8,0,0,0-.175-.387c-.265-.286-.746-.162-1.062.062a3.992,3.992,0,0,0-1.3,3.315,6.3,6.3,0,0,1-.019-1.366,1.4,1.4,0,0,0-.513-1.208,1.545,1.545,0,0,0-.782-.183,1.614,1.614,0,0,0-1.269.361,1.259,1.259,0,0,0,.05,1.558,4.955,4.955,0,0,0,1.313,1.052,2.913,2.913,0,0,1,.938.895.888.888,0,0,1,.07.16h2.844A7.93,7.93,0,0,0,427.905,737.1Z" transform="translate(-375.468 -640.902)" fill="#276e22"/>
        <path id="Path_1193" data-name="Path 1193" d="M854.323,759.582a1.671,1.671,0,0,0,.548-.828.735.735,0,0,0-.384-.843,1.075,1.075,0,0,0-1.014.356,1.349,1.349,0,0,1-.987.475,1.5,1.5,0,0,0,.464-1.4.587.587,0,0,0-.129-.286c-.2-.209-.55-.119-.785.046a2.923,2.923,0,0,0-.956,2.446,4.688,4.688,0,0,1-.014-1,1.035,1.035,0,0,0-.378-.891,1.145,1.145,0,0,0-.573-.136,1.192,1.192,0,0,0-.936.266.921.921,0,0,0,.037,1.145,3.726,3.726,0,0,0,.969.776,2.148,2.148,0,0,1,.693.66.654.654,0,0,1,.052.117h2.1A5.848,5.848,0,0,0,854.323,759.582Z" transform="translate(-742.453 -660.98)" fill="#276e22"/>
        <path id="Path_1194" data-name="Path 1194" d="M919.323,791.392a1.671,1.671,0,0,0,.548-.828.735.735,0,0,0-.384-.843,1.075,1.075,0,0,0-1.014.357,1.348,1.348,0,0,1-.987.475,1.5,1.5,0,0,0,.464-1.4.587.587,0,0,0-.129-.286c-.2-.209-.55-.119-.785.046a2.923,2.923,0,0,0-.956,2.446,4.688,4.688,0,0,1-.014-1,1.035,1.035,0,0,0-.378-.891,1.146,1.146,0,0,0-.573-.136,1.192,1.192,0,0,0-.936.266.921.921,0,0,0,.037,1.145,3.726,3.726,0,0,0,.969.776,2.149,2.149,0,0,1,.693.66.657.657,0,0,1,.052.117h2.1A5.846,5.846,0,0,0,919.323,791.392Z" transform="translate(-798.146 -688.235)" fill="#276e22"/>
        <path id="Path_1195" data-name="Path 1195" d="M546.491,546.13s-.5.272-.727-1.269c-.143-1-.56-3.068-.833-4.41l-.034-.17a2.355,2.355,0,0,0,.231-.086s-1.592-6.157-1.229-7.52a12.4,12.4,0,0,0,0-3.806l-.955-3.216s-2.365-.816-3.274-1.042a22.222,22.222,0,0,1-3.456-1.813,1.974,1.974,0,0,1,.123.159l-.1-.062a3.8,3.8,0,0,1-.5-.573,3.605,3.605,0,0,0,.942-1.959,4.066,4.066,0,0,0-.2-4.136,2.029,2.029,0,0,0,.348-.65,1.064,1.064,0,0,0,.039-.332.883.883,0,0,0-.5-.878.869.869,0,0,0-.684.007,2.941,2.941,0,0,1-.581.309c-.368.076-.683-.219-.972-.438a2.926,2.926,0,0,0-1.545-.573,1.5,1.5,0,0,0-.716.095,2.879,2.879,0,0,0-.593.445,7.846,7.846,0,0,1-2.4.964c-.158.054-.332.143-.361.286a.21.21,0,0,0,0,.086h0a.212.212,0,0,0,.009.109,8.061,8.061,0,0,0-3.037,1.423l-.252.233a.481.481,0,0,0-.526.044l-.507.4a.477.477,0,0,0-.115.621l-3.707,3.436-.08.074v-.013s-2.864,2.175-2.864,3.714a2.581,2.581,0,0,0,1.327,2.095,3.55,3.55,0,0,0-.925,1.432h0v.348h0v.049l-.011.063v.026l-.007.043v.089l-.01.057h0l-.013.072v.014l-.01.06v.029l-.011.066v.017l-.013.074v.033l-.033.188h0l-.017.1v.017l-.019.1v.014l-.019.106v.009l-.02.112v.024l-.02.11v.024l-.019.109v.013l-.021.123v.023l-.049.275h0l-.024.143v.021l-.024.143v.01l-.053.286v.024l-.026.143v.02l-.056.3v.013l-.029.153v.013l-.057.312v.02l-.029.155v.011l-.06.319v.017l-.03.158v.011l-.062.324v.013l-.03.158v.013l-.262.324v.014l-.032.156v.009l-.064.318v.009l-.031.155v.009l-.063.3v.013l-.03.143v.013l-.062.286v.01l-.03.143v.014l-.06.271v.007l-.029.127v.013l-.059.249h0l-.029.117v.01q-.029.117-.056.225h0l-.027.1v.011l-.026.1a2.5,2.5,0,0,1-.286.783.8.8,0,0,0-.168.263h0l-.011.029-.012.032-.01.031-.047.043-.01.033-.009.03-.009.034v.031l-.007.034v.031a.219.219,0,0,1-.011.069v1.127l.43.13s.216.119.55.273a20.941,20.941,0,0,1-.543,4.6A17.509,17.509,0,0,1,512.9,545c-.455-.182-3.366-.634-2.456,1.449a4.641,4.641,0,0,0,2.043,2,2.544,2.544,0,0,1-.315.082c-.742.143-.948.391-.919.646-.053.43.677.909.737.939a15.7,15.7,0,0,0,3.912.316c.729-.228,3.684-.77,3.684-.77v-.09h0s-.04-.891-.152-1.735c.335-.049.7-.093,1.055-.12a1.44,1.44,0,0,0,.779,1c1.956,1,2.593-.362,2.593-.362a12.75,12.75,0,0,0,4.122.143,4.357,4.357,0,0,0,.379.314,6.954,6.954,0,0,0,3.216.6,4.557,4.557,0,0,0,1.154-.033,10.689,10.689,0,0,0,1.89-.3,3.081,3.081,0,0,0,2.205-2.8c.069-.02.117-.092.143-.226a.651.651,0,0,0,.06-.233,6.889,6.889,0,0,1,.186-.985l2.148.12c.959,1.741,1.807,3.126,1.807,3.126l1.455-.182a8.4,8.4,0,0,1-1.682-1.813c-.727-1.087-.727-6.3-.727-6.3l.082-3.174v-.12a17.492,17.492,0,0,0,1.322,3.71c.087.029.173.054.258.079l.077.2c.607,1.609,2.148,5.727,2.256,6.377.143.816,5.822,1.133,7.095.724S546.491,546.13,546.491,546.13ZM526.206,528.1l-2.082,3.127a20.755,20.755,0,0,0-2.231-3.259C523.741,528.031,525.87,528.1,526.206,528.1Zm-.316-8.018a.482.482,0,0,0,.5-.056l.178-.143a.477.477,0,0,0,.122-.613l.106-.1a15.83,15.83,0,0,0,2.165-.525,4.042,4.042,0,0,0,.53,1.838,3.589,3.589,0,0,0,.349,1.031c-.326-.027-.682-.046-1.021-.043a5.335,5.335,0,0,0-.886.056c-1.091.182-1.229,2.175-1.229,2.175a15.147,15.147,0,0,1-3.509.8,1.647,1.647,0,0,1-.493-.073l-.133-.009.179-.49s-.077.024-.2.05q.062-.093.129-.189a34.529,34.529,0,0,1,3.216-3.7Zm-4.5,24.19a8.473,8.473,0,0,0-.451.888,2.061,2.061,0,0,1-1.6-.163.93.93,0,0,0-.6-.21l.009-.017a11.115,11.115,0,0,0,.649-2.746,2.913,2.913,0,0,0,1.625-.7l1.05.359.039.073.026.047.042.077.026.049.042.076.027.049.042.074.027.049.04.073.027.049.042.073.027.047.042.072.026.046.042.072.026.044.04.07.026.044.042.07.024.04.042.069.024.04.042.069.021.036.043.07.016.026c.074.122.143.238.213.346l.01.016.04.063.017.027.036.057.02.03.033.052.02.033.03.047.021.033.029.044.02.031.026.04.02.031.024.037.02.032.023.034.02.03h0A9.223,9.223,0,0,1,521.386,544.273Z" transform="translate(-452.222 -452.546)" fill="url(#linear-gradient)"/>
        <path id="Path_1196" data-name="Path 1196" d="M737.375,699.61c-1.241.4-6.784.089-6.917-.716-.106-.64-1.608-4.668-2.2-6.243l-.238-.63,2.882-.621s.106.505.252,1.226c.266,1.314.669,3.343.812,4.317.222,1.508.716,1.241.716,1.241S738.612,699.21,737.375,699.61Z" transform="translate(-638.799 -604.833)" fill="#ffbdc6"/>
        <path id="Path_1197" data-name="Path 1197" d="M661.44,566s-.222,1.33,1.685,2.577.266,5.72.266,5.72l-1.41.079a3.466,3.466,0,0,1-3.645-3.139h0s.8-1.289-.666-4.612Z" transform="translate(-578.521 -497.388)" fill="#ffbdc6"/>
        <path id="Path_1198" data-name="Path 1198" d="M584.936,533.734a41.438,41.438,0,0,0-4.021,4.52,6.524,6.524,0,0,0-.414.667c-.931,1.774-3.1-1.11-2.347-2.106l.517-.483,4.977-4.639s3.415-2.66,5.143-.753S584.936,533.734,584.936,533.734Z" transform="translate(-510.259 -466.758)" fill="#ffbdc6"/>
        <circle id="Ellipse_110" data-name="Ellipse 110" cx="3.99" cy="3.99" r="3.99" transform="translate(76.783 62.298)" fill="#a66477"/>
        <path id="Path_1199" data-name="Path 1199" d="M519.771,730.083a21.719,21.719,0,0,1-3.415,0c-.444-.177-3.28-.62-2.388,1.42s4.257,2.882,4.257,2.882l2.434-.621Z" transform="translate(-455.247 -637.834)" fill="#7679b4"/>
        <path id="Path_1200" data-name="Path 1200" d="M519.771,730.083a21.719,21.719,0,0,1-3.415,0c-.444-.177-3.28-.62-2.388,1.42s4.257,2.882,4.257,2.882l2.434-.621Z" transform="translate(-455.247 -637.834)" opacity="0.05"/>
        <path id="Path_1201" data-name="Path 1201" d="M611.5,670.08l5.963,2.423,3.392,7.2s.044,2.527-2.172,3.1-5.321.311-6.12-.266-4.079-3.99-4.079-3.99Z" transform="translate(-536.374 -586.565)" fill="#6c1f2e"/>
        <path id="Path_1202" data-name="Path 1202" d="M611.09,670.08l5.162,1.934,2.937,5.766a2.536,2.536,0,0,1-1.88,2.484c-1.919.461-4.606.248-5.3-.213s-3.531-3.194-3.531-3.194Z" transform="translate(-536.374 -586.565)" fill="#6c1f2e" opacity="0.05"/>
        <path id="Path_1203" data-name="Path 1203" d="M567.482,729.844s-1.552.533-2.172,0-1.73.133-1.73.133l.49,2.882a14.366,14.366,0,0,1,3.415-.355Z" transform="translate(-497.903 -637.596)" fill="#ffbdc6"/>
        <path id="Path_1204" data-name="Path 1204" d="M567.482,729.844s-1.552.533-2.172,0-1.73.133-1.73.133l.49,2.882a14.366,14.366,0,0,1,3.415-.355Z" transform="translate(-497.903 -637.596)" opacity="0.05"/>
        <path id="Path_1205" data-name="Path 1205" d="M571.325,652.089l-1.416-.488s-1.552,1.375-2.577.222.931-5.942.931-5.942l2.083-3.37,1.508,4.745,1.375,2.305Z" transform="translate(-500.863 -562.943)" fill="#565388"/>
        <path id="Path_1206" data-name="Path 1206" d="M571.325,652.089l-1.416-.488s-1.552,1.375-2.577.222.931-5.942.931-5.942l2.083-3.37,1.508,4.745,1.375,2.305Z" transform="translate(-500.863 -562.943)" fill="#6c1f2e" opacity="0.05"/>
        <path id="Path_1207" data-name="Path 1207" d="M585.842,621.07l3.193.442.621,2.927-3.946-.222Z" transform="translate(-501.854 -532.19)" fill="#565388"/>
        <path id="Path_1208" data-name="Path 1208" d="M585.842,621.07l3.193.442.621,2.927-3.946-.222Z" transform="translate(-501.854 -532.19)" opacity="0.05"/>
        <path id="Path_1209" data-name="Path 1209" d="M625.028,595.45s1.33,5.1,5.584,1.419l1.153,14.632a12.291,12.291,0,0,0-1.641,4.3c-.222,2.035-4.079-6.3-6.384-6.34s-4.589-3.259-4.589-3.259l2.594-5.344Z" transform="translate(-545.517 -522.621)" opacity="0.1"/>
        <path id="Path_1210" data-name="Path 1210" d="M625.338,594.52s1.33,5.1,5.584,1.419l1.153,14.632a12.289,12.289,0,0,0-1.641,4.3c-.222,2.035-4.079-6.3-6.384-6.34s-4.589-3.259-4.589-3.259l2.594-5.344Z" transform="translate(-545.782 -521.824)" fill="#f2f1f2"/>
        <path id="Path_1211" data-name="Path 1211" d="M576.74,570.475a11.8,11.8,0,0,0-2.927-.133c-1.065.178-1.2,2.128-1.2,2.128s-3.015,1.064-4.035.716c0,0-5.011-.355-5.011,1.153a2.69,2.69,0,0,0,1.6,2.208s6.957.235,7.006.222c1.6-.444-.044,0-.044,0l-2.882,4.346,2.66,3.68,2.838-2.083a6.835,6.835,0,0,1,1.289-2.927c.664-.7,1.533-3.836,1.976-5.573a2.85,2.85,0,0,0-.322-2.175Z" transform="translate(-497.895 -501.061)" opacity="0.1"/>
        <path id="Path_1212" data-name="Path 1212" d="M580.915,574.641a6.524,6.524,0,0,0-.414.667c-.931,1.774-3.1-1.11-2.347-2.106l.517-.482C578.482,575.008,580.345,574.765,580.915,574.641Z" transform="translate(-510.259 -503.145)" opacity="0.1"/>
        <path id="Path_1213" data-name="Path 1213" d="M623.05,613.159H623S624.647,612.716,623.05,613.159Z" transform="translate(-548.815 -537.626)" opacity="0.1"/>
        <path id="Path_1214" data-name="Path 1214" d="M575.818,570.475a11.8,11.8,0,0,0-2.927-.133c-1.065.178-1.2,2.128-1.2,2.128s-3.015,1.064-4.035.716l.178-.488s-2.7.842-2.394-2c0,0-2.793,2.128-2.793,3.635a2.7,2.7,0,0,0,1.6,2.214s6.957.235,7.006.222c1.6-.444-.044,0-.044,0l-2.882,4.346,2.66,3.68,2.838-2.083a6.836,6.836,0,0,1,1.289-2.927c.664-.7,1.534-3.836,1.976-5.573a2.849,2.849,0,0,0-.322-2.175Z" transform="translate(-497.106 -501.061)" fill="#5238fd"/>
        <path id="Path_1215" data-name="Path 1215" d="M718.335,672.25v.243A.529.529,0,0,1,718.335,672.25Z" transform="translate(-630.488 -588.425)" opacity="0.1"/>
        <path id="Path_1216" data-name="Path 1216" d="M731.154,692.666a5.067,5.067,0,0,1-2.9.026l-.238-.63,2.882-.621S731.007,691.95,731.154,692.666Z" transform="translate(-638.799 -604.867)" opacity="0.1"/>
        <path id="Path_1217" data-name="Path 1217" d="M689.62,579.34a21.638,21.638,0,0,0,3.37,1.774c.888.222,3.193,1.019,3.193,1.019l.931,3.15a12.153,12.153,0,0,1,0,3.723c-.355,1.329-3.68,3.857-3.5,3.458l-.089,3.5s0,5.1.716,6.157-1.353-1.042-1.353-1.042-2.506-3.7-2.815-6.052.176-11.387.176-11.387l-.444-.621S690.728,580.626,689.62,579.34Z" transform="translate(-605.897 -508.818)" opacity="0.1"/>
        <path id="Path_1218" data-name="Path 1218" d="M690.55,579.34a21.638,21.638,0,0,0,3.37,1.774c.888.222,3.193,1.019,3.193,1.019l.931,3.15a12.151,12.151,0,0,1,0,3.723c-.355,1.329,1.2,7.361,1.2,7.361a4.942,4.942,0,0,1-3.415,0c-.133-.044-1.463-3.5-1.289-3.9l-.089,3.5s0,5.1.716,6.157a8.21,8.21,0,0,0,1.641,1.774l-1.419.177s-4.083-6.689-4.394-9.035.178-11.4.178-11.4l-.444-.621S691.658,580.626,690.55,579.34Z" transform="translate(-606.694 -508.818)" fill="#5238fd"/>
        <path id="Path_1219" data-name="Path 1219" d="M558.031,625.277s-2.971-4.3-2.838-6.3c0,0-.355,2.749-.753,2.927s-4.39-1.065-4.39-1.065-.178-1.289.266-1.73,1.818-8.647,1.818-8.647a3.033,3.033,0,0,1,2.616-2.35c2.128-.133,6.917,10.686,6.917,10.686S562.377,625.277,558.031,625.277Z" transform="translate(-486.28 -533.47)" fill="#6c1f2e"/>
        <path id="Path_1220" data-name="Path 1220" d="M549.9,687.11s.089,6.207-1.019,7.228,3.237,1.552,3.237,1.552a3.385,3.385,0,0,1-.133-2.7c.62-1.2,1.019-6.075,1.019-6.075Z" transform="translate(-485.151 -601.157)" fill="#ffbdc6"/>
        <path id="Path_1221" data-name="Path 1221" d="M525.909,733.616s-.444-1.108-1.641-.222c0,0-1.064,2.483-2.927,2.838s-.266,1.419-.178,1.463a15.3,15.3,0,0,0,3.813.311c.709-.222,3.591-.753,3.591-.753s-.133-2.927-.573-3.15S527.772,735.43,525.909,733.616Z" transform="translate(-460.943 -640.52)" opacity="0.05"/>
        <path id="Path_1222" data-name="Path 1222" d="M525.909,734.206s-.444-1.108-1.641-.222c0,0-1.064,2.483-2.927,2.838s-.266,1.419-.178,1.463a15.3,15.3,0,0,0,3.813.311c.709-.222,3.592-.752,3.592-.752s-.133-2.927-.573-3.15S527.772,736.023,525.909,734.206Z" transform="translate(-460.943 -641.025)" fill="#7679b4"/>
        <path id="Path_1223" data-name="Path 1223" d="M608.841,541.747a20.64,20.64,0,0,0,1.208,1.685.468.468,0,0,1-.067.673l-.173.136a.468.468,0,0,1-.667-.093,5.289,5.289,0,0,0-1.432-1.356.468.468,0,0,1-.043-.765l.494-.389a.468.468,0,0,1,.68.109Z" transform="translate(-535.525 -476.428)" fill="#565388"/>
        <path id="Path_1224" data-name="Path 1224" d="M662.237,568.355a2.1,2.1,0,0,1-.464-1.445l-3.773.627a12.179,12.179,0,0,1,.644,1.808A3.545,3.545,0,0,0,662.237,568.355Z" transform="translate(-578.804 -498.167)" opacity="0.1"/>
        <circle id="Ellipse_111" data-name="Ellipse 111" cx="3.547" cy="3.547" r="3.547" transform="translate(77.25 64.094)" fill="#ffbdc6"/>
        <path id="Path_1225" data-name="Path 1225" d="M640.859,521.6a8.841,8.841,0,0,1,.972-.269,1.619,1.619,0,0,1,1.12.537,2.679,2.679,0,0,0,1.011.73,2.5,2.5,0,0,0,.81.054.754.754,0,0,0,.43-.109.542.542,0,0,0,.143-.219,2.083,2.083,0,0,0-.013-1.688.287.287,0,0,1-.04-.183.278.278,0,0,1,.062-.1,3.1,3.1,0,0,0,.7-1.085.908.908,0,0,0-.448-1.1.843.843,0,0,0-.667,0,2.7,2.7,0,0,1-.573.3c-.359.074-.667-.215-.948-.43a2.845,2.845,0,0,0-1.5-.561,1.457,1.457,0,0,0-.7.093,2.81,2.81,0,0,0-.573.43,7.665,7.665,0,0,1-2.338.944c-.153.054-.324.135-.352.286s.143.3.315.371a1.153,1.153,0,0,1,.484.242c.143.172.1.415.123.631.053.43.43.663.846.787C640.064,521.378,640.517,521.658,640.859,521.6Z" transform="translate(-561.623 -455.809)" opacity="0.1"/>
        <path id="Path_1226" data-name="Path 1226" d="M640.979,521.05a8.829,8.829,0,0,1,.972-.269,1.619,1.619,0,0,1,1.12.537,2.677,2.677,0,0,0,1.011.73,2.5,2.5,0,0,0,.81.054.753.753,0,0,0,.43-.109.541.541,0,0,0,.143-.219,2.083,2.083,0,0,0-.013-1.688.286.286,0,0,1-.04-.183.277.277,0,0,1,.062-.1,3.1,3.1,0,0,0,.7-1.085.908.908,0,0,0-.448-1.1.843.843,0,0,0-.667,0,2.706,2.706,0,0,1-.573.3c-.359.074-.667-.215-.948-.43a2.846,2.846,0,0,0-1.485-.55,1.457,1.457,0,0,0-.7.093,2.809,2.809,0,0,0-.573.43,7.666,7.666,0,0,1-2.338.944c-.153.054-.324.135-.352.286s.143.3.315.371a1.152,1.152,0,0,1,.484.242c.143.172.1.415.123.631.053.43.43.663.846.788C640.184,520.826,640.637,521.107,640.979,521.05Z" transform="translate(-561.743 -455.347)" fill="#a66477"/>
        <path id="Path_1227" data-name="Path 1227" d="M638.29,664.84s2.533.43,3.166,1.8,4.439,5.067,4.439,5.067" transform="translate(-561.916 -582.076)" opacity="0.05"/>
        <g id="Group_1926" data-name="Group 1926" transform="translate(63.734 76.721)" opacity="0.05">
          <path id="Path_1228" data-name="Path 1228" d="M554.527,688.965c-.4.177-4.39-1.064-4.39-1.064a4.238,4.238,0,0,1,.013-1.161,3.535,3.535,0,0,0-.1,1.472s3.99,1.241,4.39,1.064c.132-.059.259-.4.371-.83C554.72,688.722,554.626,688.925,554.527,688.965Z" transform="translate(-550.013 -677.561)"/>
          <path id="Path_1229" data-name="Path 1229" d="M555.709,622.63a2.614,2.614,0,0,0-.083.275s-.962,5.746-1.536,7.875C554.621,629.052,555.623,623.141,555.709,622.63Z" transform="translate(-553.506 -622.63)"/>
          <path id="Path_1230" data-name="Path 1230" d="M589.115,688.12s-2.971-4.3-2.838-6.3c0,0-.031.249-.087.6.135,2.1,2.836,6.011,2.836,6.011,2.066,0,2.99-1.463,3.389-3A3.343,3.343,0,0,1,589.115,688.12Z" transform="translate(-581.01 -673.345)"/>
        </g>
        <path id="Path_1231" data-name="Path 1231" d="M552.673,684.278s2.709,1.492,3.685.782a1.407,1.407,0,0,0,.355-1.818L555.959,682h-2.527l-.842,1.463Z" transform="translate(-488.487 -596.779)" fill="#6c1f2e"/>
        <path id="Path_1232" data-name="Path 1232" d="M597.178,717.2s.177-3.547-4.346-3.5-.177,0-.177,0a5.482,5.482,0,0,0-3.99.716,8.844,8.844,0,0,1-4.745.975s-2.04,3.37-.133,4.346,2.527-.362,2.527-.362,3.9.753,4.789-.266a4.552,4.552,0,0,0,4.921.982S598.242,719.1,597.178,717.2Z" transform="translate(-514.518 -623.838)" fill="#6c1f2e"/>
      </g>
      <g id="Icon_feather-alert-triangle" data-name="Icon feather-alert-triangle" transform="translate(149.795 191.654)" opacity="0.75">
        <g id="Group_1928" data-name="Group 1928">
          <path id="Path_1233" data-name="Path 1233" d="M7.642,4.931l-5.151,8.6a1.216,1.216,0,0,0,1.04,1.824h10.3a1.216,1.216,0,0,0,1.04-1.824l-5.151-8.6a1.216,1.216,0,0,0-2.08,0Z" fill="#f33" stroke="#5e1d1d" stroke-linecap="round" stroke-linejoin="round" stroke-width="1"/>
          <path id="Path_1234" data-name="Path 1234" d="M18,13.5v2.433" transform="translate(-9.318 -5.443)" fill="none" stroke="#5e1d1d" stroke-linecap="round" stroke-linejoin="round" stroke-width="1"/>
          <path id="Path_1235" data-name="Path 1235" d="M18,25.5h0" transform="translate(-9.318 -12.577)" fill="none" stroke="#5e1d1d" stroke-linecap="round" stroke-linejoin="round" stroke-width="1"/>
        </g>
      </g>
    </g>
  </g>
</svg>
