<svg xmlns="http://www.w3.org/2000/svg" width="375" height="149" viewBox="0 0 375 149">
  <g id="Group_1889" data-name="Group 1889" transform="translate(0 -136)">
    <path id="Path_735" data-name="Path 735" d="M0,0H375V149H0Z" transform="translate(0 136)" fill="#e3d5f8"/>
    <g id="Group_1887" data-name="Group 1887">
      <g id="Group_1877" data-name="Group 1877">
        <path id="Path_134" data-name="Path 134" d="M309.117,316.167a21.078,21.078,0,0,1-5.8,6.956c-.343.275-.693.539-1.049.8q-.718.5-1.472.99a48.379,48.379,0,0,1-12.939,5.406q-1.825.5-3.662.948-1.55.376-3.1.7c-.393.086-.786.166-1.18.252s-.844.169-1.26.252l-.6.113a154.04,154.04,0,0,1-35.033,2l-.56-.028-.895-.045q-3.589-.187-7.186-.476l-.907-.073-.4-.033q-2.016-.169-4.033-.371-2.656-.252-5.32-.557l-.229-.025-.187-.023h0c-6.339-.713-12.692-1.57-19.054-2.45l-.9-.126-1.616-.224-1.361-.189h0l-.4-.055q-3.221-.451-6.442-.892l-.348-.048c-4.033-.552-8.088-1.084-12.13-1.568l-.527-.063h0q-2.483-.295-4.963-.562l-1.26-.134-1.676-.169c-4.645-.461-9.287-.829-13.92-1.059q-3.342-.166-6.7-.252-2.772-.063-5.545-.073-3.76-.018-7.536.043h-.57c-3.546.058-7.1.159-10.656.28l-.64.02h-.212c-7.561.267-15.122.623-22.663.877l-1.842.061h-.267q-3.932.126-7.856.194H92.667l-1.169.015q-1.822.018-3.637.02H86.376c-4.441-.013-8.864-.111-13.26-.34l-.489-.028a167.827,167.827,0,0,1-25.282-3.145q-1.288-.27-2.571-.565A118.058,118.058,0,0,1,27.94,317.4a20.1,20.1,0,0,1-7.14-4.143c-4.98-5.041-3.11-14.913,3.37-17.784,5.068-2.246,11.006-.418,16.458-1.432a8.41,8.41,0,0,0,.99-.252,13.761,13.761,0,0,0,2.016-.832c.222-.111.444-.229.668-.353a17.015,17.015,0,0,0,1.492-.912,22.905,22.905,0,0,0,2.268-1.721q.479-.408.933-.847a17.837,17.837,0,0,0,2.752-3.294,11.643,11.643,0,0,0,.756-1.422,7.507,7.507,0,0,0,.313-.786,7.323,7.323,0,0,0,.3-1.164,5.389,5.389,0,0,0-1.986-5.237,5.28,5.28,0,0,0-.5-.381,7.7,7.7,0,0,0-1.094-.633c-.154-.073-.313-.144-.474-.212-2.3-.97-5.275-1.343-7.78-2.016h0a13.737,13.737,0,0,1-2.228-.774c-.456-.212-.91-.433-1.356-.665h0l-.118-.066h0a30.343,30.343,0,0,1-9.829-8.065,26.278,26.278,0,0,1-1.83-2.656c-.169-.277-.333-.562-.489-.847-4.428-7.989-4.884-18.227-.277-26.083a24.681,24.681,0,0,1,1.865-2.737q.333-.431.688-.847c4.385-5.174,10.686-8.68,17.048-11.276a119.972,119.972,0,0,1,26.59-7.133q2.772-.441,5.545-.791c7.737-.988,15.566-1.512,23.338-1.91q10.906-.552,21.907-.713,3.728-.05,7.463-.043,8.415,0,16.831.325,2.772.106,5.545.252,7.11.368,14.192,1.008,3.4.308,6.79.678a278.511,278.511,0,0,1,50.513,10.026q2.785.842,5.545,1.764a214.125,214.125,0,0,1,20.261,7.831q.938.421,1.87.847,6.2,2.843,12.219,6.127a135.888,135.888,0,0,1,15.273,9.577q2.853,2.092,5.545,4.365a79.745,79.745,0,0,1,8.849,8.73q.363.421.718.847,1.845,2.215,3.5,4.59c5.394,7.753,9.013,16.619,11.684,25.677C311.287,299.925,312.854,308.8,309.117,316.167Z" transform="translate(22.84 -65.527)" fill="#6c63ff" opacity="0.1"/>
        <path id="Path_135" data-name="Path 135" d="M327.84,289.079H306.309V261.69h9.577q-.355-.426-.718-.847h-8.849v-8.73q-2.687-2.268-5.545-4.365v13.106H251.136V232.041h22.131q-.935-.426-1.87-.847H251.136v-7.831q-2.772-.915-5.545-1.764v9.577H174.749l-.169-.161,20.493-19.452q-3.387-.373-6.79-.678l-14.192,13.469V209.887q-2.772-.146-5.545-.252v15.649L151.716,209.31q-3.733,0-7.463.043l22.824,21.662-.169.161H99V212q-2.772.35-5.545.791v18.4H49.816q-.355.416-.688.847H93.453v28.8H47.53c.156.285.32.57.489.847H93.453v27.389H71.105q-.454.439-.933.847h23.28v28.026q2.772.4,5.545.827V289.926h69.544v35.116q2.772,0,5.545.073V289.926h71.5v42.989l.229.025q2.661.3,5.32.557V289.926h49.623v42.483c.423-.078.847-.161,1.26-.252s.786-.159,1.18-.252q1.553-.33,3.1-.7V289.926h21.705Zm-159.3,0H99V261.69h69.539Zm0-28.228H99v-28.81h68.553l.978.771Zm77.044,28.228H174.092V261.69h71.495Zm0-28.228H174.092v-28.81h71.495Zm55.173,28.228H251.136V261.69h49.623Z" transform="translate(0.727 -62.886)" fill="#6c63ff" opacity="0.1"/>
      </g>
      <g id="Group_1886" data-name="Group 1886" transform="translate(107.715 150.613)">
        <path id="Path_900" data-name="Path 900" d="M356.805,178.755H260.334a2.487,2.487,0,0,1-2.484-2.484V116.785a1.822,1.822,0,0,1,1.82-1.82h97.768a1.853,1.853,0,0,1,1.851,1.851v59.455A2.487,2.487,0,0,1,356.805,178.755Z" transform="translate(-234.464 -112.887)" fill="#3f3d3d"/>
        <path id="Path_901" data-name="Path 901" d="M370.988,201.041H281.08a2.321,2.321,0,0,1-2.39-2.238V147a1.72,1.72,0,0,1,1.771-1.66h91.117a1.749,1.749,0,0,1,1.8,1.687V198.8A2.321,2.321,0,0,1,370.988,201.041Z" transform="translate(-252.166 -138.69)" fill="#e8dbdb"/>
        <path id="Path_902" data-name="Path 902" d="M359.058,104.915H257.618v-1.265a2.5,2.5,0,0,1,2.493-2.491h96.454a2.5,2.5,0,0,1,2.493,2.491Z" transform="translate(-234.267 -101.159)" fill="#6c63ff"/>
        <circle id="Ellipse_78" data-name="Ellipse 78" cx="0.645" cy="0.645" r="0.645" transform="translate(27.237 1.237)" fill="#fff"/>
        <circle id="Ellipse_79" data-name="Ellipse 79" cx="0.645" cy="0.645" r="0.645" transform="translate(29.685 1.237)" fill="#fff"/>
        <circle id="Ellipse_80" data-name="Ellipse 80" cx="0.645" cy="0.645" r="0.645" transform="translate(32.132 1.237)" fill="#fff"/>
        <path id="Path_903" data-name="Path 903" d="M418.044,242.085H348.368a2.637,2.637,0,0,1-2.634-2.634V205.857a1.973,1.973,0,0,1,1.97-1.97h70.972a2,2,0,0,1,2,2V239.45A2.637,2.637,0,0,1,418.044,242.085Zm-70.34-37.9a1.671,1.671,0,0,0-1.669,1.669V239.45a2.336,2.336,0,0,0,2.333,2.333h69.676a2.336,2.336,0,0,0,2.333-2.333V205.888a1.7,1.7,0,0,0-1.7-1.7Z" transform="translate(-309.118 -188.422)" fill="#ccc"/>
        <path id="Path_904" data-name="Path 904" d="M365.643,254.481H430.5a2.409,2.409,0,0,0,2.409-2.409V223.99a2.409,2.409,0,0,0-2.409-2.409H365.643a2.409,2.409,0,0,0-2.409,2.409v28.083A2.409,2.409,0,0,0,365.643,254.481Z" transform="translate(-323.983 -203.453)" fill="#f2f2f2"/>
        <circle id="Ellipse_81" data-name="Ellipse 81" cx="1.355" cy="1.355" r="1.355" transform="translate(47.669 23.589)" fill="#fd5"/>
        <circle id="Ellipse_82" data-name="Ellipse 82" cx="1.355" cy="1.355" r="1.355" transform="translate(47.669 28.707)" fill="#fd5"/>
        <circle id="Ellipse_83" data-name="Ellipse 83" cx="1.355" cy="1.355" r="1.355" transform="translate(47.669 33.825)" fill="#fd5"/>
        <circle id="Ellipse_84" data-name="Ellipse 84" cx="1.355" cy="1.355" r="1.355" transform="translate(47.669 38.944)" fill="#fd5"/>
        <path id="Path_905" data-name="Path 905" d="M516.864,266.156H472.3a.151.151,0,0,1,0-.3h44.56a.151.151,0,0,1,0,.3Z" transform="translate(-416.506 -241.062)" fill="#ccc"/>
        <path id="Path_906" data-name="Path 906" d="M516.864,300.156H472.3a.151.151,0,0,1,0-.3h44.56a.151.151,0,0,1,0,.3Z" transform="translate(-416.506 -269.944)" fill="#ccc"/>
        <path id="Path_907" data-name="Path 907" d="M516.864,334.156H472.3a.151.151,0,0,1,0-.3h44.56a.151.151,0,0,1,0,.3Z" transform="translate(-416.506 -298.825)" fill="#ccc"/>
        <path id="Path_908" data-name="Path 908" d="M516.864,368.156H472.3a.151.151,0,0,1,0-.3h44.56a.151.151,0,0,1,0,.3Z" transform="translate(-416.506 -327.707)" fill="#ccc"/>
        <path id="Path_909" data-name="Path 909" d="M500.272,372.425h-4.366a.754.754,0,0,1-.753-.753v-4.065a.754.754,0,0,1,.753-.753h4.366a.754.754,0,0,1,.753.753v4.065A.754.754,0,0,1,500.272,372.425Z" transform="translate(-436.044 -326.858)" fill="#6c63ff"/>
        <path id="Path_910" data-name="Path 910" d="M565.272,343.543h-4.366a.754.754,0,0,1-.753-.753v-9.183a.753.753,0,0,1,.753-.753h4.366a.754.754,0,0,1,.753.753v9.183A.754.754,0,0,1,565.272,343.543Z" transform="translate(-491.259 -297.976)" fill="#6c63ff"/>
        <path id="Path_911" data-name="Path 911" d="M631.272,314.662h-4.366a.754.754,0,0,1-.753-.753v-14.3a.754.754,0,0,1,.753-.753h4.366a.754.754,0,0,1,.753.753v14.3A.754.754,0,0,1,631.272,314.662Z" transform="translate(-547.323 -269.094)" fill="#6c63ff"/>
        <path id="Path_912" data-name="Path 912" d="M699.272,286.629h-4.366a.754.754,0,0,1-.753-.753V266.608a.754.754,0,0,1,.753-.753h4.366a.754.754,0,0,1,.753.753v19.269A.754.754,0,0,1,699.272,286.629Z" transform="translate(-605.087 -241.062)" fill="#6c63ff"/>
        <path id="Path_913" data-name="Path 913" d="M516.864,402.156H472.3a.151.151,0,0,1,0-.3h44.56a.151.151,0,0,1,0,.3Z" transform="translate(-416.506 -356.589)" fill="#3f3d56"/>
        <path id="Path_914" data-name="Path 914" d="M897.748,575a1.514,1.514,0,0,1,2.306-.262l4.78-2.467-.3,2.78-4.494,1.917a1.522,1.522,0,0,1-2.3-1.967Z" transform="translate(-777.813 -501.349)" fill="#ffb8b8"/>
        <path id="Path_915" data-name="Path 915" d="M922.915,519.1a.677.677,0,0,1-.229-.333l-.38-1.228a.68.68,0,0,1,.239-.741l3.875-2.927,4.2-7.785a2.182,2.182,0,1,1,3.447,2.677l-2.387,5.039a6.981,6.981,0,0,1-3.532,3.417l-4.541,1.97a.678.678,0,0,1-.687-.088Z" transform="translate(-798.867 -444.408)" fill="#3f3d56"/>
        <circle id="Ellipse_85" data-name="Ellipse 85" cx="3.697" cy="3.697" r="3.697" transform="translate(131.604 51.03)" fill="#ffb8b8"/>
        <path id="Path_916" data-name="Path 916" d="M873.445,645.567H871.6l-.878-7.119h2.724Z" transform="translate(-739.644 -542.337)" fill="#ffb8b8"/>
        <path id="Path_917" data-name="Path 917" d="M855.149,682.233h3.559v2.241h-5.8A2.241,2.241,0,0,1,855.149,682.233Z" transform="translate(-724.512 -579.53)" fill="#2f2e41"/>
        <path id="Path_918" data-name="Path 918" d="M913.445,645.568H911.6l-.878-7.119h2.724Z" transform="translate(-773.622 -542.337)" fill="#ffb8b8"/>
        <path id="Path_919" data-name="Path 919" d="M895.149,682.234h3.559v2.241h-5.8a2.241,2.241,0,0,1,2.241-2.241Z" transform="translate(-758.49 -579.531)" fill="#2f2e41"/>
        <path id="Path_920" data-name="Path 920" d="M967.635,633.82h-2.163a.679.679,0,0,1-.654-.5L961.7,621.772a.075.075,0,0,0-.148.024l.629,10.951a.677.677,0,0,1-.733.714l-2.431-.2a.679.679,0,0,1-.617-.6l-2.215-22.994.857.514,8.028-1.363,3.23,24.235a.678.678,0,0,1-.672.767Z" transform="translate(-827.677 -532.396)" fill="#2f2e41"/>
        <path id="Path_921" data-name="Path 921" d="M957.982,517.747a4.959,4.959,0,0,1-2.513-.707.674.674,0,0,1-.322-.691c.282-1.729,1.759-10.6,3.1-15.435a3.819,3.819,0,0,1,3.6-3.153,5.116,5.116,0,0,1,5.33,4.7c.439,4.885-1.345,11.825-2.132,14.582a.677.677,0,0,1-1.067.347l-1.605-1.249a.532.532,0,0,0-.68.028A5.513,5.513,0,0,1,957.982,517.747Z" transform="translate(-826.783 -438.049)" fill="#6c63ff"/>
        <path id="Path_922" data-name="Path 922" d="M903.387,443.738l1.355,5.721-1.957,4.817,1.355-4.667Z" transform="translate(-766.879 -376.938)" opacity="0.2"/>
        <path id="Path_923" data-name="Path 923" d="M983.173,439.876a2.489,2.489,0,0,0,.962-.174c.135-.052.274-.094.409-.146a3.315,3.315,0,0,0,2-2.994,4.311,4.311,0,0,0-1.608-3.319,6.224,6.224,0,0,0-3.513-1.328,3.981,3.981,0,0,0-3.668,1.38,1.2,1.2,0,0,0-.225,1.036.662.662,0,0,0,.187.287c.341.3.681.075,1.028.055a1.137,1.137,0,0,1,1.061.812,2.448,2.448,0,0,1-.038,1.414,3.535,3.535,0,0,0-.178.86.864.864,0,0,0,.358.761.986.986,0,0,0,.989-.1,6.864,6.864,0,0,1,.879-.563.778.778,0,0,1,.944.191,1.047,1.047,0,0,1,.119.345C983.043,439.154,983,439.109,983.173,439.876Z" transform="translate(-845.762 -382.108)" fill="#2f2e41"/>
        <path id="Path_924" data-name="Path 924" d="M840.567,593.8l-23.152-8.063a1.589,1.589,0,0,1-.977-2.021l6.016-17.276a1.164,1.164,0,0,1,1.481-.716l23.935,8.336a1.184,1.184,0,0,1,.728,1.506l-6.01,17.257A1.589,1.589,0,0,1,840.567,593.8Z" transform="translate(-708.886 -495.736)" fill="#a7b2ff"/>
        <path id="Path_925" data-name="Path 925" d="M830.718,596.828l20.245,7.051a1.539,1.539,0,0,0,1.96-.947l4.858-13.95a1.539,1.539,0,0,0-.947-1.96l-20.245-7.051a1.539,1.539,0,0,0-1.96.947l-4.858,13.95A1.539,1.539,0,0,0,830.718,596.828Z" transform="translate(-720.214 -507.818)" fill="#fff"/>
        <path id="Path_926" data-name="Path 926" d="M863.84,617.318l-1-.349a.217.217,0,0,1-.134-.276l.349-1a.217.217,0,0,1,.276-.134l1,.349a.217.217,0,0,1,.134.276l-.349,1A.217.217,0,0,1,863.84,617.318Z" transform="translate(-748.253 -538.109)" fill="#6c63ff"/>
        <path id="Path_927" data-name="Path 927" d="M857.83,634.574l-1-.349a.217.217,0,0,1-.134-.277l.349-1a.217.217,0,0,1,.276-.134l1,.349a.218.218,0,0,1,.134.276l-.349,1A.217.217,0,0,1,857.83,634.574Z" transform="translate(-743.148 -552.768)" fill="#3f3d56"/>
        <path id="Path_928" data-name="Path 928" d="M851.821,651.83l-1-.349a.217.217,0,0,1-.134-.276l.349-1a.218.218,0,0,1,.276-.134l1,.349a.217.217,0,0,1,.134.277l-.349,1A.217.217,0,0,1,851.821,651.83Z" transform="translate(-738.043 -567.426)" fill="#ccc"/>
        <path id="Path_929" data-name="Path 929" d="M886.992,627.3l-4.831-1.682a.217.217,0,0,1,.143-.41l4.831,1.682a.217.217,0,1,1-.143.41Z" transform="translate(-764.667 -546.311)" fill="#ccc"/>
        <path id="Path_930" data-name="Path 930" d="M880.983,644.561l-4.831-1.682a.217.217,0,0,1,.143-.41l4.831,1.682a.217.217,0,1,1-.143.41Z" transform="translate(-759.563 -560.97)" fill="#ccc"/>
        <path id="Path_931" data-name="Path 931" d="M874.973,661.817l-4.831-1.682a.217.217,0,1,1,.143-.41l4.831,1.682a.217.217,0,1,1-.143.41Z" transform="translate(-754.458 -575.628)" fill="#ccc"/>
        <path id="Path_932" data-name="Path 932" d="M964.242,648.883c.035-.084.068-.17.1-.258a4.552,4.552,0,0,0-2.8-5.8l-1.588,4.559Z" transform="translate(-830.871 -561.287)" fill="#6c63ff"/>
        <path id="Path_933" data-name="Path 933" d="M931.7,647.8l1.588-4.559a4.552,4.552,0,1,0,2.7,6.054Z" transform="translate(-803.084 -561.416)" fill="#3f3d56"/>
        <path id="Path_934" data-name="Path 934" d="M994.617,594.714a1.514,1.514,0,0,1,1.653-1.63l2.239-4.891,1.481,2.371-2.353,4.282a1.522,1.522,0,0,1-3.02-.131Z" transform="translate(-860.314 -514.876)" fill="#ffb8b8"/>
        <path id="Path_935" data-name="Path 935" d="M1009.263,523.1a.678.678,0,0,1-.386-.12l-1.057-.732a.68.68,0,0,1-.269-.73l1.243-4.694-1.5-8.715a2.182,2.182,0,1,1,4.365-.021l1.231,5.438a6.981,6.981,0,0,1-.671,4.868l-2.357,4.352a.677.677,0,0,1-.6.355Z" transform="translate(-871.085 -444.984)" fill="#3f3d56"/>
        <path id="Path_936" data-name="Path 936" d="M934.253,797.142h-28.6a.151.151,0,0,1,0-.3h28.6a.151.151,0,1,1,0,.3Z" transform="translate(-784.617 -692.114)" fill="#ccc"/>
        <path id="Path_937" data-name="Path 937" d="M490.539,645.07h1.846l.878-7.119h-2.724Z" transform="translate(-416.694 -541.914)" fill="#a0616a"/>
        <path id="Path_938" data-name="Path 938" d="M589.914,782.4h3.635a2.316,2.316,0,0,1,2.316,2.316v.075h-5.951Z" transform="translate(-516.539 -679.842)" fill="#2f2e41"/>
        <path id="Path_939" data-name="Path 939" d="M441.539,645.07h1.846l.878-7.119h-2.724Z" transform="translate(-375.07 -541.914)" fill="#a0616a"/>
        <path id="Path_940" data-name="Path 940" d="M540.914,782.4h3.635a2.316,2.316,0,0,1,2.316,2.316v.075h-5.951Z" transform="translate(-474.915 -679.842)" fill="#2f2e41"/>
        <circle id="Ellipse_86" data-name="Ellipse 86" cx="3.697" cy="3.697" r="3.697" transform="translate(70.517 46.477)" fill="#d99b9b"/>
        <path id="Path_941" data-name="Path 941" d="M549.064,600.511h-3.425a.678.678,0,0,1-.677-.686l.2-16.263a.226.226,0,0,0-.45-.03l-1.993,16.383a.678.678,0,0,1-.672.6h-3.458a.677.677,0,0,1-.675-.73l2.283-29.216.062-.007,10.933-1.181-1.45,30.488A.677.677,0,0,1,549.064,600.511Z" transform="translate(-472.364 -498.893)" fill="#2f2e41"/>
        <path id="Path_942" data-name="Path 942" d="M549.987,486.257a.677.677,0,0,1-.675-.656c-.06-1.847-.162-8.239,1.027-12.932a6.161,6.161,0,0,1,5.689-4.642h0a6.2,6.2,0,0,1,6.106,3.918c2,5.074,3.887,11.327,1.533,12.308-3.085,1.285-11.219,1.859-13.638,2Z" transform="translate(-482.022 -412.79)" fill="#995d61"/>
        <path id="Path_943" data-name="Path 943" d="M637.605,394.539a1.583,1.583,0,0,0,.188.165l-.388,7.456-1.614.827.929,2.6,3-1.185a1.2,1.2,0,0,0,.757-1.232l-.786-8.457a1.58,1.58,0,1,0-2.085-.172Z" transform="translate(-555.509 -348.102)" fill="#d99b9b"/>
        <path id="Path_944" data-name="Path 944" d="M617.238,459.541l1.136,3.227a.677.677,0,0,1-.51.89l-3.349.648a1.881,1.881,0,1,1-1.239-3.553l3.007-1.587a.677.677,0,0,1,.955.374Z" transform="translate(-535.311 -405.207)" fill="#995d61"/>
        <path id="Path_945" data-name="Path 945" d="M525.232,394.539a1.588,1.588,0,0,1-.188.165l.388,7.456,1.614.827-.929,2.6-3-1.185a1.2,1.2,0,0,1-.756-1.232l.786-8.457a1.58,1.58,0,1,1,2.085-.172Z" transform="translate(-459.151 -348.102)" fill="#d99b9b"/>
        <path id="Path_946" data-name="Path 946" d="M536.356,459.135a.677.677,0,0,1,.563.031l3.007,1.587a1.881,1.881,0,1,1-1.239,3.553l-3.349-.649a.677.677,0,0,1-.51-.89l1.136-3.227A.677.677,0,0,1,536.356,459.135Z" transform="translate(-469.713 -405.206)" fill="#995d61"/>
        <path id="Path_947" data-name="Path 947" d="M569.01,397.717a2.43,2.43,0,0,1,1.361-2.283,2.687,2.687,0,0,0,1.521-2.948,3.247,3.247,0,0,0-3.96-1.887,7.314,7.314,0,0,0-1.243.578l-1.042.559a10.8,10.8,0,0,0-1.285.758,4.262,4.262,0,0,0-1.7,3.994,5.7,5.7,0,0,0,2.487,3.743,4.206,4.206,0,0,0,1.7.757,2.264,2.264,0,0,0,1.8-.407,2.363,2.363,0,0,0,.414-2.5A1.819,1.819,0,0,1,569.01,397.717Z" transform="translate(-493.36 -346.912)" fill="#2f2e41"/>
        <path id="Path_948" data-name="Path 948" d="M526.253,797.142h-28.6a.151.151,0,0,1,0-.3h28.6a.151.151,0,0,1,0,.3Z" transform="translate(-438.037 -692.114)" fill="#ccc"/>
        <path id="Path_949" data-name="Path 949" d="M191.8,500.68l-23.6,9.682a1.654,1.654,0,0,1-2.155-.9l-7.225-17.611a1.211,1.211,0,0,1,.66-1.579l24.4-10.01a1.232,1.232,0,0,1,1.606.672l7.217,17.591A1.654,1.654,0,0,1,191.8,500.68Z" transform="translate(-150.261 -423.114)" fill="#a7b2ff"/>
        <path id="Path_950" data-name="Path 950" d="M181.922,521.123l20.638-8.467a1.6,1.6,0,0,0,.874-2.09l-5.834-14.22a1.6,1.6,0,0,0-2.09-.874l-20.638,8.466a1.6,1.6,0,0,0-.874,2.09l5.834,14.22a1.6,1.6,0,0,0,2.09.874Z" transform="translate(-163.133 -436.011)" fill="#fff"/>
        <rect id="Rectangle_214" data-name="Rectangle 214" width="0.328" height="0.055" transform="translate(34.049 64.338) rotate(-22.306)" fill="#e6e6e6"/>
        <path id="Path_951" data-name="Path 951" d="M217.407,530.266l-.613.251-.021-.051.613-.251Zm-1.226.5-.613.252-.021-.051.613-.251Zm-1.226.5-.613.251-.021-.051.613-.251Zm-1.226.5-.613.251-.021-.051.613-.251Zm-1.226.5-.613.251-.021-.051.613-.251Zm-1.226.5-.613.251-.021-.051.613-.251Zm-1.226.5-.613.252-.021-.051.613-.251Zm-1.226.5-.613.251-.021-.051.613-.251Zm-1.226.5-.613.252-.021-.051.613-.251Zm-1.226.5-.613.251-.021-.051.613-.251Zm-1.226.5-.613.252-.021-.051.613-.252Zm-1.226.5-.613.251-.021-.051.613-.251Zm-1.226.5-.613.251-.021-.051.613-.251Zm-1.226.5-.613.251-.021-.051.613-.251Zm-1.226.5-.613.251-.021-.051.613-.251Zm-1.226.5-.613.251-.021-.051.613-.251Z" transform="translate(-183.95 -465.626)" fill="#e6e6e6"/>
        <rect id="Rectangle_215" data-name="Rectangle 215" width="0.328" height="0.055" transform="translate(13.518 72.761) rotate(-22.306)" fill="#e6e6e6"/>
        <rect id="Rectangle_216" data-name="Rectangle 216" width="0.328" height="0.055" transform="translate(26.016 73.128) rotate(-22.306)" fill="#e6e6e6"/>
        <path id="Path_952" data-name="Path 952" d="M220.219,588.63l-.6.248-.021-.051.6-.248Zm-1.208.5-.6.248-.021-.051.6-.248Zm-1.208.5-.6.248-.021-.051.6-.248Zm-1.208.5-.6.248-.021-.051.6-.248Zm-1.208.5-.6.248-.021-.051.6-.248Zm-1.208.5-.6.248-.021-.051.6-.248Zm-1.208.5-.6.248-.021-.051.6-.248Zm-1.208.5-.6.248-.021-.051.6-.248Z" transform="translate(-194.786 -515.203)" fill="#e6e6e6"/>
        <rect id="Rectangle_217" data-name="Rectangle 217" width="0.328" height="0.055" transform="translate(15.447 77.464) rotate(-22.306)" fill="#e6e6e6"/>
        <rect id="Rectangle_218" data-name="Rectangle 218" width="0.328" height="0.055" transform="translate(21.013 77.78) rotate(-22.306)" fill="#e6e6e6"/>
        <path id="Path_953" data-name="Path 953" d="M220.447,619.582l-.621.255-.021-.051.621-.255Zm-1.243.51-.621.255-.021-.051.621-.255Zm-1.243.51-.621.255-.021-.051.621-.255Z" transform="translate(-200.035 -541.496)" fill="#e6e6e6"/>
        <rect id="Rectangle_219" data-name="Rectangle 219" width="0.328" height="0.055" transform="translate(16.36 79.689) rotate(-22.306)" fill="#e6e6e6"/>
        <rect id="Rectangle_220" data-name="Rectangle 220" width="0.328" height="0.055" transform="translate(22.57 81.577) rotate(-22.306)" fill="#e6e6e6"/>
        <path id="Path_954" data-name="Path 954" d="M230.8,644.8l-.621.255-.021-.051.621-.255Zm-1.243.51-.621.255-.021-.051.621-.255Zm-1.243.51-.621.255-.021-.051.621-.255Z" transform="translate(-208.825 -562.922)" fill="#e6e6e6"/>
        <rect id="Rectangle_221" data-name="Rectangle 221" width="0.328" height="0.055" transform="translate(17.918 83.486) rotate(-22.306)" fill="#e6e6e6"/>
        <path id="Path_955" data-name="Path 955" d="M233.132,549.873l17.489-7.175a1.728,1.728,0,0,0,.942-2.252l-3.533-8.613-.034.015L243.7,542.11l-3.183-1.331a.413.413,0,0,0-.367.023.44.44,0,0,0-.182.216l-2.249,5.378-2.327-.973a.414.414,0,0,0-.542.222C234.837,545.681,233.4,549.2,233.132,549.873Z" transform="translate(-213.467 -467)" fill="#6c63ff"/>
        <path id="Path_956" data-name="Path 956" d="M232.49,549.4l-.05-.021,1.8-4.3a.465.465,0,0,1,.608-.249l2.281.954,2.236-5.348a.465.465,0,0,1,.608-.249l3.137,1.312,4.314-10.315.05.021-4.335,10.366-3.188-1.333a.41.41,0,0,0-.536.22l-2.258,5.4-2.332-.975a.41.41,0,0,0-.536.22Z" transform="translate(-212.879 -466.44)" fill="#3f3d56"/>
        <circle id="Ellipse_87" data-name="Ellipse 87" cx="0.383" cy="0.383" r="0.383" transform="translate(20.944 77.298)" fill="#3f3d56"/>
        <circle id="Ellipse_88" data-name="Ellipse 88" cx="0.383" cy="0.383" r="0.383" transform="translate(25.948 72.646)" fill="#3f3d56"/>
        <circle id="Ellipse_89" data-name="Ellipse 89" cx="0.383" cy="0.383" r="0.383" transform="translate(33.739 63.843)" fill="#3f3d56"/>
        <path id="Path_957" data-name="Path 957" d="M174.388,538.815a1.52,1.52,0,0,0,.543-2.266l1.136-11.11h-2.456l-.9,10.849a1.528,1.528,0,0,0,1.679,2.528Z" transform="translate(-161.682 -461.568)" fill="#ffb8b8"/>
        <circle id="Ellipse_90" data-name="Ellipse 90" cx="3.474" cy="3.474" r="3.474" transform="translate(11.486 50.79)" fill="#ffb8b8"/>
        <path id="Path_958" data-name="Path 958" d="M188.232,502.95a.635.635,0,0,1-.612-.467,35.134,35.134,0,0,0-2.153-5.083,4.21,4.21,0,0,1,2.391-5.813h0a4.208,4.208,0,0,1,5.408,2.681,20.825,20.825,0,0,1,.788,6.945.638.638,0,0,1-.5.589l-5.186,1.132A.634.634,0,0,1,188.232,502.95Z" transform="translate(-172.618 -432.61)" fill="#ff6584"/>
        <path id="Path_959" data-name="Path 959" d="M137.08,648.677h1.734l.825-6.69h-2.56Z" transform="translate(-116.444 -545.344)" fill="#ffb8b8"/>
        <path id="Path_960" data-name="Path 960" d="M0,0H5.451V2.106H2.106A2.106,2.106,0,0,1,0,0H0Z" transform="translate(25.715 104.944) rotate(179.997)" fill="#2f2e41"/>
        <path id="Path_961" data-name="Path 961" d="M21.882,638.417l1.52.835,3.946-5.464L25.1,632.555Z" transform="translate(-18.588 -537.331)" fill="#ffb8b8"/>
        <path id="Path_962" data-name="Path 962" d="M0,0H5.451V2.106H2.106A2.106,2.106,0,0,1,0,0H0Z" transform="translate(6.969 104.944) rotate(-151.199)" fill="#2f2e41"/>
        <path id="Path_963" data-name="Path 963" d="M150.657,585.274a.637.637,0,0,1-.631-.555l-2.169-16.714a.354.354,0,0,0-.66-.125l-9.039,16.4a.64.64,0,0,1-.784.288l-1.97-.751a.636.636,0,0,1-.363-.835L141.3,567.6a.491.491,0,0,0,.032-.122c.848-6.564,3.006-9.9,3.647-10.769a.493.493,0,0,0,.07-.449l-.088-.264a.636.636,0,0,1,.122-.619c2.31-2.631,6.337-1.2,6.377-1.181l.02.008.013.017c4.515,6.192,2.846,26.3,2.465,30.273a.635.635,0,0,1-.585.573l-2.67.206Z" transform="translate(-130.102 -485.653)" fill="#2f2e41"/>
        <path id="Path_964" data-name="Path 964" d="M239.9,481.971a1.49,1.49,0,0,0-.034.232l-6.077,3.506-1.477-.85-1.575,2.061,2.469,1.759a1.132,1.132,0,0,0,1.358-.033l6.266-4.943a1.485,1.485,0,1,0-.93-1.732Z" transform="translate(-211.437 -423.671)" fill="#ffb8b8"/>
        <path id="Path_965" data-name="Path 965" d="M216.746,498.145l-1.964,2.545a.637.637,0,0,1-.962.053l-2.223-2.309a1.768,1.768,0,0,1,2.168-2.793l2.789,1.559a.637.637,0,0,1,.193.944Z" transform="translate(-194.592 -435.941)" fill="#ff6584"/>
        <path id="Path_966" data-name="Path 966" d="M178.291,510.526l-3.164-.571a.637.637,0,0,1-.49-.83l1.026-3.037a1.768,1.768,0,0,1,3.478.638l-.1,3.193a.637.637,0,0,1-.749.606Z" transform="translate(-163.749 -443.9)" fill="#ff6584"/>
        <path id="Path_967" data-name="Path 967" d="M134.976,432.127c.893.611,2.066,1.239,2.978.589a1.66,1.66,0,0,0,.545-1.913,4.082,4.082,0,0,0-2.784-2.22,8,8,0,0,0-4.656-.591c-1.54.392-2.9,1.883-2.623,3.448.224,1.258,1.41,2.305,1.242,3.572s-1.6,1.946-2.869,2.174-2.682.3-3.592,1.21c-1.16,1.16-.871,3.233.221,4.457a8.135,8.135,0,0,0,4.336,2.157,10.55,10.55,0,0,0,6.413-.067c2.009-.83,3.573-3.063,2.991-5.158a7.2,7.2,0,0,0-1.385-2.36,6.577,6.577,0,0,1-1.34-2.382,2.476,2.476,0,0,1,.447-2.166.628.628,0,0,0,.084-.734Z" transform="translate(-119.466 -378.662)" fill="#2f2e41"/>
        <path id="Path_968" data-name="Path 968" d="M131.253,797.142h-28.6a.151.151,0,1,1,0-.3h28.6a.151.151,0,1,1,0,.3Z" transform="translate(-102.5 -692.114)" fill="#ccc"/>
      </g>
    </g>
  </g>
</svg>
