<svg xmlns="http://www.w3.org/2000/svg" width="375" height="149" viewBox="0 0 375 149">
  <g id="Group_1885" data-name="Group 1885" transform="translate(6 -134)">
    <path id="Path_735" data-name="Path 735" d="M0,0H375V149H0Z" transform="translate(-6 134)" fill="#e3d5f8"/>
    <g id="Group_1876" data-name="Group 1876">
      <path id="Path_738" data-name="Path 738" d="M327.84,289.079H306.309V261.69h9.577q-.355-.426-.718-.847h-8.849v-8.73q-2.687-2.268-5.545-4.365v13.106H251.136V232.041h22.131q-.935-.426-1.87-.847H251.136v-7.831q-2.772-.915-5.545-1.764v9.577H174.749l-.169-.161,20.493-19.452q-3.387-.373-6.79-.678l-14.192,13.469V209.887q-2.772-.146-5.545-.252v15.649L151.716,209.31q-3.733,0-7.463.043l22.824,21.662-.169.161H99V212q-2.772.35-5.545.791v18.4H49.816q-.355.416-.688.847H93.453v28.8H47.53c.156.285.32.57.489.847H93.453v27.389H71.105q-.454.439-.933.847h23.28v28.026q2.772.4,5.545.827V289.926h69.544v35.116q2.772,0,5.545.073V289.926h71.5v42.989l.229.025q2.661.3,5.32.557V289.926h49.623v42.483c.423-.078.847-.161,1.26-.252s.786-.159,1.18-.252q1.553-.33,3.1-.7V289.926h21.705Zm-159.3,0H99V261.69h69.539Zm0-28.228H99v-28.81h68.553l.978.771Zm77.044,28.228H174.092V261.69h71.495Zm0-28.228H174.092v-28.81h71.495Zm55.173,28.228H251.136V261.69h49.623Z" transform="translate(0.727 -62.886)" fill="#6c63ff" opacity="0.1"/>
      <g id="Group_1875" data-name="Group 1875" transform="translate(0 1.341)">
        <path id="Path_737" data-name="Path 737" d="M309.117,316.167a21.078,21.078,0,0,1-5.8,6.956c-.343.275-.693.539-1.049.8q-.718.5-1.472.99a48.379,48.379,0,0,1-12.939,5.406q-1.825.5-3.662.948-1.55.376-3.1.7c-.393.086-.786.166-1.18.252s-.844.169-1.26.252l-.6.113a154.04,154.04,0,0,1-35.033,2l-.56-.028-.895-.045q-3.589-.187-7.186-.476l-.907-.073-.4-.033q-2.016-.169-4.033-.371-2.656-.252-5.32-.557l-.229-.025-.187-.023h0c-6.339-.713-12.692-1.57-19.054-2.45l-.9-.126-1.616-.224-1.361-.189h0l-.4-.055q-3.221-.451-6.442-.892l-.348-.048c-4.033-.552-8.088-1.084-12.13-1.568l-.527-.063h0q-2.483-.295-4.963-.562l-1.26-.134-1.676-.169c-4.645-.461-9.287-.829-13.92-1.059q-3.342-.166-6.7-.252-2.772-.063-5.545-.073-3.76-.018-7.536.043h-.57c-3.546.058-7.1.159-10.656.28l-.64.02h-.212c-7.561.267-15.122.623-22.663.877l-1.842.061h-.267q-3.932.126-7.856.194H92.667l-1.169.015q-1.822.018-3.637.02H86.376c-4.441-.013-8.864-.111-13.26-.34l-.489-.028a167.827,167.827,0,0,1-25.282-3.145q-1.288-.27-2.571-.565A118.058,118.058,0,0,1,27.94,317.4a20.1,20.1,0,0,1-7.14-4.143c-4.98-5.041-3.11-14.913,3.37-17.784,5.068-2.246,11.006-.418,16.458-1.432a8.41,8.41,0,0,0,.99-.252,13.761,13.761,0,0,0,2.016-.832c.222-.111.444-.229.668-.353a17.015,17.015,0,0,0,1.492-.912,22.905,22.905,0,0,0,2.268-1.721q.479-.408.933-.847a17.837,17.837,0,0,0,2.752-3.294,11.643,11.643,0,0,0,.756-1.422,7.507,7.507,0,0,0,.313-.786,7.323,7.323,0,0,0,.3-1.164,5.389,5.389,0,0,0-1.986-5.237,5.28,5.28,0,0,0-.5-.381,7.7,7.7,0,0,0-1.094-.633c-.154-.073-.313-.144-.474-.212-2.3-.97-5.275-1.343-7.78-2.016h0a13.737,13.737,0,0,1-2.228-.774c-.456-.212-.91-.433-1.356-.665h0l-.118-.066h0a30.343,30.343,0,0,1-9.829-8.065,26.278,26.278,0,0,1-1.83-2.656c-.169-.277-.333-.562-.489-.847-4.428-7.989-4.884-18.227-.277-26.083a24.681,24.681,0,0,1,1.865-2.737q.333-.431.688-.847c4.385-5.174,10.686-8.68,17.048-11.276a119.972,119.972,0,0,1,26.59-7.133q2.772-.441,5.545-.791c7.737-.988,15.566-1.512,23.338-1.91q10.906-.552,21.907-.713,3.728-.05,7.463-.043,8.415,0,16.831.325,2.772.106,5.545.252,7.11.368,14.192,1.008,3.4.308,6.79.678a278.511,278.511,0,0,1,50.513,10.026q2.785.842,5.545,1.764a214.125,214.125,0,0,1,20.261,7.831q.938.421,1.87.847,6.2,2.843,12.219,6.127a135.888,135.888,0,0,1,15.273,9.577q2.853,2.092,5.545,4.365a79.745,79.745,0,0,1,8.849,8.73q.363.421.718.847,1.845,2.215,3.5,4.59c5.394,7.753,9.013,16.619,11.684,25.677C311.287,299.925,312.854,308.8,309.117,316.167Z" transform="translate(22.84 -65.527)" fill="#6c63ff" opacity="0.1"/>
        <g id="Group_1874" data-name="Group 1874">
          <g id="Group_1873" data-name="Group 1873" transform="translate(86.657 152.459)">
            <path id="Path_878" data-name="Path 878" d="M497.411,126.175c-20.764-16-49.651-16.659-70.725-1.065-11.141,8.244-19.777,20.856-18.206,40.059a46.4,46.4,0,0,0,4.356,16.926c9.134,18.492,46.65,17.78,48.733,17.778q2.025,0,4.049.091a88.812,88.812,0,0,1,14.065,1.778c6.606,1.377,15.016,2.069,22.53-.539a26.124,26.124,0,0,0,3.71-1.613c4.129-2.194,8.752-4.291,11.454-9.5a42.9,42.9,0,0,0,4.222-14.9C524.191,152.971,511.241,136.836,497.411,126.175Z" transform="translate(-348.791 -113.785)" fill="#f2f2f2"/>
            <ellipse id="Ellipse_69" data-name="Ellipse 69" cx="59.374" cy="5.573" rx="59.374" ry="5.573" transform="translate(57.544 80.871)" fill="#3f3d56"/>
            <ellipse id="Ellipse_70" data-name="Ellipse 70" cx="55.222" cy="2.616" rx="55.222" ry="2.616" transform="translate(58.796 83.829)" opacity="0.1"/>
            <path id="Path_879" data-name="Path 879" d="M855.989,73.342v6.253h-8.14v68.192h16.989V73.342Z" transform="translate(-711.422 -61.541)" fill="#575a89"/>
            <path id="Path_880" data-name="Path 880" d="M545.384,278.375V267.639H535v10.736h-3.893v32.562H549.16V278.375Z" transform="translate(-445.648 -224.573)" fill="#575a89"/>
            <rect id="Rectangle_190" data-name="Rectangle 190" width="14.039" height="15.219" transform="translate(87.466 71.263)" fill="#3f3d56"/>
            <rect id="Rectangle_191" data-name="Rectangle 191" width="2.242" height="15.219" transform="translate(87.466 71.263)" opacity="0.1"/>
            <path id="Path_881" data-name="Path 881" d="M670.186,52.079v3.657H649.422V52.079h-6.135v78.1H676.2v-78.1Z" transform="translate(-539.776 -43.699)" fill="#3f3d56"/>
            <rect id="Rectangle_192" data-name="Rectangle 192" width="4.601" height="3.657" transform="translate(130.41 8.38)" opacity="0.1"/>
            <rect id="Rectangle_193" data-name="Rectangle 193" width="4.601" height="78.102" transform="translate(103.511 8.38)" opacity="0.1"/>
            <path id="Path_882" data-name="Path 882" d="M452.471,175.272v-2.949H449.4v2.949h-5.545v55.8H457.9v-55.8Z" transform="translate(-372.437 -144.595)" fill="#3f3d56"/>
            <rect id="Rectangle_194" data-name="Rectangle 194" width="1.652" height="2.949" transform="translate(76.966 27.728)" opacity="0.1"/>
            <rect id="Rectangle_195" data-name="Rectangle 195" width="1.652" height="55.804" transform="translate(71.421 30.678)" opacity="0.1"/>
            <rect id="Rectangle_196" data-name="Rectangle 196" width="4.601" height="48.017" transform="translate(130.41 38.465)" opacity="0.1"/>
            <rect id="Rectangle_197" data-name="Rectangle 197" width="4.247" height="10.264" transform="translate(81.213 30.678)" opacity="0.1"/>
            <rect id="Rectangle_198" data-name="Rectangle 198" width="6.607" height="2.831" transform="translate(108.584 18.29)" fill="#ff6584"/>
            <rect id="Rectangle_199" data-name="Rectangle 199" width="6.607" height="2.831" transform="translate(122.624 47.431)" fill="#ff6584"/>
            <rect id="Rectangle_200" data-name="Rectangle 200" width="6.607" height="2.831" transform="translate(108.584 67.841)" fill="#ff6584"/>
            <rect id="Rectangle_201" data-name="Rectangle 201" width="6.607" height="2.831" transform="translate(75.197 43.42)" fill="#ff6584"/>
            <rect id="Rectangle_202" data-name="Rectangle 202" width="6.607" height="2.831" transform="translate(91.242 72.914)" fill="#ff6584"/>
            <rect id="Rectangle_203" data-name="Rectangle 203" width="11.326" height="4.719" transform="translate(88.882 56.279)" opacity="0.1"/>
            <rect id="Rectangle_204" data-name="Rectangle 204" width="11.326" height="4.719" transform="translate(138.433 23.481)" opacity="0.1"/>
            <rect id="Rectangle_205" data-name="Rectangle 205" width="11.326" height="4.719" transform="translate(138.433 33.51)" opacity="0.1"/>
            <rect id="Rectangle_206" data-name="Rectangle 206" width="11.326" height="4.719" transform="translate(138.433 43.538)" opacity="0.1"/>
            <rect id="Rectangle_207" data-name="Rectangle 207" width="11.326" height="4.719" transform="translate(138.433 53.566)" opacity="0.1"/>
            <rect id="Rectangle_208" data-name="Rectangle 208" width="11.326" height="4.719" transform="translate(138.433 63.594)" opacity="0.1"/>
            <rect id="Rectangle_209" data-name="Rectangle 209" width="11.326" height="4.719" transform="translate(138.433 73.622)" opacity="0.1"/>
            <path id="Path_883" data-name="Path 883" d="M919.178,211.578v-12.86h-8.259v12.86H907.97v41.646h14.04V211.578Z" transform="translate(-761.869 -166.742)" fill="#3f3d56"/>
            <rect id="Rectangle_210" data-name="Rectangle 210" width="2.596" height="12.86" transform="translate(149.051 31.976)" opacity="0.1"/>
            <rect id="Rectangle_211" data-name="Rectangle 211" width="2.596" height="41.646" transform="translate(146.101 44.835)" opacity="0.1"/>
            <rect id="Rectangle_212" data-name="Rectangle 212" width="6.961" height="4.129" transform="translate(153.18 65.718)" opacity="0.1"/>
            <rect id="Rectangle_213" data-name="Rectangle 213" width="6.607" height="2.831" transform="translate(153.416 59.583)" fill="#ff6584"/>
            <path id="Path_884" data-name="Path 884" d="M1015.944,377.3c0,10.511-6.249,14.181-13.956,14.181s-13.957-3.67-13.957-14.181,13.957-23.882,13.957-23.882S1015.944,366.786,1015.944,377.3Z" transform="translate(-835.242 -314.856)" fill="#6c63ff"/>
            <path id="Path_885" data-name="Path 885" d="M1003.856,276.085l.142-8.8,5.949-10.883-5.927,9.5.064-3.955,4.1-7.874-4.083,6.827h0l.116-7.114,4.39-6.268-4.372,5.15.072-13.044-.454,17.268.037-.712-4.464-6.832,4.393,8.2-.417,7.945-.013-.211-5.145-7.19,5.13,7.935-.053.994-.01.015,0,.082-1.054,20.157h1.41l.169-10.412,5.117-7.915Z" transform="translate(-837.618 -201.071)" fill="#3f3d56"/>
            <path id="Path_886" data-name="Path 886" d="M380.271,378c0,10.511-6.248,14.181-13.956,14.181s-13.956-3.67-13.956-14.181,13.956-23.882,13.956-23.882S380.271,367.493,380.271,378Z" transform="translate(-301.855 -315.449)" fill="#6c63ff"/>
            <path id="Path_887" data-name="Path 887" d="M368.182,276.792l.143-8.8,5.949-10.883-5.926,9.5.064-3.955,4.1-7.873-4.083,6.827h0l.115-7.114,4.39-6.268-4.372,5.15.072-13.044-.454,17.268.037-.712-4.463-6.832,4.392,8.2-.416,7.945-.012-.211-5.146-7.19,5.13,7.935-.052.993-.009.015,0,.082-1.055,20.157H368l.169-10.411,5.117-7.915Z" transform="translate(-304.231 -201.664)" fill="#3f3d56"/>
            <ellipse id="Ellipse_72" data-name="Ellipse 72" cx="26.067" cy="3.526" rx="26.067" ry="3.526" transform="translate(7.241 100.169)" opacity="0.1"/>
            <circle id="Ellipse_73" data-name="Ellipse 73" cx="7.076" cy="7.076" r="7.076" transform="translate(21.523 25.397)" fill="#2f2e41"/>
            <circle id="Ellipse_74" data-name="Ellipse 74" cx="3.96" cy="3.96" r="3.96" transform="translate(26.571 30.886)" fill="#ffb9b9"/>
            <path id="Path_888" data-name="Path 888" d="M206.166,343.27s1.007,2.416-.537,3.088-.94,4.631-.94,4.631l6.041-1.275a3.056,3.056,0,0,0-1.208-2.416c-1.208-.738,1.611-4.027,1.611-4.027Z" transform="translate(-177.85 -306.343)" fill="#ffb9b9"/>
            <path id="Path_889" data-name="Path 889" d="M163.877,338.694l.2,2.215,9.061,1.544-.873-4.094Z" transform="translate(-137.508 -283.914)" fill="#ffb9b9"/>
            <path id="Path_890" data-name="Path 890" d="M198.981,556.37l.336,9.4s-1.611,3.826-.336,10.874.336,8.994.336,8.994l4.564.6-.268-2.618-1.074-2.282.47-13.022a47.226,47.226,0,0,0,2.148-5.772c.067-.94-.134-7.786-.134-7.786Z" transform="translate(-172.745 -483.802)" fill="#ffb9b9"/>
            <path id="Path_891" data-name="Path 891" d="M198.981,556.37l.336,9.4s-1.611,3.826-.336,10.874.336,8.994.336,8.994l4.564.6-.268-2.618-1.074-2.282.47-13.022a47.226,47.226,0,0,0,2.148-5.772c.067-.94-.134-7.786-.134-7.786Z" transform="translate(-172.745 -483.802)" opacity="0.1"/>
            <path id="Path_892" data-name="Path 892" d="M199.569,719.62s0-.873-.4-.94-.94-.269-.94,0a14.673,14.673,0,0,1-.2,2.416,2.788,2.788,0,0,0-.2,1.678s-.6,1.544-.134,1.678a28.759,28.759,0,0,0,3.155.134l.134-.738s5.974,1.879,7.249.2c0,0,.6-1.208-.47-1.477,0,0-2.416.067-3.289-.94s-2.551-3.356-2.551-3.356-1.342.2-1.208,1.074v.269Z" transform="translate(-171.924 -621.009)" fill="#2f2e41"/>
            <path id="Path_893" data-name="Path 893" d="M224.485,560.958a22.04,22.04,0,0,0,3.02,8.122s1.208,2.819,1.007,3.692a20.046,20.046,0,0,0,1.812,9.867l1.879,6.175.94,2.215,1.611.671,2.618.2-1.477-3.088-.738-1.611a14.1,14.1,0,0,1-1.342-5.168c0-2.416-.873-8.122-.873-8.122s0-12.887-1.41-13.693S224.485,560.958,224.485,560.958Z" transform="translate(-194.558 -488.189)" fill="#ffb9b9"/>
            <path id="Path_894" data-name="Path 894" d="M185.6,463.123l-.671-.134v3.021s-.268,2.349-.873,2.819-2.953,9.733-2.148,10.27,11.612,3.356,14.23.47l-1.812-8.793s.134-6.041,0-6.041S185.6,463.123,185.6,463.123Z" transform="translate(-158.689 -406.798)" fill="#2f2e41"/>
            <path id="Path_895" data-name="Path 895" d="M198.408,375.174a5.532,5.532,0,0,0-6.712.671s-1.208,4.967-1.41,6.175-1.477,6.175-.537,6.645.94-1.141,3.356-.806,7.585.2,7.585-.2-1.208-3.625-.738-4.162,1.275-3.088.47-4.363A44.009,44.009,0,0,1,198.408,375.174Z" transform="translate(-165.125 -332.408)" fill="#9a5e62"/>
            <path id="Path_896" data-name="Path 896" d="M218.228,457.172l6.712,3.155s2.685,3.423,3.289,1.477-2.014-3.356-2.014-3.356l-4.5-2.551-3.49,1.141Z" transform="translate(-189.308 -400.848)" fill="#ffb9b9"/>
            <path id="Path_897" data-name="Path 897" d="M211.739,383.732s-3.826,11.813-.336,13.693,4.027-1.678,4.027-1.678-2.349-1.477-1.611-3.289,1.41-8.726,1.41-8.726Z" transform="translate(-182.349 -340.295)" opacity="0.1"/>
            <path id="Path_898" data-name="Path 898" d="M210.487,381.229s-3.826,11.813-.336,13.693,4.027-1.678,4.027-1.678-2.349-1.477-1.611-3.289,1.41-8.726,1.41-8.726Z" transform="translate(-181.298 -338.195)" fill="#9a5e62"/>
            <path id="Path_899" data-name="Path 899" d="M267.756,726.918s-.067-.914-.494-.953-1-.209-.984.073a15.416,15.416,0,0,1-.024,2.546,2.927,2.927,0,0,0-.081,1.773s-.513,1.664-.011,1.768a30.206,30.206,0,0,0,3.315-.1l.084-.784s6.4,1.507,7.608-.349c0,0,.539-1.312-.606-1.51,0,0-2.526.257-3.517-.73s-2.931-3.318-2.931-3.318-1.39.315-1.182,1.218l.021.281Z" transform="translate(-229.343 -626.927)" fill="#2f2e41"/>
            <ellipse id="Ellipse_75" data-name="Ellipse 75" cx="4.779" cy="2.545" rx="4.779" ry="2.545" transform="translate(25.743 29.741)" fill="#2f2e41"/>
            <ellipse id="Ellipse_76" data-name="Ellipse 76" cx="0.683" cy="1.055" rx="0.683" ry="1.055" transform="translate(25.867 34.458)" fill="#ffb9b9"/>
            <circle id="Ellipse_77" data-name="Ellipse 77" cx="3.352" cy="3.352" r="3.352" transform="translate(20.902 22.045)" fill="#2f2e41"/>
          </g>
          <path id="Icon_material-location-on" data-name="Icon material-location-on" d="M15.564,3A8.058,8.058,0,0,0,7.5,11.064c0,6.048,8.064,14.975,8.064,14.975s8.064-8.928,8.064-14.975A8.058,8.058,0,0,0,15.564,3Zm0,10.944a2.88,2.88,0,1,1,2.88-2.88A2.881,2.881,0,0,1,15.564,13.944Z" transform="translate(150.1 152.459)" fill="#ff6584"/>
        </g>
      </g>
    </g>
  </g>
</svg>
